<?xml version="1.0" encoding="UTF-8"?>
<svg xmlns="http://www.w3.org/2000/svg" id="Layer_1" viewBox="243.08 241.27 355.74 29.84">
  <defs>
    <style>
      .cls-1 {
        fill: #231f20;
      }

      .cls-2 {
        fill: #010101;
      }
    </style>
  </defs>
  <path class="cls-1" d="M247.82,263.93h.43c1.88,0,3.59-.89,3.59-3.57,0-3.02-2.32-3.92-4.5-3.92h-1.62v5.95c0,1.29.2,1.54,2.09,1.54M251.35,251.69c0-1.96-1.1-3.25-3.8-3.25h-1.82v4.85c0,1.68.05,1.81,1.82,1.81h.25c2.41,0,3.54-1.39,3.54-3.41M254.01,251.35c0,2.35-1.45,3.74-3.21,4.38,1.95.39,3.76,1.71,3.76,4.33s-1.43,5.21-6.46,5.21h-5.02v-18.17h5.13c3.61,0,5.81,1.4,5.81,4.25"></path>
  <path class="cls-1" d="M276.87,263.15c-1.08,1.52-3.01,2.3-5.47,2.3s-4.23-.75-5.33-2.22c-.77-1.04-1.03-2.21-1.03-3.59v-12.72h2.55v12.99c0,2.23,1.26,3.86,3.84,3.86s3.9-1.63,3.9-3.86v-12.99h2.51v12.72c0,1.34-.27,2.54-.97,3.51"></path>
  <path class="cls-1" d="M316.61,259.61c0,5.23-1,7.02-6.52,8.01v-.77c3.61-1.46,3.86-3.37,3.86-6.88v-12.97c0-1.16-.42-1.47-1.85-1.47h-.48v-.78h5"></path>
  <path class="cls-1" d="M291.63,248.44v7.91c5.17-.33,6.15-2.16,6.15-4.36s-1.46-3.55-4.53-3.55h-1.62ZM296.11,256.96c.79.99,1.43,2.11,2.11,3.17,1.05,1.62,3.59,5.15,3.59,5.15h-3.28l-3.99-6.21c-.71-1.11-1.4-1.37-2.9-1.39v7.6h-2.66v-18.17h4.84c1.67,0,6.69.17,6.69,4.74,0,2.52-1.5,4.21-4.39,5.11"></path>
  <path class="cls-1" d="M397.77,256.78c.53,1.54,3.12,8.64,3.12,8.64h-2.87l-1.54-4.67c-.43-1.27-.56-1.41-2.34-1.41h-3.83c-.43,0-.52.08-.6.34l-1.96,5.73h-1.62l6.43-18.45h1.79l3.42,9.81ZM390.28,258.01h3.04c1.93,0,2.13-.27,1.75-1.34l-2.17-6.34"></path>
  <path class="cls-1" d="M470.09,256.78c.53,1.54,3.12,8.64,3.12,8.64h-2.88l-1.54-4.67c-.42-1.27-.56-1.41-2.33-1.41h-3.83c-.43,0-.52.08-.6.34l-1.96,5.73h-1.62l6.43-18.45h1.79l3.42,9.81ZM462.6,258.01h3.04c1.94,0,2.13-.27,1.76-1.34l-2.17-6.34"></path>
  <rect class="cls-1" x="428.91" y="247.13" width="2.66" height="18.13"></rect>
  <polyline class="cls-1" points="357.46 265.54 348.68 255.64 356.99 246.84 354.41 246.84 346.62 255.26 346.62 247.13 343.94 247.13 343.94 265.25 346.62 265.25 346.62 256.22 354.7 265.54"></polyline>
  <polyline class="cls-1" points="412.76 263.49 412.76 247.12 410.11 247.12 410.11 265.26 421.67 265.26 421.67 263.49"></polyline>
  <path class="cls-1" d="M446.74,255.2c-1.61-.04-1.62-.38-1.62-1.95v-5.02h8.35v-1.11h-11.03v18.13h2.69v-8.93s8.34,0,8.34,0v-1.12c-6.67,0-6.69,0-6.72,0"></path>
  <polyline class="cls-1" points="368.22 265.26 368.22 256.27 375.26 256.27 375.26 265.26 377.93 265.26 377.93 247.12 375.26 247.12 375.26 254.5 368.22 254.5 368.22 247.12 365.55 247.12 365.55 265.26"></polyline>
  <path class="cls-2" d="M538.79,265.49c.18-.92.18-2.21.03-3.26l-1.18-8.76-6.45,12.02h-1.23l-6.56-12.56-1.27,9.5c-.14,1.09-.18,2.48-.06,3.07h-2.31c.44-.95.56-1.36.76-2.93l2.09-15.67h1.06l7.65,14.63,7.65-14.63h.8l2.16,15.64c.22,1.56.38,2.01.81,2.96h-3.94Z"></path>
  <path class="cls-2" d="M518.76,263.64l-.28,1.85h-13.3c.55-1.28.51-2.01.51-2.93v-12.74c0-.89.03-1.68-.51-2.93h12.98l.02,1.89c-.24-.1-.44-.18-.62-.26-.48-.18-1.09-.35-1.73-.34h-7.12v7.28h8.35l-.41,1.43h-7.94v7.29h7.53c1.27.02,2.53-.7,2.53-.7l-.03.16h.01Z"></path>
  <path class="cls-2" d="M585.97,255.91v-7.93c5.84-.23,6.44,2.67,6.5,4,.06,1.38-.52,3.02-2.24,3.68h0s-.03,0-.08.03c-.92.4-4.18.22-4.18.22M589.95,256.79l.78-.08c2.62-.39,4.85-1.91,4.85-4.73,0-5.35-6.44-5.1-9.16-5.1h-3.99c.55,1.24.51,2.04.51,2.93v12.75c0,.92.03,1.65-.51,2.93h4.07c-.52-1.28-.52-2.01-.52-2.93v-5.73c.39.02.99.15,1.85,1.16,3,3.57,5.39,5.82,7.24,7.51h3.75c-.37-.36-8.86-8.71-8.86-8.71"></path>
  <path class="cls-2" d="M568.89,257.38l2.47-5.56,2.52,5.56h-4.99ZM579.44,262.45l-7.05-15.56h-.81l-7.16,16.01c-.54,1.19-.8,1.63-1.57,2.59h2.41l3.03-6.81h6.18l3.07,6.81h4.08c-1.08-1.04-1.43-1.52-2.19-3.04"></path>
  <path class="cls-2" d="M549.57,257.38l2.47-5.56,2.52,5.56h-4.99ZM560.11,262.45l-7.05-15.56h-.81l-7.16,16.01c-.54,1.19-.8,1.63-1.57,2.59h2.41l3.03-6.81h6.18l3.07,6.81h4.08c-1.08-1.04-1.43-1.52-2.19-3.04"></path>
  <rect class="cls-2" x="488.63" y="241.27" width=".15" height="29.84"></rect>
</svg>
