<?xml version="1.0" encoding="UTF-8"?>
<svg id="Layer_1" data-name="Layer 1" xmlns="http://www.w3.org/2000/svg" viewBox="0 0 16 16">
  <defs>
    <style>
      .cls-1 {
        fill: #b0a194;
      }

      .cls-1, .cls-2 {
        stroke-width: 0px;
      }

      .cls-2 {
        fill: #fff;
      }
    </style>
  </defs>
  <rect class="cls-2" width="16" height="16"/>
  <path class="cls-1" d="m0,14.88c.86-1.7,1.92-3.1,3.58-4.02.69-.38,1.48-.62,2.03-1.21.53-.56.81-1.22.73-2.03-.18-1.94-.07-3.84.93-5.59.11-.2.23-.39.34-.58.26-.46.4-.46.71.02,1.19,1.86,1.51,3.87,1.32,6.03-.12,1.29.5,2.17,1.68,2.7,1.53.68,2.88,1.61,3.85,3.01.18.26.31.55.48.81.14.23.44.45.28.71-.12.19-.45.12-.7.13-2.09.12-3.88-.66-5.57-1.79-1.31-.87-2.17-.79-3.47.13-1.82,1.29-3.83,1.99-6.2,1.68Z"/>
</svg>