<?xml version="1.0" encoding="utf-8"?>
<!-- Generator: Adobe Illustrator 27.8.0, SVG Export Plug-In . SVG Version: 6.00 Build 0)  -->
<svg version="1.1" id="Layer_1" xmlns="http://www.w3.org/2000/svg" xmlns:xlink="http://www.w3.org/1999/xlink" x="0px" y="0px"
	 viewBox="0 0 1920 1080" style="enable-background:new 0 0 1920 1080;" xml:space="preserve">
<style type="text/css">
	.st0{fill:#FFFFFF;}
</style>
<g>
	<path class="st0" d="M531.3,512.6h-7.3v-24h8.3c6.8,0,11.3,0.6,13.5,1.7c3.8,1.7,5.8,4.9,5.8,9.6c0,4.2-1.8,7.4-5.2,9.8
		C543.5,511.7,538.4,512.6,531.3,512.6z"/>
	<path class="st0" d="M555.2,545.1c0,3-1,5.8-3.1,8.4c-2.1,2.5-4.7,4.3-7.9,5.2c-3.3,0.9-7.9,1.3-13.9,1.3h-6.2v-28.4h7.9
		c7.5,0,13,0.7,16.2,2C552.9,535.7,555.2,539.6,555.2,545.1z"/>
	<path class="st0" d="M1112.2,556.9c0,1.7,0.6,3.1,1.9,4.3s2.8,1.8,4.6,1.8c2.8,0,6.9-1.9,12.2-5.6v-14.5
		C1118.4,546.4,1112.2,551,1112.2,556.9z M1112.2,556.9c0,1.7,0.6,3.1,1.9,4.3s2.8,1.8,4.6,1.8c2.8,0,6.9-1.9,12.2-5.6v-14.5
		C1118.4,546.4,1112.2,551,1112.2,556.9z M1112.2,556.9c0,1.7,0.6,3.1,1.9,4.3s2.8,1.8,4.6,1.8c2.8,0,6.9-1.9,12.2-5.6v-14.5
		C1118.4,546.4,1112.2,551,1112.2,556.9z M1112.2,556.9c0,1.7,0.6,3.1,1.9,4.3s2.8,1.8,4.6,1.8c2.8,0,6.9-1.9,12.2-5.6v-14.5
		C1118.4,546.4,1112.2,551,1112.2,556.9z M1112.2,556.9c0,1.7,0.6,3.1,1.9,4.3s2.8,1.8,4.6,1.8c2.8,0,6.9-1.9,12.2-5.6v-14.5
		C1118.4,546.4,1112.2,551,1112.2,556.9z M1112.2,556.9c0,1.7,0.6,3.1,1.9,4.3s2.8,1.8,4.6,1.8c2.8,0,6.9-1.9,12.2-5.6v-14.5
		C1118.4,546.4,1112.2,551,1112.2,556.9z M0,0v1080h1920V0H0z M574.2,572.4c-8.1,5.8-18.5,8.7-31.3,8.7h-47.5V468.3h43.1
		c15.2,0,26.2,2.7,33,7.9c6.3,4.7,9.5,11.3,9.5,19.8c0,6.4-2.1,11.9-6.4,16.6c-3.6,3.8-9.6,6.8-17.9,9c5.7,0.9,10.2,2,13.3,3.2
		c3.1,1.2,5.9,3.1,8.4,5.6c5.4,5.2,8.1,11.6,8.1,19.3C586.3,559,582.2,566.6,574.2,572.4z M681.2,581.1h-26.7v-12.7
		c-8.9,9.6-18.1,14.4-27.5,14.4c-10.2,0-17.3-3.6-21.3-10.8c-1.6-2.9-2.6-6-3-9.1c-0.5-3.1-0.7-8.4-0.7-15.7v-47.5h27.2v47.3
		c0,7.1,2.6,10.6,7.8,10.6c5.6,0,11.5-3.5,17.6-10.5v-47.5h26.7V581.1z M742.2,527.2c-3.4,3.5-7.2,9.7-11.4,18.5v35.3h-27.2v-81.5
		h26v17.1c3.6-6.7,7.4-11.4,11.3-14.3c4-2.9,8.6-4.3,14-4.3c2.8,0,5.4,0.5,7.8,1.5l-4.7,22.8c-1.6-0.3-2.9-0.5-4.1-0.5
		C749.5,521.9,745.6,523.7,742.2,527.2z M803.8,575.2c0,12.8-1.8,22.1-5.2,27.7c-4.8,8.1-12.8,13.6-24,16.4
		c-3.4,0.9-7.8,1.8-13.2,2.5l-5.1-19.3c8.8-2.8,14.4-5.8,16.8-9c2.4-3.2,3.6-9.3,3.6-18.3v-75.5h27V575.2z M800.6,487.4
		c-2.9,2.9-6.3,4.4-10.4,4.4c-4,0-7.5-1.5-10.5-4.4s-4.4-6.4-4.4-10.5c0-4,1.5-7.5,4.4-10.4s6.4-4.3,10.5-4.3
		c4.1,0,7.5,1.4,10.4,4.3c2.9,2.9,4.3,6.3,4.3,10.2C805,481,803.5,484.5,800.6,487.4z M941.7,581.1l-38-56.3v56.3h-29.7V468.3h29.7
		v47.3l36.3-47.3h34.8l-42.1,51.7l45.8,61H941.7z M1070.8,524.6v56.4h-27.4v-46.6c0-4.8-0.5-8.2-1.6-10c-1.1-1.8-3-2.7-5.8-2.7
		c-6,0-12.3,3.5-18.9,10.5v48.8h-27.2v-121h27.2v51c5.9-5.2,11-8.8,15.5-10.9c4.4-2.1,9.1-3.1,13.9-3.1c7.3,0,13.2,2.1,17.8,6.2
		c4.5,4.1,6.8,9.5,6.8,16.3L1070.8,524.6z M1152.1,583.1c-5.5,0-9.8-0.8-12.7-2.5s-5.1-4.6-6.6-8.6c-9.4,7.4-17.7,11.2-25,11.2
		c-6,0-11-2.1-15.1-6.2c-4.1-4.2-6.2-9.2-6.2-15.2c0-16.2,14.7-27.3,44.1-33.3v-0.8c0-3.3-0.6-5.6-1.7-6.8c-1.1-1.3-3.1-2-5.9-2
		c-2.9,0-6.7,0.7-11.2,2c-4.5,1.3-8.6,3-12.3,5.1l-2.4,1.2l-8.1-16.2c15.4-8.9,29.2-13.3,41.4-13.3c5,0,9.5,0.8,13.6,2.3
		c4.1,1.5,7.1,3.5,9,6c2.9,3.8,4.4,10.1,4.4,18.8v33.8c0,1.7,0.5,3,1.5,4.1c1,1,2.4,1.5,4.1,1.5c0.2,0,1.8-0.2,4.7-0.5l1.3,15.6
		C1162.3,581.7,1156.6,583.1,1152.1,583.1z M1209.7,581.1h-27.4v-121h27.4V581.1z M1258.2,581.1h-26.9v-81.5h26.9V581.1z
		 M1255.2,487.4c-2.9,2.9-6.4,4.4-10.6,4.4c-4.1,0-7.5-1.4-10.4-4.3c-2.9-2.9-4.3-6.4-4.3-10.6c0-4,1.4-7.5,4.3-10.4
		c2.9-2.9,6.3-4.3,10.4-4.3c4.1,0,7.5,1.4,10.5,4.3c2.9,2.9,4.4,6.3,4.4,10.2C1259.6,481,1258.1,484.5,1255.2,487.4z M1334.4,499.6
		V517h-21.8v64.1h-27V517H1270v-17.4h15.6v-5.2c0-12.6,2.9-21.5,8.6-26.5c7-6.4,16.6-9.6,28.7-9.6c7,0,12.9,0.7,17.6,2.2l1.9,0.5
		l-3.9,18.2c-4.5-0.5-7.3-0.7-8.4-0.7c-6.5,0-11.1,1.4-13.6,4.1c-2.5,2.8-3.8,7.8-3.8,15v2H1334.4z M1407.6,583.1
		c-5.5,0-9.8-0.8-12.7-2.5c-2.9-1.7-5.1-4.6-6.6-8.6c-9.4,7.4-17.7,11.2-25,11.2c-6,0-11-2.1-15.1-6.2c-4.1-4.2-6.2-9.2-6.2-15.2
		c0-16.2,14.7-27.3,44.1-33.3v-0.8c0-3.3-0.6-5.6-1.7-6.8c-1.1-1.3-3.1-2-5.9-2c-2.9,0-6.7,0.7-11.2,2c-4.5,1.3-8.6,3-12.3,5.1
		l-2.4,1.2l-8.1-16.2c15.4-8.9,29.2-13.3,41.4-13.3c5,0,9.5,0.8,13.6,2.3c4.1,1.5,7.1,3.5,9,6c2.9,3.8,4.4,10.1,4.4,18.8v33.8
		c0,1.7,0.5,3,1.5,4.1c1,1,2.4,1.5,4.1,1.5c0.2,0,1.8-0.2,4.7-0.5l1.3,15.6C1417.8,581.7,1412.1,583.1,1407.6,583.1z M1367.7,556.9
		c0,1.7,0.6,3.1,1.9,4.3c1.2,1.2,2.8,1.8,4.6,1.8c2.8,0,6.9-1.9,12.2-5.6v-14.5C1373.9,546.4,1367.7,551,1367.7,556.9z
		 M1112.2,556.9c0,1.7,0.6,3.1,1.9,4.3s2.8,1.8,4.6,1.8c2.8,0,6.9-1.9,12.2-5.6v-14.5C1118.4,546.4,1112.2,551,1112.2,556.9z
		 M1112.2,556.9c0,1.7,0.6,3.1,1.9,4.3s2.8,1.8,4.6,1.8c2.8,0,6.9-1.9,12.2-5.6v-14.5C1118.4,546.4,1112.2,551,1112.2,556.9z
		 M1112.2,556.9c0,1.7,0.6,3.1,1.9,4.3s2.8,1.8,4.6,1.8c2.8,0,6.9-1.9,12.2-5.6v-14.5C1118.4,546.4,1112.2,551,1112.2,556.9z
		 M1112.2,556.9c0,1.7,0.6,3.1,1.9,4.3s2.8,1.8,4.6,1.8c2.8,0,6.9-1.9,12.2-5.6v-14.5C1118.4,546.4,1112.2,551,1112.2,556.9z
		 M1112.2,556.9c0,1.7,0.6,3.1,1.9,4.3s2.8,1.8,4.6,1.8c2.8,0,6.9-1.9,12.2-5.6v-14.5C1118.4,546.4,1112.2,551,1112.2,556.9z"/>
</g>
</svg>
