<?xml version="1.0" encoding="UTF-8"?>
<svg xmlns="http://www.w3.org/2000/svg" width="38" height="38" viewBox="0 0 38 38" fill="none">
  <path d="M19.1042 10.25C19.1456 10.25 19.187 10.25 19.2284 10.25C19.2599 10.2617 19.2905 10.2806 19.3229 10.2833C19.5812 10.3094 19.8413 10.3238 20.0978 10.3589C20.3525 10.3931 20.609 10.4291 20.8575 10.4939C21.213 10.5866 21.5631 10.7027 21.9141 10.8134C22.3407 10.9484 22.7421 11.1428 23.131 11.358C24.8465 12.3075 26.1416 13.6585 26.9778 15.4379C27.1092 15.7178 27.2307 16.004 27.3333 16.2956C27.4449 16.6151 27.5466 16.9409 27.6195 17.2713C27.696 17.616 27.7383 17.9679 27.7851 18.318C27.8175 18.5619 27.8373 18.8067 27.8499 19.0524C27.8733 19.4854 27.8391 19.9174 27.7833 20.3458C27.7392 20.6815 27.6807 21.0163 27.6069 21.3467C27.5394 21.6518 27.4548 21.9542 27.3576 22.2512C27.2019 22.7273 27.0003 23.1854 26.7591 23.6238C25.8707 25.2393 24.6106 26.4778 22.9798 27.3374C22.2525 27.7208 21.4821 27.9899 20.6792 28.1645C20.5307 28.1969 20.3795 28.2212 20.2247 28.25V21.9209H20.3327C20.8296 21.9209 21.3264 21.9209 21.8241 21.9209C21.969 21.9209 22.1139 21.9236 22.2588 21.9191C22.2849 21.9191 22.3272 21.893 22.3317 21.8723C22.3515 21.7877 22.3587 21.6995 22.3713 21.6131C22.4073 21.3629 22.4415 21.1126 22.4802 20.8624C22.5252 20.5744 22.5756 20.2873 22.6215 20.0002C22.6575 19.7743 22.689 19.5484 22.7223 19.3225C22.725 19.318 22.726 19.3126 22.7251 19.3072C22.6854 19.3 22.6458 19.2874 22.6062 19.2874C21.8124 19.2865 21.0186 19.2865 20.2256 19.2865C20.2256 18.6771 20.2184 18.0678 20.2283 17.4594C20.231 17.3046 20.2616 17.1416 20.3183 16.9985C20.4605 16.6394 20.7206 16.3955 21.096 16.2785C21.3066 16.2128 21.5226 16.2029 21.7386 16.1984C22.1022 16.1903 22.4658 16.1957 22.8295 16.1957C22.8322 16.1903 22.834 16.1849 22.8367 16.1804V13.9708C22.5882 13.9366 22.3506 13.897 22.1121 13.8727C21.8088 13.8421 21.5055 13.8196 21.2013 13.8007C20.745 13.7719 20.2904 13.7953 19.8422 13.8934C19.3643 13.9987 18.9251 14.1931 18.5434 14.5045C18.0259 14.9266 17.7046 15.473 17.5372 16.1147C17.4526 16.4396 17.3941 16.769 17.3941 17.1056C17.3932 17.7978 17.3923 18.4899 17.3905 19.182C17.3905 19.2171 17.3869 19.2522 17.3851 19.2883C16.6569 19.2883 15.9297 19.2883 15.2016 19.2883C15.1638 19.2883 15.1269 19.2991 15.0891 19.3045C15.0846 19.3396 15.0765 19.3738 15.0765 19.4089C15.0765 20.2099 15.0765 21.0109 15.0765 21.8129C15.0765 21.8471 15.0873 21.8813 15.0927 21.9164C15.099 21.9164 15.1053 21.9164 15.1107 21.9173C15.1458 21.9191 15.1818 21.9218 15.2169 21.9218C15.9036 21.9218 16.5894 21.9218 17.2762 21.9218H17.3842V28.2356C17.3338 28.2356 17.2879 28.2446 17.2465 28.2338C16.8496 28.1366 16.4508 28.0439 16.0575 27.9332C15.621 27.8108 15.2079 27.629 14.8029 27.4265C13.0109 26.5309 11.6644 25.1817 10.7337 23.415C10.5708 23.1053 10.4367 22.7786 10.3152 22.4501C10.1388 21.9722 9.99031 21.4844 9.91021 20.9803C9.86251 20.6761 9.82651 20.3701 9.786 20.065C9.7734 19.9714 9.7617 19.8778 9.75 19.7842C9.75 19.7428 9.75 19.7014 9.75 19.66C9.7554 19.6537 9.7653 19.6474 9.7653 19.6411C9.7653 19.435 9.7653 19.2288 9.7653 19.0227C9.7653 19.0164 9.7554 19.0092 9.7509 19.0029C9.7509 18.9435 9.7509 18.8841 9.7509 18.8256C9.7635 18.7203 9.7761 18.615 9.7878 18.5097C9.8121 18.2955 9.8202 18.0786 9.8616 17.868C9.93001 17.5188 10.0119 17.1722 10.1019 16.8284C10.2459 16.2812 10.4556 15.7574 10.7121 15.2524C11.0542 14.5792 11.4682 13.9546 11.9632 13.384C12.8444 12.3669 13.901 11.583 15.1278 11.0339C15.7875 10.7387 16.4733 10.5227 17.1898 10.4066C17.5417 10.349 17.8927 10.2914 18.2509 10.2842C18.2824 10.2842 18.313 10.2626 18.3436 10.25C18.3967 10.25 18.4498 10.25 18.5038 10.25C18.5218 10.2563 18.5407 10.268 18.5587 10.268C18.7234 10.2698 18.8882 10.2698 19.052 10.268C19.07 10.268 19.0889 10.2563 19.1069 10.25H19.1042Z" fill="#1877F2"></path>
  <circle opacity="0.5" cx="18.75" cy="19.25" r="18" stroke="#373534" stroke-width="1.5"></circle>
</svg>
