<?xml version="1.0" encoding="UTF-8"?>
<svg xmlns="http://www.w3.org/2000/svg" width="38" height="38" viewBox="0 0 38 38" fill="none">
  <circle opacity="0.5" cx="18.75" cy="18.75" r="18" stroke="#373534" stroke-width="1.5"></circle>
  <g clip-path="url(#clip0_6335_24169)">
    <path fill-rule="evenodd" clip-rule="evenodd" d="M23.4039 15.4969C23.4039 15.9937 23.0008 16.3969 22.5039 16.3969C22.007 16.3969 21.6039 15.9937 21.6039 15.4969C21.6039 15 22.007 14.5969 22.5039 14.5969C23.0008 14.5969 23.4039 15 23.4039 15.4969ZM18.5008 22.0008C17.1203 22.0008 16.0012 20.8816 16.0012 19.5012C16.0012 18.1207 17.1203 17.0016 18.5008 17.0016C19.8813 17.0016 21.0004 18.1207 21.0004 19.5012C21.0004 20.8816 19.8813 22.0008 18.5008 22.0008ZM18.5008 15.6492C16.3738 15.6492 14.6488 17.373 14.6488 19.5C14.6488 21.627 16.3727 23.352 18.5008 23.352C20.6289 23.352 22.3527 21.6281 22.3527 19.5C22.3527 17.373 20.6289 15.6492 18.5008 15.6492ZM18.5008 13.3523C20.5035 13.3523 20.7402 13.3594 21.5312 13.3957C22.2625 13.4285 22.6598 13.5516 22.9234 13.6535C23.2738 13.7895 23.5234 13.9523 23.7859 14.2148C24.0484 14.4773 24.2113 14.727 24.3473 15.0773C24.4504 15.3422 24.5723 15.7383 24.6051 16.4695C24.6414 17.2605 24.6484 17.4973 24.6484 19.5C24.6484 21.5027 24.6402 21.7395 24.6051 22.5305C24.5711 23.2617 24.4492 23.659 24.3473 23.9227C24.2113 24.273 24.0484 24.5227 23.7859 24.7852C23.5234 25.0477 23.2738 25.2105 22.9234 25.3465C22.6598 25.4496 22.2625 25.5715 21.5312 25.6043C20.7402 25.6406 20.5035 25.6477 18.5008 25.6477C16.498 25.6477 16.2613 25.6395 15.4703 25.6043C14.7391 25.5703 14.3418 25.4484 14.0781 25.3465C13.7277 25.2105 13.4781 25.0477 13.2156 24.7852C12.9531 24.5227 12.7902 24.273 12.6543 23.9227C12.5512 23.659 12.4293 23.2617 12.3965 22.5305C12.3602 21.7395 12.3531 21.5027 12.3531 19.5C12.3531 17.4973 12.3602 17.2605 12.3965 16.4695C12.4293 15.7383 12.5523 15.341 12.6543 15.0773C12.7902 14.727 12.9531 14.4773 13.2156 14.2148C13.4781 13.9523 13.7277 13.7895 14.0781 13.6535C14.343 13.5504 14.7391 13.4285 15.4703 13.3957C16.2613 13.3594 16.498 13.3523 18.5008 13.3523ZM18.5008 12.0012C16.4641 12.0012 16.2086 12.0094 15.4082 12.0457C14.6102 12.082 14.0652 12.2086 13.5883 12.3937C13.0949 12.5848 12.6766 12.8414 12.2594 13.2586C11.8422 13.6758 11.5855 14.0941 11.3945 14.5875C11.2094 15.0645 11.0828 15.6094 11.0465 16.4074C11.0102 17.2078 11.002 17.4633 11.002 19.5C11.002 21.5367 11.0102 21.7922 11.0465 22.5926C11.0828 23.3906 11.2094 23.9355 11.3945 24.4125C11.5855 24.9059 11.8422 25.3242 12.2594 25.7414C12.6766 26.1586 13.0949 26.4152 13.5883 26.6062C14.0652 26.7914 14.6102 26.918 15.4082 26.9543C16.2086 26.9906 16.4641 27 18.5008 27C20.5375 27 20.793 26.9918 21.5934 26.9543C22.3914 26.918 22.9363 26.7914 23.4133 26.6062C23.9066 26.4141 24.325 26.1586 24.7422 25.7414C25.1594 25.3242 25.416 24.9059 25.607 24.4125C25.7922 23.9355 25.9187 23.3906 25.9551 22.5914C25.9914 21.791 26.0008 21.5355 26.0008 19.4988C26.0008 17.4621 25.9926 17.2066 25.9551 16.4062C25.9187 15.6082 25.7922 15.0633 25.607 14.5863C25.4148 14.093 25.1594 13.6746 24.7422 13.2574C24.325 12.8402 23.9066 12.5836 23.4133 12.3926C22.9363 12.2074 22.3914 12.0809 21.5922 12.0445C20.7918 12.0082 20.5363 12 18.4996 12L18.5008 12.0012Z" fill="url(#paint0_radial_6335_24169)"></path>
  </g>
  <defs>
    <radialGradient id="paint0_radial_6335_24169" cx="0" cy="0" r="1" gradientUnits="userSpaceOnUse" gradientTransform="translate(13.2402 27.0516) scale(19.166)">
      <stop stop-color="#FFB140"></stop>
      <stop offset="0.26" stop-color="#FF5445"></stop>
      <stop offset="0.6" stop-color="#D82D7E"></stop>
      <stop offset="1" stop-color="#D82D7E"></stop>
    </radialGradient>
    <clipPath id="clip0_6335_24169">
      <rect width="15" height="15" fill="white" transform="translate(11 12)"></rect>
    </clipPath>
  </defs>
</svg>
