<svg width="24" height="21" viewBox="0 0 24 21" fill="none" xmlns="http://www.w3.org/2000/svg">
<g clip-path="url(#clip0_1876_9290)">
<path d="M6.17531 5.61914H5.91726L5.43506 8.08008H6.65752L6.17531 5.61914Z" fill="#373534"/>
<path d="M10.4141 1.61679C10.3016 0.695133 9.5297 0 8.61947 0H2.40883C1.41146 0 0.600098 0.827941 0.600098 1.8457V15.4629C0.600098 16.4807 1.41146 17.3086 2.40883 17.3086C6.01304 17.3086 8.60584 17.3086 11.9168 17.3086C12.0927 17.1034 12.2401 16.9749 12.2463 16.7072C12.2479 16.64 10.4222 1.68341 10.4141 1.61679ZM7.99357 11.7595C7.67386 11.8266 7.35002 11.6148 7.28409 11.277L6.89876 9.31055H5.19408L4.80875 11.277C4.744 11.6098 4.42955 11.8285 4.09928 11.7595C3.77311 11.6928 3.56112 11.369 3.62647 11.0355L4.83225 4.88316C4.88877 4.59596 5.13609 4.38867 5.42339 4.38867H6.66941C6.95672 4.38867 7.20403 4.59596 7.26055 4.88316L8.46636 11.0355C8.53172 11.369 8.31978 11.6928 7.99357 11.7595Z" fill="#373534"/>
<path d="M7.64502 18.5391L7.74848 19.3833C7.81746 19.9485 8.18556 20.525 8.79104 20.8129C9.93368 19.5293 9.24237 20.3058 10.8152 18.5391H7.64502Z" fill="#373534"/>
<path fill-rule="evenodd" clip-rule="evenodd" d="M11.8826 3.73242H19.37C20.3674 3.73242 21.1788 4.60139 21.1788 5.61915V19.1544C21.1788 20.1721 20.3674 21 19.37 21H10.353L12.997 17.9167C13.3313 17.5313 13.4714 17.039 13.4438 16.5161L11.8826 3.73242ZM17.1802 15.2518C17.3586 15.2518 17.557 15.243 17.7755 15.2253C17.9072 15.2145 18.0466 15.1965 18.1936 15.171C18.2904 15.1543 18.3903 15.1345 18.4938 15.1114C18.7543 15.0531 19.0333 14.9632 19.331 14.8417L19.2171 14.4382L19.0632 13.8925C18.9321 13.9267 18.7945 13.9556 18.6504 13.9793C18.5598 13.9942 18.4667 14.007 18.3711 14.0178C18.1229 14.0453 17.8824 14.0594 17.6491 14.0594C17.2273 14.0594 16.8749 14.0264 16.5921 13.9607C16.3092 13.8948 16.0982 13.7948 15.9594 13.6608C15.9004 13.6037 15.8539 13.5406 15.82 13.4713C15.774 13.3774 15.751 13.2721 15.751 13.1556C15.751 13.0515 15.7643 12.9521 15.7912 12.8574C15.8034 12.8141 15.8186 12.7717 15.8366 12.7302C15.8936 12.5984 15.9818 12.4768 16.1009 12.3657C16.22 12.2541 16.3737 12.1528 16.5622 12.0617C16.6015 12.0428 16.6425 12.0241 16.685 12.0058C16.8464 11.9362 17.0313 11.8713 17.2395 11.8112L17.304 11.7929C17.5521 11.7239 17.8356 11.6591 18.1549 11.5986L18.4004 10.4442C18.139 10.4665 17.8895 10.4988 17.6517 10.541C17.4369 10.5792 17.2317 10.6254 17.0361 10.6798C16.9633 10.6586 16.891 10.6336 16.819 10.6037C16.7714 10.584 16.7259 10.5631 16.6823 10.541C16.614 10.5065 16.5505 10.4692 16.4915 10.429C16.3948 10.3632 16.3178 10.2886 16.2608 10.205C16.2039 10.1214 16.1752 10.0341 16.1752 9.94309C16.1752 9.80641 16.2311 9.68246 16.3427 9.571C16.4543 9.45953 16.6468 9.40381 16.9196 9.40381C17.0536 9.40381 17.1861 9.4176 17.3177 9.44547C17.4494 9.47334 17.5846 9.51766 17.7235 9.57843L17.8444 9.31055L18.1999 8.52269C18.0213 8.42661 17.8215 8.35178 17.6007 8.2987C17.5121 8.27741 17.4225 8.2604 17.332 8.24764C17.1968 8.2286 17.0594 8.21907 16.9196 8.21907C16.7743 8.21907 16.6363 8.2282 16.5057 8.24643C16.2884 8.27676 16.0914 8.33226 15.9149 8.41282C15.6319 8.54206 15.4124 8.72943 15.2562 8.97492C15.1908 9.07774 15.1391 9.18962 15.1011 9.31055C15.0482 9.47868 15.0218 9.6643 15.0218 9.86745C15.0218 10.1408 15.09 10.3839 15.2265 10.5965C15.3631 10.8091 15.5342 10.9901 15.7401 11.1395C15.7675 11.1591 15.7947 11.1782 15.8221 11.1971C15.739 11.2488 15.6595 11.3027 15.5839 11.3595C15.4178 11.4837 15.2712 11.6182 15.1441 11.763C15.0149 11.9103 14.906 12.0682 14.8171 12.2366C14.6409 12.5707 14.5529 12.9432 14.5529 13.3532C14.5529 13.6671 14.62 13.9418 14.7539 14.1772C14.7764 14.2168 14.8004 14.2553 14.8258 14.2926C14.9515 14.4779 15.1124 14.6369 15.3085 14.7696C15.4679 14.8775 15.6467 14.9674 15.8448 15.0395C15.9395 15.0738 16.0385 15.1041 16.1419 15.1303C16.4619 15.2112 16.8081 15.2518 17.1802 15.2518Z" fill="#373534"/>
</g>
<defs>
<clipPath id="clip0_1876_9290">
<rect width="23" height="21" fill="white" transform="translate(0.600098)"/>
</clipPath>
</defs>
</svg>
