<svg width="390" height="183" viewBox="0 0 390 183" fill="none" xmlns="http://www.w3.org/2000/svg">
<path d="M292.662 150.442C292.047 151.595 291.205 152.688 290.867 153.919C289.987 157.132 288.895 161.619 288.131 164.865C287.942 165.649 288.003 165.737 288.613 166.251C288.901 166.494 289.178 166.819 289.305 167.161C289.482 167.631 289.194 167.984 288.69 167.995C287.981 168.012 287.272 167.984 286.563 167.962C286.197 167.951 286.07 167.669 286.081 167.388C286.098 166.985 286.12 166.543 286.286 166.184C287.051 164.539 287.206 161.388 287.649 159.66C287.887 158.738 288.092 157.805 288.291 156.872C288.369 156.519 288.38 156.155 288.43 155.801C288.519 155.205 288.585 154.598 288.718 154.008C289.178 151.971 289.66 149.945 290.136 147.908C290.158 147.814 290.158 147.72 290.169 147.632C284.957 147.279 279.788 146.865 275.523 143.415C275.296 144.993 275.091 146.605 274.825 148.201C274.476 150.259 274.055 152.302 273.717 154.366C273.634 154.88 273.689 155.443 273.794 155.962C274.265 158.247 274.913 161.277 275.412 163.557C275.589 164.368 275.933 165.058 276.686 165.528C276.985 165.715 277.24 166.052 277.401 166.378C277.611 166.797 277.373 167.134 276.897 167.134C276.271 167.134 275.645 167.106 275.019 167.068C274.149 167.007 273.783 166.571 274.071 165.754C274.282 165.163 274.177 164.661 273.999 164.137C273.279 161.984 272.409 159.086 271.689 156.939C271.479 156.304 271.307 155.658 271.108 154.99C270.354 155.454 269.296 155.498 268.742 156.403C268.615 156.607 268.482 156.828 268.432 157.06C267.978 159.014 267.546 160.974 267.097 162.928C266.953 163.568 267.031 164.065 267.662 164.44C267.961 164.622 268.188 164.981 268.343 165.312C268.543 165.726 268.271 166.135 267.812 166.14C267.003 166.151 266.194 166.129 265.385 166.091C265.02 166.074 264.853 165.776 264.892 165.472C264.937 165.108 265.097 164.76 265.225 164.407C265.358 164.026 265.574 163.667 265.64 163.275C266.094 160.72 266.538 158.158 266.936 155.592C267.114 154.455 267.656 153.56 268.62 152.986C270.21 152.042 270.554 150.144 270.138 148.637C269.462 146.18 268.687 143.751 268.277 141.234C268.271 141.19 268.233 141.152 268.116 141.124C268.177 141.963 268.21 142.808 268.305 143.641C268.521 145.562 268.465 147.455 267.745 149.277C267.202 150.646 266.344 151.761 264.953 152.545C264.997 152.423 265.003 152.368 265.036 152.329C266.742 150.265 267.103 147.902 266.72 145.319C266.449 143.503 266.299 141.665 266.161 139.832C266.089 138.872 266.31 137.934 266.765 137.067C267.274 136.095 268.061 135.488 269.136 135.201C269.529 135.096 269.933 134.887 270.232 134.616C271.761 133.247 273.523 132.491 275.589 132.557C276.592 132.59 277.478 132.331 278.298 131.79C278.946 131.365 279.572 130.907 280.22 130.482C283.356 128.417 286.796 128.511 289.809 130.758C290.524 131.288 291.189 131.884 291.865 132.458C292.568 133.048 293.327 133.473 294.241 133.705C295.87 134.114 297.255 135.002 298.501 136.117C298.855 136.432 299.243 136.714 299.609 137.012C300.451 137.702 301.298 138.375 302.124 139.082C303.536 140.29 305.198 140.627 306.982 140.395C308.987 140.136 310.35 138.988 310.982 137.094C311.319 136.073 311.48 134.991 311.641 133.921C311.702 133.501 311.558 133.054 311.497 132.618C311.353 131.668 311.408 130.78 312.222 130.106C312.3 130.046 312.378 129.974 312.422 129.891C312.837 129.085 313.513 128.903 314.344 129.096C314.809 129.201 315.302 129.234 315.735 129.416C317.036 129.968 318.405 130.123 319.795 130.189C320.271 130.211 320.748 130.272 321.219 130.371C322.615 130.664 323.091 132.071 322.133 133.109C321.939 133.319 321.579 133.407 321.28 133.468C320.997 133.529 320.698 133.479 320.271 133.479C320.676 135.345 320.997 137.188 321.474 138.993C322.432 142.62 323.917 146.009 326.304 148.951C327.262 150.133 328.359 151.176 329.611 152.053C329.739 152.142 329.877 152.225 330.071 152.34C329.993 151.518 329.899 150.773 329.855 150.022C329.833 149.564 329.877 149.106 329.921 148.648C330.01 147.626 330.049 146.622 329.728 145.623C329.617 145.286 329.6 144.861 329.705 144.524C329.888 143.928 329.921 143.365 329.667 142.797C329.445 142.3 329.567 141.913 330.043 141.682C330.603 141.406 331.19 141.201 331.75 140.925C332.076 140.765 332.542 140.578 332.63 140.307C332.863 139.562 332.918 138.761 333.051 137.983C333.079 137.834 333.085 137.624 333.184 137.547C333.904 137.006 334.68 136.565 335.627 136.725C336.032 136.791 336.43 136.956 336.813 137.128C336.918 137.172 336.979 137.398 336.99 137.542C337.007 137.834 336.984 138.127 336.968 138.419C336.951 138.69 336.918 138.96 336.89 139.225C336.885 139.319 336.851 139.429 336.89 139.501C337.284 140.257 336.502 140.682 336.375 141.29C336.364 141.345 336.098 141.4 335.982 141.361C335.727 141.279 335.533 141.273 335.428 141.56C335.323 141.836 334.979 142.029 335.3 142.421C335.843 143.078 336.054 143.873 336.009 144.729C335.965 145.65 335.877 146.567 335.871 147.488C335.865 148.902 335.871 150.315 335.949 151.728C336.104 154.394 335.766 157.021 335.267 159.621C334.89 161.603 334.375 163.562 333.866 165.517C333.694 166.184 333.849 166.753 334.497 167.046C334.619 167.101 334.741 167.145 334.868 167.184C335.245 167.294 335.633 167.393 336.004 167.52C336.126 167.564 336.22 167.68 336.331 167.763C336.22 167.84 336.115 167.978 336.004 167.978C335.5 167.984 334.99 167.978 334.486 167.929C333.799 167.868 333.118 167.741 332.425 167.691C331.666 167.631 331.439 167.288 331.733 166.582C331.905 166.162 332.049 165.726 332.187 165.362C330.431 164.639 328.73 163.938 326.991 163.22C326.808 163.535 326.731 163.949 326.974 164.374C327.213 164.788 327.479 165.185 327.717 165.599C327.772 165.693 327.755 165.831 327.772 165.953C327.65 165.953 327.49 166.002 327.412 165.953C327.085 165.71 326.753 165.461 326.47 165.169C325.922 164.6 325.412 163.999 324.875 163.424C324.448 162.972 324.476 162.569 325.002 162.315C326.83 161.432 327.933 159.875 328.88 158.175C329.251 157.518 329.589 156.845 329.96 156.188C330.331 155.536 330.265 154.824 330.287 154.123C330.309 153.373 330.071 152.865 329.384 152.401C326.36 150.353 324.365 147.45 322.864 144.188C321.363 140.92 320.482 137.47 319.989 133.921C319.967 133.76 319.939 133.606 319.911 133.446C319.485 133.374 319.158 133.413 318.848 133.733C318.399 134.202 317.756 134.362 317.158 134.296C316.194 134.185 315.507 134.704 314.765 135.118C314.671 135.168 314.627 135.356 314.616 135.488C314.438 137.227 314.139 138.938 313.474 140.572C312.267 143.542 310.178 145.374 306.893 145.75C304.412 146.037 301.93 146.23 299.437 145.982C299.221 145.959 299.005 145.959 298.8 145.899C298.024 145.667 297.315 145.728 296.75 146.368C296.579 146.561 296.374 146.793 296.34 147.025C296.097 148.753 295.859 150.48 295.698 152.214C295.631 152.953 295.753 153.709 295.781 154.46C295.792 154.753 295.864 155.067 295.792 155.343C295.487 156.574 295.726 157.8 295.759 159.025C295.809 160.753 296.152 163.59 296.213 165.318C296.23 165.732 296.368 166.035 296.662 166.311C296.889 166.521 297.122 166.753 297.26 167.023C297.543 167.57 297.238 168.006 296.629 167.995C296.086 167.984 295.537 167.967 294.994 167.929C294.535 167.901 294.352 167.664 294.413 167.211C294.424 167.112 294.429 167.001 294.485 166.924C295.133 166.035 294.861 165.064 294.734 164.114C294.368 161.443 293.748 157.662 293.388 154.99C293.211 153.687 293.094 152.379 292.945 151.071C292.923 150.867 292.873 150.668 292.839 150.464L292.718 150.425L292.662 150.442Z" fill="#373534"/>
<path d="M380.65 140.329C380.046 140.144 379.889 139.766 379.88 139.167C379.844 136.196 379.837 133.225 379.775 130.252C379.707 127.061 379.875 123.864 379.883 120.67C379.89 118.572 379.598 116.453 379.816 114.383C379.986 112.775 379.396 111.988 378.081 111.462C377.576 111.259 377.642 110.855 377.642 110.45C377.645 106.987 377.708 103.52 377.618 100.059C377.576 98.4527 377.547 96.845 377.588 95.2442C377.692 91.3479 377.635 87.4533 377.607 83.5571C377.604 83.0702 377.549 82.5921 377.659 82.1105C377.965 80.7747 377.556 79.666 376.58 78.7443C376.324 78.5018 376.111 78.2592 376.091 77.8694C375.99 76.0469 375.997 74.2261 376.077 72.4018C376.111 71.5789 376.122 70.7317 375.961 69.9313C375.845 69.3458 375.821 68.8226 375.944 68.2457C376.272 66.6916 375.895 65.155 375.771 63.6131C375.733 63.1453 375.252 62.8647 375.248 62.3553C375.233 60.5397 375.158 58.7189 375.176 56.9085C375.196 54.6892 375.191 52.4665 375.214 50.2455C375.221 49.478 375.027 48.7313 374.404 48.2202C374.043 47.9223 373.994 47.6104 373.996 47.1739C374.015 40.5628 374.01 33.9518 374.013 27.3407C374.013 26.8938 373.967 26.4433 373.574 26.1731C373.178 25.9011 373.137 25.5286 373.133 25.1163C373.092 20.3867 373.192 15.664 372.844 10.931C372.616 7.81081 372.479 4.65255 372.628 1.50469C372.633 1.3609 372.63 1.21537 372.607 1.07331C372.578 0.877542 372.557 0.633266 372.277 0.669648C372.066 0.695635 372.045 0.905261 372.042 1.07851C372.028 1.53934 372.049 2.0019 372.026 2.46274C371.903 4.91935 372.258 7.36211 372.197 9.81526C372.189 10.1514 372.296 10.5464 371.954 10.7768C371.36 11.1752 371.348 11.7573 371.328 12.3828C371.258 14.453 371.609 16.5528 371.092 18.5936C370.439 21.1767 370.586 23.8031 370.544 26.4191C370.528 27.3615 370.786 28.3092 370.523 29.2534C370.392 29.7211 370.108 30.1352 370.122 30.6549C370.236 34.7539 369.828 38.846 369.966 42.9449C369.982 43.4369 369.875 43.8354 369.546 44.2096C369.147 44.667 368.752 45.159 368.747 45.8035C368.735 47.6659 368.751 49.5283 368.759 51.3906C368.759 51.5032 368.79 51.6211 368.832 51.7267C368.896 51.8896 368.994 52.0715 369.188 52.0524C369.411 52.0299 369.423 51.8237 369.39 51.6488C369.316 51.2659 369.432 50.9939 369.752 50.7548C369.985 50.5798 370.381 50.3841 370.183 50.0151C369.984 49.6461 369.702 50.2438 369.432 50.0549C369.361 49.7881 369.581 49.7119 369.721 49.5785C369.942 49.3689 370.342 49.1922 370.207 48.8405C370.032 48.3883 369.679 49.0709 369.378 48.7746C369.508 48.4039 369.923 48.2878 370.125 47.9864C370.209 47.8616 370.288 47.7334 370.202 47.5914C370.105 47.432 369.963 47.4822 369.823 47.5394C369.69 47.5931 369.556 47.8235 369.401 47.5446C369.524 47.16 369.959 47.0647 370.148 46.7425C370.222 46.6143 370.304 46.4687 370.174 46.3527C370.108 46.2955 369.947 46.2747 369.868 46.3146C369.129 46.6749 369.311 46.0824 369.361 45.7827C369.505 44.9355 370.124 44.3829 370.705 43.825C370.881 43.6552 371.085 43.3919 371.366 43.534C371.606 43.657 371.504 43.9515 371.506 44.1715C371.516 47.5498 371.521 50.9263 371.523 54.3046C371.523 54.561 371.596 54.8902 371.366 55.0392C370.632 55.5104 370.131 56.2207 369.415 56.7751C369.653 55.4342 368.657 53.901 370.131 52.8164C370.243 52.7333 370.297 52.5583 370.186 52.4284C370.039 52.2551 369.875 52.3539 369.726 52.4457C369.102 52.8268 368.716 53.2963 368.726 54.1158C368.766 57.1181 368.73 60.1222 368.752 63.1245C368.756 63.7188 368.617 64.0462 367.991 64.2558C366.571 64.7322 365.957 65.6227 365.964 66.9221C365.982 69.8257 366.033 72.7292 366.011 75.6363C365.95 83.7719 365.971 91.9092 365.99 100.045C365.992 100.833 365.9 101.361 364.991 101.521C364.496 101.607 364.046 101.937 363.576 102.151C363.162 102.34 362.996 102.628 363.015 103.108C363.098 105.208 363.111 107.307 363.093 109.41C363.038 116.281 363.033 123.152 363.057 130.023C363.057 130.865 362.884 131.364 362.026 131.6C361.436 131.761 360.833 132.097 360.981 132.866C361.224 134.11 360.98 135.338 360.978 136.574C360.968 142.661 360.964 148.747 360.959 154.835C360.959 155.837 360.494 156.448 359.565 156.67C359.425 156.705 359.288 156.753 359.148 156.786C358.325 156.971 357.974 157.434 358.002 158.326C358.06 160.289 358.033 162.252 358.015 164.217C358.01 164.819 358.245 165.076 358.842 164.981C359.098 164.939 359.383 164.944 359.6 164.826C359.975 164.62 360.824 164.781 360.681 164.295C360.515 163.73 359.857 164.21 359.411 164.308C359.164 164.364 358.847 164.705 358.678 164.282C358.534 163.924 358.567 163.527 359.057 163.376C359.468 163.25 359.885 163.13 360.291 162.988C360.485 162.921 360.836 162.935 360.734 162.602C360.651 162.328 360.357 162.397 360.132 162.448C359.882 162.505 359.636 162.6 359.383 162.649C359.133 162.697 358.802 162.987 358.664 162.536C358.55 162.16 358.787 161.952 359.138 161.843C359.605 161.699 360.067 161.538 360.53 161.379C360.672 161.329 360.8 161.233 360.765 161.067C360.731 160.899 360.568 160.864 360.423 160.876C360.222 160.892 360.025 160.958 359.826 160.965C359.432 160.979 358.875 161.561 358.719 161.105C358.534 160.554 359.332 160.599 359.691 160.371C359.715 160.357 359.748 160.355 359.773 160.341C360.093 160.15 360.793 160.164 360.623 159.707C360.456 159.258 359.933 159.745 359.562 159.781C359.264 159.811 358.894 160.293 358.683 159.785C358.47 159.276 358.927 159.095 359.319 158.95C359.454 158.9 359.601 158.868 359.722 158.794C360.058 158.593 360.796 158.642 360.608 158.115C360.47 157.725 359.907 158.188 359.529 158.234C359.238 158.271 358.863 158.745 358.667 158.189C358.491 157.692 358.871 157.477 359.297 157.344C360.146 157.081 361.007 157.157 361.869 157.242C362.576 157.311 362.908 157.632 362.881 158.425C362.82 160.154 362.856 161.888 362.868 163.621C362.87 163.884 362.763 164.319 363.157 164.315C363.533 164.314 363.456 163.886 363.458 163.614C363.467 161.822 363.443 160.033 363.472 158.243C363.486 157.382 363.176 156.855 362.287 156.751C361.711 156.684 361.542 156.341 361.552 155.792C361.566 155.014 361.545 154.232 361.476 153.458C361.436 153.002 361.677 152.85 362.014 152.699C362.868 152.32 363.737 152.394 364.641 152.467C365.44 152.531 365.649 152.834 365.643 153.59C365.611 156.824 365.627 160.057 365.636 163.291C365.636 163.524 365.53 163.903 365.905 163.91C366.257 163.917 366.22 163.551 366.222 163.304C366.232 162.063 366.231 160.823 366.231 159.582C366.232 157.562 366.225 155.54 366.239 153.52C366.241 153.266 366.097 152.909 366.523 152.81C367.294 152.633 368.048 153.231 368.048 154.028C368.052 156.828 368.05 159.629 368.052 162.429C368.052 162.689 368.057 162.948 368.079 163.208C368.092 163.354 368.152 163.503 368.329 163.505C368.493 163.506 368.588 163.378 368.605 163.227C368.636 162.971 368.65 162.711 368.65 162.453C368.654 159.768 368.65 157.082 368.654 154.397C368.655 153.366 368.847 153.259 369.831 153.569C370.336 153.728 370.295 154.09 370.297 154.461C370.3 157.001 370.298 159.542 370.3 162.082C370.3 162.313 370.304 162.545 370.321 162.773C370.331 162.917 370.362 163.075 370.542 163.097C370.762 163.127 370.852 162.973 370.871 162.789C370.895 162.531 370.899 162.271 370.899 162.011C370.902 159.529 370.897 157.044 370.907 154.562C370.909 154.248 370.784 153.768 371.329 153.792C371.796 153.815 371.675 154.255 371.677 154.544C371.686 156.94 371.682 159.338 371.684 161.734C371.684 161.994 371.691 162.254 371.711 162.512C371.725 162.663 371.805 162.805 371.974 162.798C372.133 162.792 372.229 162.657 372.244 162.508C372.272 162.25 372.282 161.99 372.282 161.73C372.286 159.478 372.284 157.226 372.284 154.976C372.284 153.633 372.298 153.669 373.524 153.238C374.297 152.966 374.47 153.209 374.461 153.957C374.43 156.324 374.435 158.692 374.465 161.058C374.47 161.431 374.195 162.131 374.745 162.125C375.247 162.122 375.037 161.413 375.041 161.018C375.063 158.536 375.058 156.053 375.049 153.569C375.048 153.068 375.183 152.711 375.75 152.691C376.433 152.666 376.163 153.202 376.167 153.498C376.189 155.894 376.179 158.29 376.181 160.686C376.181 160.916 376.182 161.148 376.198 161.379C376.208 161.555 376.248 161.756 376.469 161.744C376.667 161.732 376.744 161.552 376.758 161.368C376.774 161.138 376.779 160.908 376.781 160.675C376.782 158.252 376.8 155.826 376.77 153.401C376.762 152.67 377 152.313 377.754 152.348C378.128 152.365 378.503 152.325 378.879 152.32C379.553 152.313 380.193 152.455 380.793 152.769C381.205 152.982 381.298 153.366 381.143 153.725C380.958 154.149 380.658 153.761 380.414 153.711C380.247 153.675 380.089 153.588 379.923 153.548C379.7 153.494 379.425 153.418 379.347 153.727C379.278 153.992 379.543 154.025 379.724 154.101C380.122 154.269 380.52 154.437 380.907 154.629C381.182 154.764 381.252 155.035 381.149 155.296C381.013 155.646 380.767 155.4 380.572 155.341C380.35 155.275 380.143 155.168 379.922 155.107C379.7 155.048 379.425 154.977 379.346 155.286C379.28 155.551 379.543 155.584 379.724 155.66C380.122 155.83 380.525 155.989 380.906 156.19C381.252 156.374 381.267 156.736 381.143 157.027C380.98 157.408 380.705 157.093 380.485 157.036C380.262 156.978 380.053 156.873 379.83 156.819C379.631 156.772 379.397 156.76 379.34 157.025C379.295 157.24 379.487 157.302 379.65 157.372C380.074 157.552 380.501 157.722 380.914 157.924C381.188 158.059 381.255 158.338 381.148 158.595C381.002 158.938 380.764 158.678 380.567 158.624C380.373 158.57 380.184 158.493 379.989 158.449C379.816 158.409 379.619 158.42 379.555 158.621C379.481 158.846 379.686 158.893 379.837 158.972C380.373 159.258 381.077 159.303 381.267 160.078C381.336 160.362 381.61 160.275 381.701 160.053C381.784 159.849 381.793 159.603 381.793 159.376C381.796 153.602 381.791 147.828 381.8 142.053C381.8 141.206 381.482 140.584 380.65 140.329ZM380.762 141.062C381.041 141.22 381.314 141.518 381.115 141.844C380.935 142.142 380.658 141.825 380.428 141.766C380.29 141.729 380.158 141.663 380.02 141.625C379.776 141.56 379.463 141.417 379.356 141.759C379.256 142.074 379.595 142.078 379.792 142.166C380.186 142.343 380.587 142.505 380.963 142.719C381.227 142.868 381.258 143.164 381.122 143.403C380.983 143.647 380.767 143.446 380.586 143.396C380.558 143.389 380.534 143.37 380.506 143.365C380.119 143.294 379.581 142.791 379.392 143.332C379.231 143.796 379.98 143.685 380.281 143.907C380.463 144.042 380.693 144.111 380.894 144.226C381.238 144.418 381.26 144.761 381.148 145.059C380.996 145.459 380.721 145.128 380.499 145.092C380.472 145.087 380.447 145.061 380.42 145.057C380.06 145.007 379.574 144.532 379.378 145.069C379.228 145.484 379.868 145.399 380.127 145.579C380.29 145.691 380.487 145.757 380.674 145.837C381.027 145.986 381.316 146.232 381.141 146.625C380.945 147.064 380.662 146.637 380.418 146.601C380.276 146.578 380.141 146.521 379.999 146.495C379.823 146.462 379.631 146.464 379.56 146.662C379.479 146.889 379.678 146.944 379.835 147.017C380.174 147.174 380.515 147.329 380.849 147.497C381.284 147.715 381.286 148.15 381.146 148.474C380.959 148.903 380.672 148.472 380.43 148.422C380.235 148.384 380.05 148.292 379.854 148.254C379.714 148.228 379.55 148.25 379.506 148.427C379.467 148.593 379.589 148.68 379.719 148.756C380.193 149.035 380.788 149.12 381.129 149.662C379.875 149.193 378.607 149.111 377.315 149.333C376.938 149.397 376.795 149.234 376.796 148.86C376.8 146.378 376.784 143.893 376.796 141.411C376.8 140.602 377.384 140.293 378.061 140.269C379.031 140.234 379.927 140.589 380.762 141.062ZM378.526 124.789C377.654 124.426 376.743 124.167 375.776 124.223C375.489 124.24 375.088 124.427 375.07 123.902C375.055 123.468 374.883 122.955 375.468 122.712C375.935 122.52 376.424 122.511 376.902 122.622C377.431 122.745 377.939 122.944 378.465 123.078C379.084 123.234 379.432 123.556 379.278 124.219C379.378 124.902 379.162 125.056 378.526 124.789ZM378.401 118.083C378.687 118.364 379.186 118.447 379.263 118.948C378.863 119.147 378.483 118.398 378.253 118.889C378.055 119.311 378.661 119.415 378.915 119.653C379.126 119.85 379.385 120.011 379.214 120.353C378.856 120.522 378.491 119.772 378.244 120.294C378.069 120.666 378.614 120.793 378.863 121.001C379.084 121.188 379.335 121.342 379.249 121.706C378.894 121.823 378.534 121.143 378.273 121.619C378.042 122.045 378.834 122.04 378.825 122.523C377.709 122.253 376.637 121.771 375.454 122.054C375.11 122.135 375.058 121.796 375.058 121.522C375.056 119.039 375.06 116.557 375.056 114.074C375.056 113.655 375.312 113.464 375.655 113.322C376.883 112.813 378.747 113.658 379.221 114.972C379.14 114.982 379.062 115.011 378.998 114.994C378.745 114.921 378.469 114.53 378.253 114.882C378.045 115.214 378.481 115.332 378.68 115.509C378.789 115.602 378.917 115.673 379.029 115.763C379.167 115.878 379.289 116.018 379.178 116.207C379.088 116.359 378.943 116.319 378.801 116.261C378.598 116.177 378.344 115.982 378.221 116.313C378.119 116.585 378.415 116.692 378.585 116.831C378.697 116.921 378.825 116.992 378.939 117.078C379.128 117.22 379.356 117.404 379.244 117.641C379.078 117.996 378.873 117.653 378.694 117.593C378.522 117.536 378.346 117.459 378.234 117.647C378.125 117.832 378.275 117.958 378.401 118.083ZM378.944 112.688C379.188 112.907 379.356 113.17 379.221 113.627C378.045 112.851 376.871 112.307 375.463 112.751C375.041 112.884 375.015 112.596 375.143 112.316C375.364 111.836 375.779 111.47 376.288 111.545C377.258 111.687 378.189 112.011 378.944 112.688ZM374.422 91.0361C374.091 90.9321 374.193 90.5406 374.192 90.2651C374.183 88.5049 374.186 86.7465 374.186 84.9863C374.186 84.7854 374.204 84.5809 374.183 84.3817C374.147 84.0577 374.307 83.5138 373.892 83.5016C373.422 83.486 373.597 84.0352 373.595 84.3419C373.576 86.303 373.588 88.2641 373.581 90.2253C373.579 90.5007 373.681 90.8368 373.393 91.0257C373.13 91.1972 372.799 91.3514 372.498 91.263C372.128 91.1539 372.293 90.7693 372.293 90.5094C372.279 88.058 372.357 85.6031 372.258 83.1551C372.201 81.7085 373.685 80.9705 374.752 81.4972C375.662 81.9442 376.483 82.502 376.99 83.4341C376.898 83.4843 376.85 83.5345 376.812 83.5293C376.528 83.4826 376.293 82.9161 376.028 83.2885C375.778 83.6402 376.281 83.8447 376.501 84.0803C376.642 84.2327 376.912 84.2726 376.947 84.5376C376.558 84.6797 376.288 83.8516 376.004 84.3783C375.817 84.7265 376.35 84.9655 376.618 85.2081C376.737 85.3155 376.952 85.3432 376.933 85.584C376.566 85.7313 376.272 84.9032 376.015 85.3935C375.804 85.7937 376.378 86.0258 376.67 86.2805C376.817 86.4087 377.035 86.4814 376.987 86.7448C376.942 86.7725 376.897 86.8245 376.853 86.8245C376.542 86.8193 376.288 86.1661 376.004 86.6166C375.805 86.9319 376.295 87.171 376.537 87.4014C376.712 87.5677 377.03 87.6214 376.988 87.9662C376.936 87.9921 376.888 88.0406 376.843 88.0372C376.545 88.0112 376.295 87.4343 376.051 87.7721C375.762 88.1706 376.307 88.3698 376.547 88.6176C376.665 88.7388 376.824 88.8237 376.94 88.9485C377.04 89.0611 377.066 89.2291 376.974 89.3487C376.85 89.5132 376.722 89.3746 376.606 89.3001C376.424 89.1806 376.224 88.9051 376.023 89.1581C375.805 89.437 376.149 89.5981 376.29 89.7956C376.492 90.0797 377 90.0988 376.987 90.6237C376.561 90.6878 376.309 89.9897 376.035 90.3899C375.779 90.7658 376.283 91.043 376.573 91.2214C377.222 91.6216 377.023 92.202 377.007 93.0665C376.265 91.9889 375.454 91.36 374.422 91.0361ZM376.942 94.9427C376.084 94.2342 375.529 93.3281 374.418 93.07C374 92.9729 374.114 92.2904 374.285 91.9231C374.454 91.5575 374.792 91.8364 375.027 91.9525C376.148 92.5034 377.095 93.9414 376.942 94.9427ZM373.626 92.1015V93.2311C373.626 93.4494 373.451 93.6278 373.233 93.633C373.073 93.6382 372.92 93.6642 372.789 93.6971C372.536 93.7612 372.289 93.581 372.28 93.3212L372.256 92.6334V92.2211C372.256 92.0305 372.389 91.8659 372.576 91.8261L373.14 91.7065C373.391 91.6528 373.626 91.8451 373.626 92.1015ZM376.98 80.3174C377.255 80.9324 377.289 81.5873 376.947 82.2577C376.52 81.9442 376.115 81.6306 375.696 81.3395C374.781 80.7037 373.813 80.4889 372.784 81.0589C372.426 81.2564 372.249 81.2183 372.263 80.7782C372.277 80.2897 372.256 79.7942 372.324 79.3126C372.419 78.6438 373.316 77.9491 373.982 78.0912C375.304 78.3718 376.404 79.0267 376.98 80.3174ZM374.662 65.8583C374.664 66.2256 374.631 66.5946 374.603 67.2252C373.832 66.2863 373.154 65.6262 372.396 65.051C372.139 64.8553 372.101 64.5815 372.102 64.2801C372.114 61.5653 372.135 58.8523 372.118 56.1376C372.114 55.377 372.405 55.3389 372.919 55.7114C373.922 56.439 374.714 57.2325 374.662 58.6704C374.576 61.0629 374.659 63.4606 374.662 65.8583ZM374.596 49.9336C374.638 52.0247 374.61 54.1175 374.61 56.4563C373.889 55.6888 373.304 55.1397 372.533 54.8521C372.12 54.6979 372.128 54.3445 372.128 53.9928C372.13 52.3833 372.121 50.7721 372.132 49.1627C372.137 48.4281 372.505 48.1406 373.227 48.2636C373.953 48.3883 374.579 49.0622 374.596 49.9336ZM371.037 42.8999C370.567 43.0038 370.554 42.7752 370.556 42.4546C370.57 40.4641 370.518 38.4683 370.622 36.4812C370.686 35.2702 370.705 34.0592 370.739 32.8499C370.774 31.5887 370.613 30.3223 371.156 29.1009C371.331 28.7094 371.302 28.181 371.234 27.734C370.873 25.3657 371.336 23.0061 371.336 20.6414V38.1374C371.336 38.3695 371.321 38.6017 371.343 38.8304C371.369 39.0937 371.244 39.5285 371.649 39.5077C372.012 39.4887 371.931 39.0608 371.933 38.7888C371.94 34.4871 371.938 30.1854 371.938 25.8837C371.938 23.9209 372.019 21.9528 371.917 19.9951C371.781 17.3826 372.075 14.7753 371.943 12.1662C371.935 11.9756 371.983 11.7833 372.004 11.591C372.765 14.8619 372.53 18.1553 372.543 21.4365C372.555 24.6121 372.547 27.7877 372.547 30.9633C372.547 31.0794 372.538 31.1972 372.554 31.3098C372.585 31.5471 372.491 31.9144 372.875 31.8884C373.159 31.8711 373.138 31.5489 373.142 31.3236C373.154 30.0832 373.154 28.841 373.164 27.6006C373.166 27.3459 373.09 27.0843 373.263 26.776C373.488 27.0497 373.408 27.3425 373.408 27.6023C373.413 33.9241 373.412 40.2475 373.412 46.5692C373.41 46.7719 373.413 46.9746 373.387 47.1739C373.318 47.7092 372.86 47.6399 372.516 47.6832C372.042 47.7438 372.139 47.3471 372.133 47.0855C372.116 45.9889 372.127 44.8922 372.106 43.7956C372.089 42.8739 371.909 42.7059 371.037 42.8999ZM372.372 65.7994C373.834 67.0225 374.934 68.4986 375.432 70.387C374.681 69.5883 374.09 68.6649 373.28 67.9234C372.735 67.4227 372.158 67.0087 371.379 67.0295C371.028 67.0381 370.797 66.9377 370.874 66.5444C370.971 66.0472 370.637 65.3178 371.084 65.0995C371.516 64.8882 371.985 65.4737 372.372 65.7994ZM368.756 90.1872C368.757 90.9512 368.707 91.5281 367.801 91.7169C367.431 91.7931 367.111 92.1085 366.711 92.3493C366.5 91.9802 366.582 91.6563 366.582 91.3496C366.58 86.1575 366.592 80.9653 366.59 75.7714C366.589 75.1252 366.59 74.5033 367.12 74.0165C367.287 73.8623 367.45 73.5522 367.102 73.4794C366.502 73.3547 366.611 72.9354 366.606 72.5491C366.596 71.3658 366.592 70.1825 366.59 69.001C366.59 68.2145 367.467 67.253 368.251 67.1611C368.529 67.1282 368.706 67.22 368.725 67.5128C368.742 67.771 368.742 68.0308 368.742 68.2907C368.742 75.5895 368.733 82.8883 368.756 90.1872ZM368.373 93.5932C367.887 93.7595 367.408 93.9171 366.95 94.1614C366.506 94.3953 366.627 93.957 366.58 93.7716C366.571 93.2484 367.943 92.0547 368.437 92.1206C368.709 92.157 368.742 92.3579 368.731 92.5606C368.712 92.9383 368.896 93.4147 368.373 93.5932ZM366.582 66.3885C366.68 65.7215 367.666 64.7842 368.309 64.7634C368.979 64.7409 368.635 65.2884 368.693 65.4218C368.844 66.1667 368.626 66.5063 368.021 66.6171C367.775 66.6622 367.555 66.8372 367.317 66.9325C367.097 67.0208 366.912 67.376 366.651 67.1334C366.455 66.9532 366.545 66.6397 366.582 66.3885ZM366.18 109.783C366.035 109.464 365.667 109.707 365.409 109.8C365.03 109.939 364.664 110.112 364.283 110.242C364.091 110.308 363.837 110.537 363.699 110.199C363.597 109.954 363.74 109.745 363.974 109.636C364.544 109.364 365.125 109.109 365.698 108.842C365.895 108.75 366.22 108.711 366.123 108.407C366.03 108.113 365.726 108.224 365.525 108.291C365.117 108.43 364.729 108.631 364.325 108.776C364.122 108.851 363.861 109.19 363.695 108.782C363.579 108.499 363.69 108.206 364.005 108.061C364.579 107.796 365.158 107.541 365.731 107.271C365.926 107.181 366.243 107.131 366.115 106.817C366.021 106.587 365.755 106.656 365.575 106.722C364.984 106.938 364.404 107.183 363.711 107.461C363.839 106.403 364.722 106.41 365.288 106.041C365.577 105.854 366.248 105.895 366.092 105.48C365.912 105 365.394 105.424 365.037 105.519C364.762 105.592 364.511 105.75 364.249 105.868C364.057 105.954 363.849 106.032 363.733 105.776C363.621 105.53 363.797 105.386 363.982 105.299C364.581 105.015 365.189 104.755 365.79 104.476C365.964 104.397 366.222 104.331 366.125 104.066C366.033 103.816 365.774 103.88 365.599 103.943C364.984 104.166 364.38 104.419 363.792 104.653C363.648 104.511 363.686 104.39 363.782 104.326C364.754 103.676 365.809 103.231 366.979 103.127C367.685 103.064 368.05 103.409 368.05 104.146C368.045 110.008 368.047 115.869 368.05 121.73C368.052 122.147 368.005 122.511 367.453 122.435C366.231 122.269 365.115 122.584 364.05 123.154C363.951 123.208 363.84 123.267 363.723 123.135C363.685 122.679 364.107 122.709 364.358 122.6C364.965 122.336 365.592 122.118 366.212 121.882C366.412 121.804 366.739 121.801 366.623 121.472C366.525 121.195 366.234 121.26 366.02 121.335C365.504 121.513 365.003 121.739 364.482 121.905C364.24 121.983 363.916 122.291 363.726 121.91C363.531 121.519 363.891 121.345 364.183 121.217C364.788 120.952 365.406 120.711 366.018 120.458C366.222 120.372 366.551 120.32 366.474 120.041C366.379 119.693 366.032 119.831 365.81 119.904C365.319 120.065 364.85 120.295 364.361 120.467C364.152 120.54 363.88 120.85 363.704 120.474C363.571 120.19 363.681 119.897 363.998 119.757C364.629 119.476 365.267 119.207 365.9 118.932C366.144 118.825 366.592 118.821 366.449 118.438C366.326 118.114 365.933 118.293 365.679 118.383C365.189 118.554 364.721 118.78 364.236 118.967C364.067 119.032 363.846 119.221 363.714 118.953C363.591 118.707 363.728 118.494 363.967 118.39C364.652 118.087 365.343 117.804 366.03 117.508C366.232 117.421 366.551 117.378 366.473 117.082C366.393 116.777 366.077 116.876 365.881 116.941C365.336 117.125 364.811 117.364 364.271 117.565C364.1 117.629 363.865 117.842 363.738 117.601C363.59 117.323 363.88 117.2 364.084 117.111C364.745 116.825 365.414 116.562 366.077 116.28C366.272 116.195 366.587 116.141 366.459 115.826C366.366 115.595 366.096 115.659 365.918 115.722C365.374 115.909 364.847 116.141 364.306 116.337C364.114 116.408 363.858 116.65 363.711 116.339C363.576 116.056 363.667 115.774 364 115.628C364.607 115.365 365.219 115.11 365.814 114.817C366.052 114.7 366.454 114.537 366.286 114.216C366.092 113.846 365.793 114.199 365.553 114.301C365.129 114.483 364.717 114.691 364.292 114.868C364.091 114.951 363.835 115.103 363.705 114.781C363.595 114.506 363.699 114.258 363.968 114.126C364.46 113.887 364.966 113.676 365.459 113.438C365.691 113.326 365.914 113.189 366.129 113.045C366.274 112.946 366.414 112.799 366.288 112.615C366.168 112.439 365.983 112.508 365.821 112.584C365.3 112.83 364.785 113.088 364.257 113.319C364.077 113.399 363.83 113.641 363.688 113.302C363.586 113.056 363.752 112.855 363.982 112.747C364.581 112.463 365.188 112.196 365.784 111.909C365.995 111.806 366.405 111.794 366.286 111.451C366.148 111.058 365.791 111.295 365.544 111.384C365.165 111.519 364.811 111.723 364.432 111.857C364.198 111.938 363.897 112.328 363.709 111.921C363.558 111.592 363.598 111.164 364.055 110.977C364.589 110.758 365.127 110.552 365.655 110.318C365.899 110.211 366.341 110.136 366.18 109.783ZM363.882 123.96C364.864 123.28 365.961 122.882 367.182 122.963C367.83 123.005 368.218 123.282 368.031 124.001C368.142 124.698 368.031 125.044 367.204 124.706C366.244 124.311 365.368 124.857 364.472 125.115C364.226 125.186 363.88 125.526 363.733 125.155C363.588 124.789 363.472 124.244 363.882 123.96ZM363.863 143.559C363.794 143.311 363.539 143.349 363.346 143.396C362.984 143.483 362.631 143.614 362.268 143.697C362.047 143.748 361.746 144.006 361.606 143.628C361.483 143.295 361.608 142.999 361.979 142.871C362.469 142.701 362.96 142.537 363.45 142.365C363.629 142.301 363.923 142.291 363.872 142.031C363.809 141.728 363.51 141.792 363.294 141.845C362.875 141.949 362.469 142.091 362.054 142.207C361.895 142.251 361.694 142.337 361.613 142.107C361.533 141.889 361.616 141.714 361.846 141.627C362.412 141.412 362.976 141.196 363.539 140.979C363.704 140.917 363.916 140.848 363.882 140.65C363.837 140.392 363.59 140.394 363.392 140.453C362.981 140.574 362.576 140.725 362.17 140.867C361.945 140.946 361.701 141.054 361.608 140.723C361.533 140.465 361.54 140.196 361.853 140.07C362.253 139.905 362.661 139.761 363.053 139.581C363.297 139.47 363.752 139.404 363.616 139.067C363.45 138.658 363.074 138.976 362.794 139.058C362.63 139.106 362.479 139.2 362.315 139.252C362.087 139.325 361.793 139.571 361.644 139.219C361.507 138.9 361.502 138.512 361.926 138.342C362.379 138.16 362.848 138.015 363.308 137.849C363.484 137.785 363.769 137.779 363.69 137.495C363.621 137.247 363.367 137.291 363.173 137.331C362.863 137.396 362.559 137.485 362.254 137.566C362.016 137.632 361.729 137.819 361.616 137.429C361.525 137.118 361.646 136.868 361.983 136.754C362.446 136.598 362.906 136.43 363.37 136.272C363.534 136.217 363.742 136.175 363.7 135.955C363.661 135.747 363.451 135.721 363.28 135.758C362.887 135.844 362.5 135.953 362.113 136.061C361.941 136.108 361.756 136.168 361.656 135.974C361.537 135.739 361.689 135.584 361.893 135.503C362.346 135.319 362.81 135.165 363.261 134.976C363.453 134.897 363.795 134.871 363.692 134.557C363.598 134.273 363.294 134.392 363.083 134.432C362.83 134.479 362.59 134.588 362.339 134.656C362.14 134.709 361.889 134.943 361.756 134.604C361.654 134.344 361.732 134.077 362.009 133.942C362.396 133.751 362.797 133.592 363.187 133.405C363.342 133.33 363.515 133.213 363.437 133.01C363.358 132.809 363.15 132.844 362.988 132.894C362.742 132.97 362.509 133.093 362.261 133.166C362.059 133.226 361.798 133.443 361.646 133.161C361.507 132.902 361.54 132.61 361.794 132.374C362.448 131.768 364.404 131.575 365.174 132.038C365.624 132.308 365.63 132.729 365.63 133.171C365.627 135.74 365.629 138.309 365.629 140.877C365.629 143.444 365.606 146.015 365.643 148.583C365.653 149.319 365.392 149.6 364.688 149.47C363.849 149.314 363.028 149.446 362.206 149.595C361.981 149.635 361.704 149.721 361.63 149.411C361.557 149.108 361.841 149.033 362.059 148.973C362.614 148.82 363.175 148.692 363.731 148.547C363.903 148.503 364.093 148.413 364.057 148.212C364.012 147.952 363.783 147.957 363.574 148.004C363.124 148.105 362.678 148.217 362.228 148.314C362.019 148.361 361.744 148.541 361.637 148.217C361.525 147.88 361.82 147.779 362.068 147.691C362.502 147.538 362.943 147.401 363.373 147.239C363.569 147.164 363.934 147.181 363.865 146.876C363.785 146.532 363.437 146.662 363.2 146.71C362.893 146.774 362.6 146.911 362.292 146.979C362.052 147.029 361.718 147.337 361.59 146.863C361.493 146.507 361.675 146.256 362.035 146.138C362.528 145.977 363.017 145.808 363.507 145.636C363.686 145.574 363.956 145.558 363.854 145.265C363.787 145.075 363.574 145.08 363.405 145.12C363.041 145.206 362.687 145.328 362.324 145.409C362.076 145.463 361.742 145.769 361.601 145.329C361.483 144.959 361.542 144.574 362.009 144.416C362.502 144.252 362.991 144.085 363.481 143.912C363.657 143.85 363.941 143.845 363.863 143.559ZM365.617 151.315C365.682 151.83 365.352 151.958 364.913 151.909C363.942 151.802 362.996 151.748 362.019 152.041C361.277 152.261 361.715 151.518 361.601 151.357C361.442 150.544 361.793 150.23 362.436 150.128C363.318 149.99 364.191 149.922 365.084 150.087C365.923 150.241 365.56 150.866 365.617 151.315ZM367.592 152.401C366.642 152.434 366.21 152.077 366.244 151.204C366.257 150.906 365.983 150.385 366.658 150.388C367.628 150.393 368.05 150.75 368.05 151.615C367.986 151.901 368.214 152.38 367.592 152.401ZM367.571 149.971C366.718 150 366.241 149.614 366.236 148.898C366.224 146.994 366.231 145.092 366.231 143.188C366.231 139.872 366.234 136.556 366.229 133.24C366.227 131.891 365.935 131.48 364.594 131.26C363.842 131.137 363.578 130.837 363.622 130.08C363.686 129.017 363.685 127.946 363.643 126.88C363.621 126.285 363.854 125.962 364.39 125.799C364.556 125.749 364.714 125.676 364.876 125.618C367.479 124.661 368.05 125.054 368.05 127.797V137.746C368.05 141.494 368.059 145.243 368.038 148.992C368.036 149.352 368.301 149.946 367.571 149.971ZM368.09 102.359C368.021 102.87 367.505 102.406 367.244 102.531C366.165 102.446 365.281 102.985 364.335 103.291C364.126 103.359 363.872 103.695 363.688 103.309C363.545 103.004 363.735 102.763 364.015 102.605C365.006 102.042 366.047 101.665 367.208 101.788C367.587 101.827 368.159 101.838 368.09 102.359ZM367.552 101.254C366.673 101.207 366.542 100.76 366.566 100.021C366.608 98.6935 366.585 97.3664 366.575 96.0394C366.571 95.5543 366.663 95.1229 367.083 94.8215C367.531 94.4992 368.043 94.0817 368.56 94.3121C368.967 94.494 368.718 95.1004 368.733 95.5144C368.766 96.32 368.742 97.1291 368.752 97.9364C368.754 98.1339 368.745 98.4007 369.003 98.4198C369.332 98.444 369.328 98.1426 369.33 97.9243C369.345 96.9143 369.333 95.9042 369.351 94.896C369.354 94.6673 369.237 94.3173 369.646 94.3017C369.999 94.2879 370.269 94.4369 370.286 94.844C370.298 95.1021 370.298 95.362 370.298 95.6219V108.775C370.298 113.244 370.305 117.716 370.286 122.186C370.285 122.494 370.532 123.114 369.942 123.041C369.454 122.981 368.716 122.958 368.661 122.146C368.643 121.888 368.652 121.628 368.652 121.368C368.652 115.859 368.645 110.349 368.661 104.842C368.662 104.045 368.527 103.258 368.709 102.443C368.889 101.633 368.214 101.287 367.552 101.254ZM370.259 125.585C369.844 125.418 369.615 125.089 369.235 125.022C368.493 124.886 368.643 124.31 368.661 123.809C368.669 123.611 368.68 123.343 368.967 123.416C369.477 123.542 370.103 123.582 370.243 124.232C370.33 124.637 370.259 125.075 370.259 125.585ZM369.871 152.968C368.994 152.954 368.636 152.646 368.661 151.826C368.671 151.495 368.501 151.022 369.114 151.008C369.956 150.988 370.295 151.32 370.298 152.207C370.183 152.448 370.563 152.98 369.871 152.968ZM369.812 150.534C369.23 150.471 368.623 150.463 368.633 149.532C368.674 145.664 368.65 141.795 368.65 137.927C368.652 134.202 368.642 130.477 368.669 126.752C368.671 126.361 368.342 125.772 369.01 125.586C369.328 125.5 370.243 126.446 370.283 126.842C370.307 127.071 370.298 127.303 370.298 127.534C370.298 134.897 370.304 142.259 370.283 149.622C370.281 149.948 370.629 150.62 369.812 150.534ZM370.402 93.5221C370.371 93.6919 370.217 93.8167 370.046 93.8011C369.667 93.7699 369.394 93.685 369.223 93.6139C369.096 93.5602 369.013 93.4372 369.013 93.2986V92.5554C369.013 92.3735 369.159 92.2193 369.34 92.2159C369.681 92.2089 369.994 92.2886 370.176 92.3458C370.281 92.3804 370.368 92.4619 370.397 92.5693C370.487 92.8863 370.449 93.2657 370.402 93.5221ZM370.286 90.8871C370.286 91.1383 370.516 91.6147 369.982 91.6026C369.563 91.5922 369.314 91.3011 369.345 90.8386C369.358 90.6653 369.344 90.4921 369.344 90.3188C369.344 82.9594 369.339 75.5982 369.361 68.2387C369.361 67.887 369.046 67.2235 369.733 67.2183C370.347 67.2131 370.3 67.8195 370.3 68.2872C370.298 72.0397 370.298 75.7922 370.298 79.5447C370.298 83.2972 370.304 87.1069 370.286 90.8871ZM370.537 66.4959C370.516 66.5773 370.49 66.6553 370.464 66.7298C370.247 66.7505 369.959 66.7575 369.629 66.7038C369.377 66.6639 369.162 66.5981 368.991 66.5323C368.942 66.3278 368.892 66.0021 368.942 65.6106C368.986 65.2693 369.09 65.0008 369.174 64.8241C369.321 64.779 369.579 64.7218 369.899 64.7617C370.189 64.7981 370.409 64.8986 370.537 64.9713C370.634 65.3715 370.695 65.9103 370.537 66.4959ZM369.963 64.0029C369.494 63.9267 369.328 63.7811 369.335 63.3047C369.359 61.7178 369.271 60.1257 369.37 58.5439C369.449 57.2896 370.608 56.7093 371.286 55.8274C371.364 55.8586 371.443 55.8898 371.521 55.9193C371.521 58.0484 371.523 60.1776 371.521 62.3051C371.521 62.4506 371.514 62.5944 371.513 62.7382C371.49 64.2749 371.495 64.2472 369.963 64.0029ZM371.668 106.573C371.644 110.753 371.582 114.934 371.559 119.114C371.554 120.179 371.644 121.245 371.665 122.31C371.672 122.657 371.8 123.176 371.234 123.17C370.674 123.163 370.914 122.639 370.912 122.355C370.895 117.941 370.9 113.527 370.9 109.114V96.3911C370.9 96.1606 370.907 95.9302 370.902 95.6998C370.893 95.3221 370.961 94.9358 371.417 94.967C371.846 94.9982 371.673 95.4209 371.673 95.6686C371.682 99.3033 371.689 102.938 371.668 106.573ZM371.656 93.9812H371.106C370.954 93.9812 370.831 93.8582 370.831 93.7075V92.9071C370.831 92.7564 370.954 92.6334 371.106 92.6334H371.656C371.808 92.6334 371.931 92.7564 371.931 92.9071V93.7075C371.931 93.8582 371.808 93.9812 371.656 93.9812ZM371.933 152.928C371.933 153.061 371.824 153.169 371.691 153.169H371.04C370.907 153.169 370.8 153.061 370.8 152.928V151.793C370.8 151.675 370.885 151.573 371.001 151.554L371.651 151.443C371.798 151.419 371.933 151.532 371.933 151.682V152.928ZM371.319 150.658C370.784 150.667 370.909 150.191 370.907 149.875C370.899 146.038 370.902 142.201 370.902 138.363H370.892C370.892 134.526 370.89 130.688 370.895 126.851C370.895 126.529 370.774 126.063 371.305 126.071C371.775 126.078 371.667 126.517 371.667 126.809C371.677 134.514 371.68 142.216 371.677 149.92C371.677 150.213 371.791 150.651 371.319 150.658ZM371.986 125.086C371.986 125.337 371.789 125.548 371.539 125.557C371.461 125.56 371.386 125.56 371.319 125.557C371.065 125.545 370.862 125.339 370.862 125.084V124.472C370.862 124.211 371.073 123.999 371.334 123.999H371.514C371.775 123.999 371.986 124.211 371.986 124.472V125.086ZM371.684 79.886C371.673 83.7164 371.687 87.5452 371.725 91.3756C371.73 91.762 371.625 91.9595 371.321 92.1275C370.976 92.3181 370.829 92.3389 370.831 91.8399C370.866 84.283 370.881 76.7243 370.9 69.1673C370.902 68.8797 370.907 68.5904 370.906 68.3028C370.902 67.6895 371.267 67.5717 371.769 67.6722C372.177 67.7536 372.5 67.9979 372.799 68.2751C373.802 69.2072 374.543 70.3437 375.286 71.4767C375.468 71.7556 375.617 72.083 375.369 72.4313C375.001 72.3672 374.982 72.0328 374.842 71.8007C374.738 71.6309 374.643 71.3901 374.396 71.5131C374.171 71.6257 374.249 71.8699 374.313 72.0553C374.456 72.4728 374.712 72.8176 375.046 73.1087C375.305 73.3356 375.556 73.5729 375.406 74.0355C375.027 73.8865 374.975 73.6145 374.856 73.391C374.761 73.2178 374.672 72.9649 374.429 73.0619C374.135 73.1814 374.261 73.4569 374.333 73.663C374.489 74.11 374.804 74.4444 375.141 74.7683C375.338 74.9572 375.665 75.2465 375.373 75.4786C375.124 75.6761 374.973 75.2915 374.842 75.0784C374.738 74.9087 374.629 74.6713 374.389 74.8065C374.173 74.926 374.259 75.1668 374.321 75.3556C374.425 75.6692 374.672 75.8771 374.915 76.0833C375.186 76.3154 375.368 76.6065 375.449 76.953C375.627 77.6996 375.446 77.8712 374.712 77.6633C372.993 77.1747 371.689 78.1068 371.684 79.886ZM372.538 152.888C372.296 152.805 372.272 152.588 372.296 152.391C372.348 151.965 372.063 151.438 372.616 151.152C372.87 151.022 373.145 150.927 373.413 150.825C374.327 150.473 374.456 150.567 374.449 151.558C374.444 152.216 373.169 153.105 372.538 152.888ZM374.449 130.889V148.801C374.449 149.666 373.477 150.567 372.63 150.463C372.149 150.405 372.294 149.986 372.293 149.704C372.27 147.311 372.265 144.917 372.258 142.523C372.255 141.109 372.258 139.695 372.258 138.283C372.258 134.503 372.256 130.725 372.26 126.946C372.26 126.066 373.37 125.365 374.171 125.725C374.518 125.883 374.449 126.203 374.449 126.477C374.458 127.948 374.449 129.419 374.449 130.889ZM374.482 124.476C374.394 125.552 373.486 125.032 372.955 125.207C372.45 125.372 372.256 125.022 372.256 124.526C372.256 123.755 372.445 123.603 373.593 123.587C374.242 123.44 374.538 123.788 374.482 124.476ZM374.454 112.929C374.444 115.959 374.454 118.989 374.448 122.019C374.448 122.343 374.617 122.82 374.166 122.911C373.588 123.026 372.962 123.147 372.393 122.924C372.156 122.83 372.27 122.451 372.26 122.198C372.144 119.634 372.184 117.071 372.227 114.506C372.329 108.215 372.275 101.923 372.284 95.6322C372.284 95.4296 372.317 95.2147 372.26 95.0294C372.007 94.2255 372.495 93.9189 373.123 93.8946C373.943 93.8634 373.564 94.5737 373.566 94.9271C373.593 100.584 373.581 106.24 373.595 111.897C373.597 112.264 373.394 112.939 373.858 112.933C374.411 112.924 374.174 112.24 374.174 111.857C374.192 106.2 374.183 100.542 374.195 94.8856C374.195 94.5356 374.007 94.0453 374.43 93.8669C374.899 93.6694 375.254 94.0644 375.52 94.3936C376.023 95.0138 376.867 95.3845 377.007 96.2975C376.577 96.4829 376.283 95.6548 376.02 96.1277C375.795 96.5331 376.383 96.7566 376.658 97.0234C376.717 97.0806 376.808 97.1066 376.905 97.1568C376.793 97.2556 376.751 97.3179 376.722 97.3127C376.473 97.2677 376.25 96.7878 376.002 97.1603C375.812 97.4496 376.196 97.6488 376.386 97.8463C376.523 97.9884 376.689 98.101 376.843 98.2292C376.786 98.2898 376.748 98.3574 376.722 98.3522C376.473 98.3072 376.248 97.8273 376.002 98.1997C375.812 98.4908 376.201 98.6848 376.385 98.8875C376.585 99.1093 376.959 99.1734 377.011 99.5112C376.909 99.6897 376.808 99.6463 376.701 99.5944C376.473 99.48 376.241 99.0486 375.999 99.4229C375.819 99.7 376.21 99.9027 376.393 100.111C376.59 100.334 376.997 100.371 376.995 100.809C376.916 100.821 376.834 100.856 376.769 100.835C376.516 100.759 376.281 100.284 376.049 100.585C375.767 100.953 376.255 101.157 376.475 101.382C376.701 101.614 377.127 101.703 376.987 102.172C376.935 102.197 376.883 102.243 376.834 102.238C376.54 102.212 376.305 101.639 376.039 101.987C375.771 102.339 376.272 102.545 376.487 102.782C376.663 102.978 377.042 103.012 376.98 103.404C376.921 103.425 376.865 103.465 376.819 103.458C376.535 103.409 376.298 102.844 376.032 103.208C375.779 103.555 376.279 103.764 376.495 104.002C376.672 104.194 377.056 104.229 376.973 104.618C376.578 104.83 376.277 103.971 376.034 104.43C375.793 104.887 376.416 105.097 376.717 105.372C376.798 105.445 376.879 105.518 376.966 105.594C376.9 105.649 376.86 105.708 376.829 105.705C376.537 105.675 376.305 105.098 376.039 105.452C375.772 105.803 376.277 106.006 376.485 106.249C376.625 106.41 376.926 106.418 376.931 106.72C376.563 106.86 376.286 106.037 376.006 106.538C375.809 106.893 376.338 107.132 376.608 107.373C376.77 107.519 377.038 107.586 376.987 107.891C376.936 107.917 376.886 107.964 376.841 107.96C376.544 107.934 376.293 107.356 376.049 107.697C375.765 108.094 376.31 108.291 376.547 108.544C376.708 108.714 377.051 108.747 376.971 109.106C376.59 109.305 376.267 108.478 376.021 108.946C375.798 109.374 376.379 109.58 376.686 109.805C377.014 110.048 377.101 110.363 377.011 110.718C376.902 111.153 376.552 110.925 376.291 110.93C375.26 110.952 374.46 111.801 374.454 112.929ZM376.364 151.66C376.364 151.927 376.172 152.157 375.909 152.204L375.458 152.285C375.117 152.348 374.806 152.086 374.806 151.741V151.15C374.806 150.87 375.015 150.634 375.293 150.599L375.745 150.546C376.073 150.506 376.364 150.764 376.364 151.095V151.66ZM376.182 141.774C376.175 144.027 376.184 146.277 376.187 148.527C376.187 148.701 376.184 148.874 376.187 149.047C376.198 149.555 375.871 149.676 375.452 149.688C374.911 149.706 375.058 149.286 375.058 149.009C375.049 145.113 375.053 141.217 375.051 137.32C375.049 133.483 375.056 129.644 375.029 125.806C375.024 125.096 375.29 124.808 375.985 124.808C377.052 124.81 378.002 125.245 378.982 125.567C379.487 125.734 379.212 126.111 379.261 126.401C378.982 126.468 378.87 126.305 378.721 126.229C378.507 126.116 378.254 125.824 378.062 126.149C377.895 126.435 378.244 126.584 378.429 126.745C378.559 126.858 378.707 126.952 378.854 127.04C379.076 127.175 379.391 127.303 379.185 127.613C379.003 127.891 378.784 127.619 378.592 127.523C378.413 127.437 378.208 127.281 378.061 127.516C377.924 127.738 378.133 127.882 378.28 128.015C378.365 128.093 378.465 128.154 378.55 128.232C378.773 128.433 379.25 128.551 379.086 128.911C378.88 129.365 378.638 128.814 378.391 128.807C378.275 128.804 378.159 128.764 378.08 128.871C377.941 129.058 378.074 129.19 378.187 129.32C378.46 129.637 378.937 129.739 379.116 130.165C379.041 130.222 379.003 130.278 378.96 130.283C378.64 130.321 378.325 129.697 378.074 130.143C377.867 130.512 378.408 130.661 378.638 130.888C378.74 130.988 378.877 131.052 378.981 131.149C379.117 131.277 379.188 131.452 379.062 131.608C378.944 131.75 378.804 131.631 378.678 131.567C378.484 131.466 378.253 131.222 378.078 131.492C377.881 131.795 378.24 131.917 378.4 132.099C378.69 132.431 379.385 132.438 379.256 133.116C379.084 133.261 378.979 133.128 378.853 133.076C378.595 132.97 378.308 132.504 378.069 132.923C377.877 133.259 378.36 133.414 378.578 133.615C378.863 133.88 379.444 133.938 379.218 134.552C378.77 134.659 378.374 133.817 378.111 134.288C377.848 134.758 378.567 134.955 378.913 135.207C379.143 135.373 379.392 135.572 379.244 135.822C379.017 136.203 378.839 135.747 378.635 135.688C378.451 135.635 378.266 135.416 378.095 135.624C377.877 135.889 378.171 136.016 378.306 136.184C378.611 136.561 379.396 136.565 379.249 137.32C378.766 137.431 378.375 136.58 378.106 137.067C377.851 137.525 378.574 137.726 378.92 137.982C379.109 138.124 379.304 138.232 379.235 138.543C379.145 138.538 379.062 138.549 378.991 138.526C378.687 138.427 378.367 137.899 378.118 138.245C377.815 138.663 378.432 138.793 378.657 139.044C378.832 139.24 379.32 139.231 379.178 139.609C379.062 139.922 378.718 139.687 378.479 139.669C376.98 139.564 376.187 140.272 376.182 141.774ZM381.174 151.928C381.046 152.218 380.84 152.117 380.672 152.046C379.678 151.634 378.642 151.71 377.609 151.76C376.75 151.802 376.75 151.816 376.777 150.865C376.665 150.206 377.007 149.974 377.732 149.879C378.704 149.752 379.622 149.794 380.515 150.175C381.113 150.43 381.43 151.353 381.174 151.928Z" fill="#E2E2E2"/>
<path d="M-72 113.499C-68.0941 111.211 -63.8057 109.554 -60.1032 106.943C-58.1476 105.564 -54.3782 102.905 -48.7601 101.466C-48.3642 101.364 -47.995 101.294 -47.6018 101.232C-37.7916 99.6513 -26.2934 106.658 -26.2934 106.658C-12.4865 115.249 61.0694 166.235 75.1573 173.519C76.9978 174.471 81.1445 176.393 86.2328 177.87C86.2328 177.87 93.0012 179.832 99.4405 179.832C101.458 179.806 101.319 179.658 104.655 179.467C110.535 179.128 113.734 179.432 120.896 179.609C128.162 179.789 127.068 179.531 131.784 179.709C143.09 180.131 144.898 181.44 155.476 181.739C159.163 181.844 158.341 181.666 166.918 181.739C177.713 181.83 177.06 182.091 180.533 181.967C188.799 181.674 196.448 181.306 202.686 176.262C204.538 174.764 208.125 171.863 207.997 168.166C207.863 164.331 203.845 162.796 194.083 155.1C184.013 147.166 202.964 143.463 202.167 142.218C201.354 140.952 201.761 138.978 200.905 136.117C200.035 133.208 198.422 131.189 197.405 129.89" stroke="#373534" stroke-width="0.225695" stroke-miterlimit="10"/>
<path d="M75 174C100.226 164.186 120.87 160.666 135.372 159.311C147.008 158.223 158.464 158.175 171.693 151.449C184.107 145.138 192.234 135.921 197.21 129C202.933 133.714 211.282 139.896 222.179 145.72C239.029 154.722 253.547 158.365 265.257 161.223C268.782 162.083 282.565 165.359 299.308 166.907C336.014 170.304 369.706 163.808 390 158.636" stroke="#373534" stroke-width="0.225695" stroke-miterlimit="10"/>
<path d="M161.658 95.7871C161.831 96.1417 162.009 96.5758 162.152 97.0829C162.338 97.7424 162.41 98.3323 162.437 98.8062" fill="white"/>
<path d="M161.658 95.7871C161.831 96.1417 162.009 96.5758 162.152 97.0829C162.338 97.7424 162.41 98.3323 162.437 98.8062" stroke="black" stroke-width="0.331403" stroke-miterlimit="10" stroke-linecap="round"/>
<path d="M161.658 95.7876C161.89 95.7478 162.533 95.665 163.199 96.0129C163.564 96.2018 163.802 96.4504 163.942 96.6227" fill="white"/>
<path d="M161.658 95.7876C161.89 95.7478 162.533 95.665 163.199 96.0129C163.564 96.2018 163.802 96.4504 163.942 96.6227" stroke="black" stroke-width="0.331403" stroke-miterlimit="10" stroke-linecap="round"/>
<path d="M85.2334 158.847C91.4041 156.905 100.478 153.388 108.68 147.238C124.137 135.645 126.112 122.495 126.467 117.759" stroke="black" stroke-width="0.662806" stroke-miterlimit="10"/>
<path d="M155.172 112.911C158.867 109.279 162.563 105.65 166.258 102.018C166.536 101.799 167.444 101.02 167.722 99.6613C168.097 97.8519 167.05 96.4832 166.894 96.2843C163.835 91.0183 160.78 85.7523 157.721 80.4863L153.005 84.1815C154.98 88.8112 156.955 93.4409 158.93 98.0706C156.339 99.5586 153.747 101.043 151.159 102.531C150.566 103.87 149.969 105.206 149.376 106.545C151.308 108.669 153.24 110.793 155.172 112.914V112.911Z" fill="#F2F2F2" stroke="black" stroke-width="0.331403" stroke-miterlimit="10"/>
<path d="M118.155 113.673C116.683 112.645 114.489 110.833 112.627 107.963C111.275 105.882 110.529 103.91 110.102 102.435C111.676 101.345 114.141 99.9097 117.432 99.0082C121.528 97.8881 125.035 98.1135 127.106 98.4084C127.026 104.056 126.947 109.706 126.864 115.353C123.961 114.793 121.054 114.233 118.151 113.67L118.155 113.673Z" fill="white" stroke="black" stroke-width="0.331403" stroke-miterlimit="10"/>
<path d="M149.526 141.736C149.891 145.226 150.07 149.322 149.795 153.889C149.42 160.076 148.313 165.385 147.12 169.591H140.118C139.697 166.214 139.372 162.558 139.213 158.658C139.017 153.925 139.094 149.524 139.329 145.514" fill="#E6E6E6"/>
<path d="M149.526 141.736C149.891 145.226 150.07 149.322 149.795 153.889C149.42 160.076 148.313 165.385 147.12 169.591H140.118C139.697 166.214 139.372 162.558 139.213 158.658C139.017 153.925 139.094 149.524 139.329 145.514" stroke="black" stroke-width="0.331403" stroke-miterlimit="10"/>
<path d="M139.1 153.405H149.82" stroke="black" stroke-width="0.331403" stroke-miterlimit="10"/>
<path d="M139.1 157H149.489" stroke="black" stroke-width="0.331403" stroke-miterlimit="10"/>
<path d="M148.578 176H138.592C138.447 175.304 138.261 173.946 138.705 172.342C139.066 171.042 139.693 170.118 140.114 169.594H147.116C147.517 170.194 148.024 171.109 148.346 172.305C148.767 173.863 148.687 175.198 148.574 176H148.578Z" fill="#A79D96" stroke="black" stroke-width="0.331403" stroke-miterlimit="10"/>
<path d="M125.77 141.137C125.475 144.842 125.382 149.137 125.733 153.889C126.181 159.98 127.241 165.276 128.408 169.591H135.41C135.831 166.214 136.156 162.559 136.315 158.658C136.511 153.926 136.434 149.525 136.199 145.515" fill="#E6E6E6"/>
<path d="M125.77 141.137C125.475 144.842 125.382 149.137 125.733 153.889C126.181 159.98 127.241 165.276 128.408 169.591H135.41C135.831 166.214 136.156 162.559 136.315 158.658C136.511 153.926 136.434 149.525 136.199 145.515" stroke="black" stroke-width="0.331403" stroke-miterlimit="10"/>
<path d="M136.432 153.405H125.701" stroke="black" stroke-width="0.331403" stroke-miterlimit="10"/>
<path d="M136.432 157H126.039" stroke="black" stroke-width="0.331403" stroke-miterlimit="10"/>
<path d="M126.95 176H136.935C137.081 175.304 137.266 173.946 136.822 172.342C136.461 171.042 135.835 170.118 135.414 169.594H128.411C128.01 170.194 127.503 171.109 127.182 172.305C126.761 173.863 126.84 175.198 126.953 176H126.95Z" fill="#A79D96" stroke="black" stroke-width="0.331403" stroke-miterlimit="10"/>
<path d="M151.537 94.1401H123.925C122.717 94.1401 121.737 95.1194 121.737 96.3274V103.844C121.737 105.052 122.717 106.031 123.925 106.031H151.537C152.745 106.031 153.724 105.052 153.724 103.844V96.3274C153.724 95.1194 152.745 94.1401 151.537 94.1401Z" fill="#A79D96" stroke="black" stroke-width="0.331403" stroke-miterlimit="10"/>
<path d="M128.504 102.687H146.954C149.78 102.687 152.077 104.984 152.077 107.81V116.931H123.381V107.81C123.381 104.984 125.677 102.687 128.504 102.687Z" fill="#F2F2F2" stroke="black" stroke-width="0.331403" stroke-miterlimit="10"/>
<path d="M143.592 114.671H131.864C128.299 114.671 125.408 117.561 125.408 121.127V139.109C125.408 142.674 128.299 145.564 131.864 145.564H143.592C147.158 145.564 150.048 142.674 150.048 139.109V121.127C150.048 117.561 147.158 114.671 143.592 114.671Z" fill="#A79D96" stroke="black" stroke-width="0.331403" stroke-miterlimit="10"/>
<path d="M145.621 107.562H129.837C126.271 107.562 123.381 110.452 123.381 114.018V132C123.381 135.565 126.271 138.455 129.837 138.455H145.621C149.187 138.455 152.077 135.565 152.077 132V114.018C152.077 110.452 149.187 107.562 145.621 107.562Z" fill="#E6E6E6" stroke="black" stroke-width="0.331403" stroke-miterlimit="10"/>
<path d="M133.791 120.377H141.668C144.021 120.377 145.933 122.29 145.933 124.643V132.573H129.525V124.643C129.525 122.29 131.438 120.377 133.791 120.377Z" fill="#C8C5C4" stroke="black" stroke-width="0.331403" stroke-miterlimit="10"/>
<path d="M129.525 125.097H145.936" stroke="black" stroke-width="0.331403" stroke-miterlimit="10"/>
<path d="M132.283 125.097H135.925V127.678C135.925 128.364 135.369 128.921 134.683 128.921H133.529C132.843 128.921 132.287 128.364 132.287 127.678V125.097H132.283Z" fill="#A79D96" stroke="black" stroke-width="0.331403" stroke-miterlimit="10"/>
<path d="M139.54 125.097H143.182V127.678C143.182 128.364 142.625 128.921 141.939 128.921H140.786C140.1 128.921 139.543 128.364 139.543 127.678V125.097H139.54Z" fill="#A79D96" stroke="black" stroke-width="0.331403" stroke-miterlimit="10"/>
<path d="M134.089 135.022H132.499C132.003 135.022 131.601 135.425 131.601 135.921V143.261C131.601 143.757 132.003 144.159 132.499 144.159H134.089C134.585 144.159 134.988 143.757 134.988 143.261V135.921C134.988 135.425 134.585 135.022 134.089 135.022Z" fill="#D9D9D9" stroke="black" stroke-width="0.331403" stroke-miterlimit="10"/>
<path d="M133.293 137.65C133.709 137.65 134.046 137.313 134.046 136.898C134.046 136.482 133.709 136.146 133.293 136.146C132.878 136.146 132.541 136.482 132.541 136.898C132.541 137.313 132.878 137.65 133.293 137.65Z" fill="#A79D96" stroke="black" stroke-width="0.331403" stroke-miterlimit="10"/>
<path d="M142.963 135.022H141.373C140.877 135.022 140.475 135.425 140.475 135.921V143.261C140.475 143.757 140.877 144.159 141.373 144.159H142.963C143.459 144.159 143.862 143.757 143.862 143.261V135.921C143.862 135.425 143.459 135.022 142.963 135.022Z" fill="#D9D9D9" stroke="black" stroke-width="0.331403" stroke-miterlimit="10"/>
<path d="M142.168 137.65C142.584 137.65 142.921 137.313 142.921 136.898C142.921 136.482 142.584 136.146 142.168 136.146C141.753 136.146 141.416 136.482 141.416 136.898C141.416 137.313 141.753 137.65 142.168 137.65Z" fill="#A79D96" stroke="black" stroke-width="0.331403" stroke-miterlimit="10"/>
<path d="M152.077 117.756V126.114C152.077 129.68 149.187 132.57 145.621 132.57H129.84C126.274 132.57 123.384 129.68 123.384 126.114V117.756" stroke="black" stroke-width="0.331403" stroke-miterlimit="10"/>
<path d="M134.065 98.3354H141.395C145.323 98.3354 148.511 101.524 148.511 105.451V105.673C148.511 107.555 146.983 109.083 145.101 109.083H130.356C128.474 109.083 126.946 107.555 126.946 105.673V105.451C126.946 101.524 130.134 98.3354 134.062 98.3354H134.065Z" fill="#D6D6D6" stroke="black" stroke-width="0.331403" stroke-miterlimit="10"/>
<path d="M137.731 106.667C139.363 106.667 140.687 105.344 140.687 103.711C140.687 102.078 139.363 100.755 137.731 100.755C136.098 100.755 134.774 102.078 134.774 103.711C134.774 105.344 136.098 106.667 137.731 106.667Z" fill="#A79D96" stroke="black" stroke-width="0.331403" stroke-miterlimit="10"/>
<path d="M146.192 112.464H141.251C140.713 112.464 140.276 112.9 140.276 113.438V114.164C140.276 114.702 140.713 115.138 141.251 115.138H146.192C146.73 115.138 147.166 114.702 147.166 114.164V113.438C147.166 112.9 146.73 112.464 146.192 112.464Z" fill="#A79D96" stroke="black" stroke-width="0.331403" stroke-miterlimit="10"/>
<path d="M144.482 104.688C144.482 104.268 144.142 103.926 143.722 103.926C143.301 103.926 142.961 104.268 142.961 104.688V113.418C142.961 113.839 143.301 114.18 143.722 114.18C144.142 114.18 144.482 113.839 144.482 113.418V104.688Z" fill="#A79D96" stroke="black" stroke-width="0.331403" stroke-miterlimit="10"/>
<path d="M133.8 112.464H128.859C128.321 112.464 127.885 112.9 127.885 113.438V114.164C127.885 114.702 128.321 115.138 128.859 115.138H133.8C134.338 115.138 134.775 114.702 134.775 114.164V113.438C134.775 112.9 134.338 112.464 133.8 112.464Z" fill="#A79D96" stroke="black" stroke-width="0.331403" stroke-miterlimit="10"/>
<path d="M132.089 104.688C132.089 104.268 131.749 103.926 131.329 103.926C130.909 103.926 130.568 104.268 130.568 104.688V113.418C130.568 113.839 130.909 114.18 131.329 114.18C131.749 114.18 132.089 113.839 132.089 113.418V104.688Z" fill="#A79D96" stroke="black" stroke-width="0.331403" stroke-miterlimit="10"/>
<path d="M152.078 114.671H156.148C157.374 114.671 158.371 115.668 158.371 116.895V127.092C158.371 129.306 156.575 131.102 154.361 131.102H152.081V114.667L152.078 114.671Z" fill="#F2F2F2" stroke="black" stroke-width="0.331403" stroke-miterlimit="10"/>
<path d="M152.077 108.758H153.86C155.119 108.758 156.143 109.782 156.143 111.042V114.671H152.073V108.758H152.077Z" fill="#A79D96" stroke="black" stroke-width="0.331403" stroke-miterlimit="10"/>
<path d="M118.586 112.464H123.381V120.626H120.007C118.652 120.626 117.552 119.526 117.552 118.171V113.501C117.552 112.931 118.016 112.467 118.586 112.467V112.464Z" fill="#D6D6D6" stroke="black" stroke-width="0.331403" stroke-miterlimit="10"/>
<path d="M123.381 119.688H120.263V122.806H123.381V119.688Z" fill="#D6D6D6" stroke="black" stroke-width="0.331403" stroke-miterlimit="10"/>
<path d="M118.622 122.449H123.381V129.968H120.097C118.9 129.968 117.933 128.997 117.933 127.804V123.138C117.933 122.757 118.241 122.449 118.622 122.449Z" fill="#D6D6D6" stroke="black" stroke-width="0.331403" stroke-miterlimit="10"/>
<path d="M113.386 109.053C113.234 109.371 112.64 110.694 113.108 112.301C113.532 113.762 114.566 114.551 114.99 114.836C116.054 115.545 117.114 115.618 117.549 115.625C117.559 114.836 117.568 114.047 117.578 113.255C116.863 112.616 116.147 111.98 115.428 111.34C114.745 110.578 114.066 109.815 113.383 109.053H113.386Z" fill="#F2F2F2" stroke="black" stroke-width="0.331403" stroke-miterlimit="10"/>
<path d="M150.049 89.8418H125.005V94.1401H150.049V89.8418Z" fill="#F2F2F2" stroke="black" stroke-width="0.331403" stroke-miterlimit="10"/>
<path d="M150.324 87.3535H124.799V89.8457H150.324V87.3535Z" fill="#F2F2F2" stroke="black" stroke-width="0.331403" stroke-miterlimit="10"/>
<path d="M126.675 89.8418V94.1401" stroke="black" stroke-width="0.331403" stroke-miterlimit="10"/>
<path d="M128.336 89.8418V94.1401" stroke="black" stroke-width="0.331403" stroke-miterlimit="10"/>
<path d="M129.999 89.8418V94.1401" stroke="black" stroke-width="0.331403" stroke-miterlimit="10"/>
<path d="M131.66 89.8418V94.1401" stroke="black" stroke-width="0.331403" stroke-miterlimit="10"/>
<path d="M133.319 89.8418V94.1401" stroke="black" stroke-width="0.331403" stroke-miterlimit="10"/>
<path d="M134.982 89.8418V94.1401" stroke="black" stroke-width="0.331403" stroke-miterlimit="10"/>
<path d="M136.644 89.8418V94.1401" stroke="black" stroke-width="0.331403" stroke-miterlimit="10"/>
<path d="M138.308 89.8418V94.1401" stroke="black" stroke-width="0.331403" stroke-miterlimit="10"/>
<path d="M139.969 89.8418V94.1401" stroke="black" stroke-width="0.331403" stroke-miterlimit="10"/>
<path d="M141.629 89.8418V94.1401" stroke="black" stroke-width="0.331403" stroke-miterlimit="10"/>
<path d="M143.292 89.8418V94.1401" stroke="black" stroke-width="0.331403" stroke-miterlimit="10"/>
<path d="M144.953 89.8418V94.1401" stroke="black" stroke-width="0.331403" stroke-miterlimit="10"/>
<path d="M146.612 89.8418V94.1401" stroke="black" stroke-width="0.331403" stroke-miterlimit="10"/>
<path d="M148.275 89.8418V94.1401" stroke="black" stroke-width="0.331403" stroke-miterlimit="10"/>
<path d="M132.976 89.8424V87.3535" stroke="black" stroke-width="0.331403" stroke-miterlimit="10"/>
<path d="M142.148 89.8424V87.3535" stroke="black" stroke-width="0.331403" stroke-miterlimit="10"/>
<path d="M137.732 77.1823C139.071 77.1823 140.157 76.3573 140.157 75.3397C140.157 74.322 139.071 73.4971 137.732 73.4971C136.392 73.4971 135.306 74.322 135.306 75.3397C135.306 76.3573 136.392 77.1823 137.732 77.1823Z" fill="#F2F2F2" stroke="black" stroke-width="0.331403" stroke-miterlimit="10"/>
<path d="M124.836 87.3529C124.836 80.695 130.589 75.2202 137.582 75.2202C144.574 75.2202 150.327 80.6983 150.327 87.3529H124.836Z" fill="#D6D6D6" stroke="black" stroke-width="0.331403" stroke-miterlimit="10"/>
<path d="M132.896 87.3533C132.896 84.7783 135.014 82.6606 137.589 82.6606C140.164 82.6606 142.282 84.7783 142.282 87.3533H132.9H132.896Z" fill="#7D736B" stroke="black" stroke-width="0.331403" stroke-miterlimit="10"/>
<path d="M137.744 75.2202C138.712 75.5052 141.857 76.5624 144.167 79.7737C146.49 83.0049 146.477 86.3487 146.434 87.3529" fill="#D6D6D6"/>
<path d="M137.744 75.2202C138.712 75.5052 141.857 76.5624 144.167 79.7737C146.49 83.0049 146.477 86.3487 146.434 87.3529" stroke="black" stroke-width="0.331403" stroke-miterlimit="10"/>
<path d="M137.668 75.2202C136.716 75.5152 132.819 76.8374 130.529 80.8806C129.001 83.5782 128.932 86.1665 128.978 87.3529" fill="#D6D6D6"/>
<path d="M137.668 75.2202C136.716 75.5152 132.819 76.8374 130.529 80.8806C129.001 83.5782 128.932 86.1665 128.978 87.3529" stroke="black" stroke-width="0.331403" stroke-miterlimit="10"/>
<path d="M137.744 75.2202V82.6702" stroke="black" stroke-width="0.331403" stroke-miterlimit="10"/>
<path d="M153.46 83.8235C152.058 83.1773 150.653 82.531 149.251 81.8848C148.486 80.6619 148.001 80.4962 147.007 79.1706L152.018 77.8218C152.592 77.7091 152.668 76.9171 152.128 76.695C151.293 76.3504 150.454 76.009 149.619 75.6643C149.258 75.5152 148.853 75.5053 148.486 75.6379C147.11 76.125 145.732 76.6122 144.356 77.0993C143.952 76.8541 143.485 76.6055 142.961 76.3669C142.282 76.062 141.642 75.8466 141.082 75.6909C143.72 74.5243 146.361 73.3578 148.999 72.1879C150.056 71.7207 151.269 71.7439 152.3 72.2708C153.715 72.9966 155.561 74.3387 156.539 76.6751C157.271 78.4216 157.228 80.0322 157.122 80.9536" fill="white"/>
<path d="M153.46 83.8235C152.058 83.1773 150.653 82.531 149.251 81.8848C148.486 80.6619 148.001 80.4962 147.007 79.1706L152.018 77.8218C152.592 77.7091 152.668 76.9171 152.128 76.695C151.293 76.3504 150.454 76.009 149.619 75.6643C149.258 75.5152 148.853 75.5053 148.486 75.6379C147.11 76.125 145.732 76.6122 144.356 77.0993C143.952 76.8541 143.485 76.6055 142.961 76.3669C142.282 76.062 141.642 75.8466 141.082 75.6909C143.72 74.5243 146.361 73.3578 148.999 72.1879C150.056 71.7207 151.269 71.7439 152.3 72.2708C153.715 72.9966 155.561 74.3387 156.539 76.6751C157.271 78.4216 157.228 80.0322 157.122 80.9536" stroke="black" stroke-width="0.331403" stroke-miterlimit="10"/>
<path d="M63.6317 169.229C62.8164 168.736 61.7294 168.282 60.5065 168.417C59.287 168.557 58.6142 169.206 58.0376 168.842C57.5007 168.5 57.3085 167.446 57.6896 166.797C57.8222 166.575 58.1834 166.121 61.8189 165.909C64.268 165.766 64.8678 165.925 65.176 166.025C66.3691 166.403 67.1876 167.102 67.645 167.569C66.3061 168.123 64.9705 168.676 63.6317 169.229Z" fill="#F2F2F2" stroke="black" stroke-width="0.331403" stroke-miterlimit="10"/>
<path d="M71.9571 165.876C71.3804 165.829 70.5486 165.723 69.5876 165.438C68.2023 165.027 67.1054 164.706 66.8899 163.98C66.6613 163.215 67.5262 162.356 69.0043 160.918C71.2645 158.721 71.7218 159.032 72.61 157.783C74.0383 155.778 73.1601 154.562 74.5785 153.266C75.629 152.305 76.9646 152.192 78.4758 152.063C80.1759 151.917 81.8296 151.778 82.7012 152.865C83.6523 154.051 83.0326 155.901 82.9199 156.219C81.0873 158.588 79.2513 160.954 77.4186 163.324C75.5959 164.176 73.7765 165.024 71.9538 165.876H71.9571Z" fill="#A79D96" stroke="black" stroke-width="0.331403" stroke-miterlimit="10"/>
<path d="M63.3232 172.239C63.711 172.696 64.2545 173.16 64.9703 173.312C66.2263 173.581 66.9322 172.673 68.745 172.477C69.716 172.371 69.9215 172.587 71.2305 172.693C72.3241 172.782 73.9281 172.772 75.9596 172.262C76.1916 170.694 76.4203 169.123 76.6523 167.556C77.0268 166.28 77.4012 165.007 77.7757 163.731C74.4948 165.219 71.214 166.711 67.9331 168.199C66.3954 169.544 64.8576 170.89 63.3232 172.235V172.239Z" fill="#E6E6E6" stroke="black" stroke-width="0.331403" stroke-miterlimit="10"/>
<path d="M77.0474 163.583C75.7052 164.02 74.6082 164.428 73.8162 164.732C71.6587 165.564 71.1782 165.882 69.9023 166.167C68.1359 166.562 67.8012 166.234 66.6346 166.525C65.5145 166.807 63.9702 167.579 62.3993 169.866C61.657 170.098 60.7887 170.307 59.8144 170.439C57.8326 170.708 56.1192 170.555 54.8599 170.33C54.3727 170.562 53.5608 171.023 53.5674 171.586C53.5774 172.491 55.6718 173.094 56.2949 173.273C57.0803 173.498 61.6338 174.711 65.8459 172.159C67.3074 171.274 67.3173 170.787 69.1599 169.773C70.8932 168.815 72.4972 168.358 73.6074 168.116" fill="#E6E6E6"/>
<path d="M77.0474 163.583C75.7052 164.02 74.6082 164.428 73.8162 164.732C71.6587 165.564 71.1782 165.882 69.9023 166.167C68.1359 166.562 67.8012 166.234 66.6346 166.525C65.5145 166.807 63.9702 167.579 62.3993 169.866C61.657 170.098 60.7887 170.307 59.8144 170.439C57.8326 170.708 56.1192 170.555 54.8599 170.33C54.3727 170.562 53.5608 171.023 53.5674 171.586C53.5774 172.491 55.6718 173.094 56.2949 173.273C57.0803 173.498 61.6338 174.711 65.8459 172.159C67.3074 171.274 67.3173 170.787 69.1599 169.773C70.8932 168.815 72.4972 168.358 73.6074 168.116" stroke="black" stroke-width="0.331403" stroke-miterlimit="10"/>
<path d="M75.6191 171.649C75.6821 168.606 75.7451 165.567 75.808 162.525C75.8478 161.839 76.0964 158.674 78.5985 156.712C81.2629 154.621 84.5836 155.38 86.4925 155.814C87.8347 156.119 91.4138 156.938 93.4884 160.258C93.8993 160.914 95.2183 163.025 94.8107 165.693C94.1446 170.058 89.4552 171.98 88.7593 172.265C86.7841 173.074 84.9879 173.11 83.9108 173.047C82.6846 173.021 81.4585 172.991 80.2323 172.964C78.6946 172.527 77.1569 172.089 75.6191 171.652V171.649Z" fill="#F2F2F2" stroke="black" stroke-width="0.331403" stroke-miterlimit="10"/>
<path d="M78.3838 170.104C77.8568 170.048 77.0847 170.038 76.2197 170.3C74.2214 170.9 73.2006 172.487 72.9189 172.961H81.8304C81.4029 171.805 80.972 170.651 80.5445 169.495" fill="#F2F2F2"/>
<path d="M78.3838 170.104C77.8568 170.048 77.0847 170.038 76.2197 170.3C74.2214 170.9 73.2006 172.487 72.9189 172.961H81.8304C81.4029 171.805 80.972 170.651 80.5445 169.495" stroke="black" stroke-width="0.331403" stroke-miterlimit="10"/>
<path d="M77.8034 170.598C77.2334 169.402 77.3626 168.219 77.9724 167.781C78.559 167.361 79.4439 167.728 80.1464 168.02C80.7794 168.282 81.7935 168.703 82.0818 169.717C82.115 169.836 82.3204 170.555 81.9459 171.142C81.2533 172.232 79.0329 172.179 78.1414 171.175C77.9525 170.96 77.8531 170.738 77.8034 170.598Z" fill="black" stroke="black" stroke-width="0.331403" stroke-miterlimit="10"/>
<path d="M87.7494 156.136C87.8521 156.822 88.157 159.427 86.5 161.849C86.2912 162.154 85.3235 163.519 83.4942 164.418C79.9746 166.144 76.3789 164.6 75.7725 164.328" fill="#F2F2F2"/>
<path d="M87.7494 156.136C87.8521 156.822 88.157 159.427 86.5 161.849C86.2912 162.154 85.3235 163.519 83.4942 164.418C79.9746 166.144 76.3789 164.6 75.7725 164.328" stroke="black" stroke-width="0.331403" stroke-miterlimit="10"/>
<path d="M89.4688 163.46V167.43" stroke="black" stroke-width="0.662806" stroke-miterlimit="10" stroke-linecap="round"/>
<path d="M91.58 165.445H87.6064" stroke="black" stroke-width="0.662806" stroke-miterlimit="10" stroke-linecap="round"/>
<path d="M81.4229 158.062V162.032" stroke="black" stroke-width="0.662806" stroke-miterlimit="10" stroke-linecap="round"/>
<path d="M83.5331 160.046H79.5596" stroke="black" stroke-width="0.662806" stroke-miterlimit="10" stroke-linecap="round"/>
<path d="M91.2227 170.114C91.6038 170.754 92.6079 172.232 94.5234 173.084C95.5077 173.521 96.4124 173.65 97.0421 173.683C98.2981 174.645 100.068 174.578 101.241 173.534C102.401 172.504 102.679 170.777 101.9 169.425C101.009 168.901 98.4936 167.268 97.1316 163.993C96.1208 161.564 96.2269 159.387 96.3528 158.323C95.4182 157.143 93.8043 156.905 92.7537 157.634C91.9451 158.194 91.5507 159.264 91.7628 160.335C91.912 163.125 92.0644 165.915 92.2135 168.706C91.8821 169.176 91.5541 169.647 91.2227 170.118V170.114Z" fill="#A79D96" stroke="black" stroke-width="0.331403" stroke-miterlimit="10"/>
<path d="M115.66 47.4389L124.226 59.946C125.257 61.4473 124.876 63.502 123.371 64.5294L115.56 69.8815C115.56 69.8815 115.563 69.9113 115.563 69.9246L115.865 73.8252C115.961 75.068 114.672 75.9495 113.549 75.4126L110.016 73.7225C110.016 73.7225 109.989 73.7092 109.979 73.6993L103.318 78.2627C101.817 79.2934 99.7655 78.9056 98.7348 77.4044L90.1681 64.8972C89.1374 63.396 89.5185 61.3412 91.0231 60.3139L111.073 46.5772C112.574 45.5466 114.626 45.9343 115.656 47.4356L115.66 47.4389Z" fill="#D6D6D6" stroke="#373534" stroke-width="0.331403" stroke-miterlimit="10"/>
<path d="M104.011 67.343C103.513 66.6173 103.202 65.9876 103.079 65.4574C102.957 64.9271 102.973 64.3803 103.129 63.8202C103.285 63.2602 103.371 62.7863 103.388 62.3985C103.404 62.0108 103.305 61.6628 103.096 61.3546C102.582 60.6056 102.002 60.4499 101.356 60.8939C101.058 61.0994 100.892 61.3712 100.859 61.7158C100.826 62.0605 100.932 62.4217 101.177 62.8028L98.6584 64.5294C97.989 63.5286 97.7703 62.541 98.0056 61.5634C98.2409 60.5857 98.9169 59.7175 100.03 58.9552C101.144 58.193 102.171 57.8649 103.132 57.9577C104.093 58.0505 104.895 58.5708 105.542 59.5153C105.823 59.9262 105.999 60.3604 106.065 60.8078C106.132 61.2552 106.105 61.7821 105.986 62.3853L105.674 63.7705C105.591 64.1715 105.585 64.5261 105.661 64.8376C105.737 65.1492 105.896 65.4971 106.145 65.8816L104.014 67.343H104.011ZM105.257 69.8186C105.005 69.4508 104.932 69.0597 105.035 68.6388C105.137 68.2179 105.389 67.8766 105.787 67.6049C106.185 67.3331 106.596 67.2237 107.023 67.2768C107.451 67.3298 107.789 67.5419 108.04 67.9098C108.292 68.2776 108.365 68.6687 108.263 69.0896C108.16 69.5104 107.908 69.8518 107.51 70.1235C107.113 70.3953 106.702 70.5046 106.274 70.4516C105.847 70.3986 105.509 70.1865 105.257 69.8186Z" fill="#373534"/>
<path d="M114.226 64.0222C113.907 63.7106 113.758 63.3395 113.778 62.9087C113.798 62.4778 113.977 62.0901 114.312 61.7454C114.646 61.4008 115.031 61.2119 115.462 61.182C115.892 61.1522 116.267 61.2914 116.585 61.6029C116.903 61.9144 117.052 62.2856 117.033 62.7164C117.013 63.1473 116.834 63.535 116.499 63.8797C116.164 64.2243 115.78 64.4132 115.349 64.443C114.918 64.4729 114.544 64.3337 114.226 64.0222ZM114.275 59.9592L112.555 61.7255L105.848 55.7338L108.111 53.4106L114.279 59.9592H114.275Z" fill="#373534"/>
<path d="M33 147C31.6656 146.223 30.3344 145.444 29 144.667V85.5534C29 84.6968 29.7572 84 30.6881 84H31.3119C32.2428 84 33 84.6968 33 85.5534V147Z" fill="#F2F2F2" stroke="black" stroke-width="0.331879" stroke-miterlimit="10"/>
<path d="M55.4034 115.214L46.0843 117.729C45.9054 117.779 45.7132 117.785 45.5276 117.749L18.4453 112.794C16.9441 112.519 15.9134 111.257 16.1487 109.971L17.1363 104.572C17.3716 103.286 18.78 102.471 20.2813 102.746L47.3636 107.701C47.5525 107.734 47.7281 107.81 47.8773 107.919L55.7017 113.573C56.3877 114.07 56.2187 114.995 55.4001 115.217L55.4034 115.214Z" fill="#E6E6E6" stroke="black" stroke-width="0.331403" stroke-miterlimit="10"/>
<path d="M52.965 97.61L45.0743 103.171C44.9219 103.277 44.7462 103.35 44.5573 103.383L25.7204 106.601C24.2158 106.859 22.814 106.024 22.5952 104.735L21.6706 99.3233C21.4519 98.0375 22.4925 96.7848 24.0004 96.5263L42.8374 93.3084C43.0263 93.2752 43.2185 93.2852 43.3941 93.3349L52.6834 95.9596C53.4986 96.1916 53.6577 97.1195 52.965 97.6067V97.61Z" fill="#D6D6D6" stroke="black" stroke-width="0.331403" stroke-miterlimit="10"/>
<path d="M5.57416 119.967L14.2867 115.108C14.4525 115.016 14.6413 114.966 14.8336 114.966H42.3665C43.8943 114.966 45.1338 116.205 45.1338 117.733V124.159C45.1338 125.687 43.8943 126.926 42.3665 126.926H14.8336C14.6413 126.926 14.4558 126.876 14.2867 126.784L5.57416 121.925C4.80861 121.498 4.80861 120.398 5.57416 119.97V119.967Z" fill="#F2F2F2" stroke="black" stroke-width="0.331403" stroke-miterlimit="10"/>
<path d="M52.5999 136.666L45.1036 137.037C44.9611 137.044 44.8186 137.014 44.6893 136.951L25.1896 127.311C24.1589 126.8 23.738 125.554 24.2451 124.523L26.3859 120.192C26.8963 119.161 28.1424 118.74 29.173 119.248L48.6728 128.888C48.802 128.951 48.9114 129.047 48.9943 129.166L53.2495 135.347C53.624 135.891 53.2561 136.633 52.5966 136.666H52.5999Z" fill="#A79D96" stroke="black" stroke-width="0.331403" stroke-miterlimit="10"/>
</svg>
