<svg width="1728" height="960" viewBox="0 0 1728 960" fill="none" xmlns="http://www.w3.org/2000/svg">
<path d="M0 0H1728V960H0V0Z" fill="white"/>
<path d="M1728 645.88C1713.4 637.37 1697.37 631.21 1683.53 621.5C1676.22 616.37 1662.13 606.48 1641.13 601.13C1639.65 600.75 1638.27 600.49 1636.8 600.26C1600.13 594.38 1557.15 620.44 1557.15 620.44C1505.54 652.39 1230.59 842.01 1177.93 869.1C1171.05 872.64 1155.55 879.79 1136.53 885.28C1136.53 885.28 1111.23 892.58 1087.16 892.58C1079.62 892.48 1080.14 891.93 1067.67 891.22C1045.69 889.96 1033.73 891.09 1006.96 891.75C979.8 892.42 983.89 891.46 966.26 892.12C924 893.69 917.24 898.56 877.7 899.67C863.92 900.06 866.99 899.4 834.93 899.67C794.58 900.01 797.02 900.98 784.04 900.52C753.14 899.43 724.55 898.06 701.23 879.3C694.31 873.73 680.9 862.94 681.38 849.19C681.88 834.93 696.9 829.22 733.39 800.6C771.03 771.09 700.19 757.32 703.17 752.69C706.21 747.98 704.69 740.64 707.89 730C711.14 719.18 717.17 711.67 720.97 706.84" stroke="#373534" stroke-miterlimit="10"/>
<path d="M1177.93 869.1C1083.6 832.46 1006.4 819.32 952.17 814.26C908.66 810.2 865.82 810.02 816.35 784.91C769.93 761.35 739.54 726.94 720.93 701.1C699.53 718.7 668.31 741.78 627.56 763.52C564.55 797.13 510.26 810.73 466.47 821.4C453.29 824.61 401.75 836.84 339.14 842.62C201.88 855.3 75.8898 831.05 -0.000244141 811.74" stroke="#373534" stroke-miterlimit="10"/>
<path d="M279.86 814.844C280.97 816.934 282.49 818.914 283.1 821.144C284.69 826.964 286.66 835.094 288.04 840.974C288.38 842.394 288.27 842.554 287.17 843.484C286.65 843.924 286.15 844.514 285.92 845.134C285.6 845.984 286.12 846.624 287.03 846.644C288.31 846.674 289.59 846.624 290.87 846.584C291.53 846.564 291.76 846.054 291.74 845.544C291.71 844.814 291.67 844.014 291.37 843.364C289.99 840.384 289.71 834.674 288.91 831.544C288.48 829.874 288.11 828.184 287.75 826.494C287.61 825.854 287.59 825.194 287.5 824.554C287.34 823.474 287.22 822.374 286.98 821.304C286.15 817.614 285.28 813.944 284.42 810.254C284.38 810.084 284.38 809.914 284.36 809.754C293.77 809.114 303.1 808.364 310.8 802.114C311.21 804.974 311.58 807.894 312.06 810.784C312.69 814.514 313.45 818.214 314.06 821.954C314.21 822.884 314.11 823.904 313.92 824.844C313.07 828.984 311.9 834.474 311 838.604C310.68 840.074 310.06 841.324 308.7 842.174C308.16 842.514 307.7 843.124 307.41 843.714C307.03 844.474 307.46 845.084 308.32 845.084C309.45 845.084 310.58 845.034 311.71 844.964C313.28 844.854 313.94 844.064 313.42 842.584C313.04 841.514 313.23 840.604 313.55 839.654C314.85 835.754 316.42 830.504 317.72 826.614C318.1 825.464 318.41 824.294 318.77 823.084C320.13 823.924 322.04 824.004 323.04 825.644C323.27 826.014 323.51 826.414 323.6 826.834C324.42 830.374 325.2 833.924 326.01 837.464C326.27 838.624 326.13 839.524 324.99 840.204C324.45 840.534 324.04 841.184 323.76 841.784C323.4 842.534 323.89 843.274 324.72 843.284C326.18 843.304 327.64 843.264 329.1 843.194C329.76 843.164 330.06 842.624 329.99 842.074C329.91 841.414 329.62 840.784 329.39 840.144C329.15 839.454 328.76 838.804 328.64 838.094C327.82 833.464 327.02 828.824 326.3 824.174C325.98 822.114 325 820.494 323.26 819.454C320.39 817.744 319.77 814.304 320.52 811.574C321.74 807.124 323.14 802.724 323.88 798.164C323.89 798.084 323.96 798.014 324.17 797.964C324.06 799.484 324 801.014 323.83 802.524C323.44 806.004 323.54 809.434 324.84 812.734C325.82 815.214 327.37 817.234 329.88 818.654C329.8 818.434 329.79 818.334 329.73 818.264C326.65 814.524 326 810.244 326.69 805.564C327.18 802.274 327.45 798.944 327.7 795.624C327.83 793.884 327.43 792.184 326.61 790.614C325.69 788.854 324.27 787.754 322.33 787.234C321.62 787.044 320.89 786.664 320.35 786.174C317.59 783.694 314.41 782.324 310.68 782.444C308.87 782.504 307.27 782.034 305.79 781.054C304.62 780.284 303.49 779.454 302.32 778.684C296.66 774.944 290.45 775.114 285.01 779.184C283.72 780.144 282.52 781.224 281.3 782.264C280.03 783.334 278.66 784.104 277.01 784.524C274.07 785.264 271.57 786.874 269.32 788.894C268.68 789.464 267.98 789.974 267.32 790.514C265.8 791.764 264.27 792.984 262.78 794.264C260.23 796.454 257.23 797.064 254.01 796.644C250.39 796.174 247.93 794.094 246.79 790.664C246.18 788.814 245.89 786.854 245.6 784.914C245.49 784.154 245.75 783.344 245.86 782.554C246.12 780.834 246.02 779.224 244.55 778.004C244.41 777.894 244.27 777.764 244.19 777.614C243.44 776.154 242.22 775.824 240.72 776.174C239.88 776.364 238.99 776.424 238.21 776.754C235.86 777.754 233.39 778.034 230.88 778.154C230.02 778.194 229.16 778.304 228.31 778.484C225.79 779.014 224.93 781.564 226.66 783.444C227.01 783.824 227.66 783.984 228.2 784.094C228.71 784.204 229.25 784.114 230.02 784.114C229.29 787.494 228.71 790.834 227.85 794.104C226.12 800.674 223.44 806.814 219.13 812.144C217.4 814.284 215.42 816.174 213.16 817.764C212.93 817.924 212.68 818.074 212.33 818.284C212.47 816.794 212.64 815.444 212.72 814.084C212.76 813.254 212.68 812.424 212.6 811.594C212.44 809.744 212.37 807.924 212.95 806.114C213.15 805.504 213.18 804.734 212.99 804.124C212.66 803.044 212.6 802.024 213.06 800.994C213.46 800.094 213.24 799.394 212.38 798.974C211.37 798.474 210.31 798.104 209.3 797.604C208.71 797.314 207.87 796.974 207.71 796.484C207.29 795.134 207.19 793.684 206.95 792.274C206.9 792.004 206.89 791.624 206.71 791.484C205.41 790.504 204.01 789.704 202.3 789.994C201.57 790.114 200.85 790.414 200.16 790.724C199.97 790.804 199.86 791.214 199.84 791.474C199.81 792.004 199.85 792.534 199.88 793.064C199.91 793.554 199.97 794.044 200.02 794.524C200.03 794.694 200.09 794.894 200.02 795.024C199.31 796.394 200.72 797.164 200.95 798.264C200.97 798.364 201.45 798.464 201.66 798.394C202.12 798.244 202.47 798.234 202.66 798.754C202.85 799.254 203.47 799.604 202.89 800.314C201.91 801.504 201.53 802.944 201.61 804.494C201.69 806.164 201.85 807.824 201.86 809.494C201.87 812.054 201.86 814.614 201.72 817.174C201.44 822.004 202.05 826.764 202.95 831.474C203.63 835.064 204.56 838.614 205.48 842.154C205.79 843.364 205.51 844.394 204.34 844.924C204.12 845.024 203.9 845.104 203.67 845.174C202.99 845.374 202.29 845.554 201.62 845.784C201.4 845.864 201.23 846.074 201.03 846.224C201.23 846.364 201.42 846.614 201.62 846.614C202.53 846.624 203.45 846.614 204.36 846.524C205.6 846.414 206.83 846.184 208.08 846.094C209.45 845.984 209.86 845.364 209.33 844.084C209.02 843.324 208.76 842.534 208.51 841.874C211.68 840.564 214.75 839.294 217.89 837.994C218.22 838.564 218.36 839.314 217.92 840.084C217.49 840.834 217.01 841.554 216.58 842.304C216.48 842.474 216.51 842.724 216.48 842.944C216.7 842.944 216.99 843.034 217.13 842.944C217.72 842.504 218.32 842.054 218.83 841.524C219.82 840.494 220.74 839.404 221.71 838.364C222.48 837.544 222.43 836.814 221.48 836.354C218.18 834.754 216.19 831.934 214.48 828.854C213.81 827.664 213.2 826.444 212.53 825.254C211.86 824.074 211.98 822.784 211.94 821.514C211.9 820.154 212.33 819.234 213.57 818.394C219.03 814.684 222.63 809.424 225.34 803.514C228.05 797.594 229.64 791.344 230.53 784.914C230.57 784.624 230.62 784.344 230.67 784.054C231.44 783.924 232.03 783.994 232.59 784.574C233.4 785.424 234.56 785.714 235.64 785.594C237.38 785.394 238.62 786.334 239.96 787.084C240.13 787.174 240.21 787.514 240.23 787.754C240.55 790.904 241.09 794.004 242.29 796.964C244.47 802.344 248.24 805.664 254.17 806.344C258.65 806.864 263.13 807.214 267.63 806.764C268.02 806.724 268.41 806.724 268.78 806.614C270.18 806.194 271.46 806.304 272.48 807.464C272.79 807.814 273.16 808.234 273.22 808.654C273.66 811.784 274.09 814.914 274.38 818.054C274.5 819.394 274.28 820.764 274.23 822.124C274.21 822.654 274.08 823.224 274.21 823.724C274.76 825.954 274.33 828.174 274.27 830.394C274.18 833.524 273.56 838.664 273.45 841.794C273.42 842.544 273.17 843.094 272.64 843.594C272.23 843.974 271.81 844.394 271.56 844.884C271.05 845.874 271.6 846.664 272.7 846.644C273.68 846.624 274.67 846.594 275.65 846.524C276.48 846.474 276.81 846.044 276.7 845.224C276.68 845.044 276.67 844.844 276.57 844.704C275.4 843.094 275.89 841.334 276.12 839.614C276.78 834.774 277.9 827.924 278.55 823.084C278.87 820.724 279.08 818.354 279.35 815.984C279.39 815.614 279.48 815.254 279.54 814.884L279.76 814.814L279.86 814.844Z" fill="#373534"/>
<path d="M774.789 657.64C774.269 658.71 773.729 660.02 773.299 661.55C772.739 663.54 772.519 665.32 772.439 666.75" fill="white"/>
<path d="M774.789 657.64C774.269 658.71 773.729 660.02 773.299 661.55C772.739 663.54 772.519 665.32 772.439 666.75" stroke="black" stroke-miterlimit="10" stroke-linecap="round"/>
<path d="M774.789 657.64C774.089 657.52 772.149 657.27 770.139 658.32C769.039 658.89 768.319 659.64 767.899 660.16" fill="white"/>
<path d="M774.789 657.64C774.089 657.52 772.149 657.27 770.139 658.32C769.039 658.89 768.319 659.64 767.899 660.16" stroke="black" stroke-miterlimit="10" stroke-linecap="round"/>
<path d="M1005.4 847.92C986.778 842.06 959.398 831.45 934.648 812.89C888.008 777.91 882.048 738.23 880.978 723.94" stroke="black" stroke-width="2" stroke-miterlimit="10"/>
<path d="M794.362 709.31C783.212 698.35 772.062 687.4 760.912 676.44C760.072 675.78 757.332 673.43 756.492 669.33C755.362 663.87 758.522 659.74 758.992 659.14C768.222 643.25 777.442 627.36 786.672 611.47L800.902 622.62C794.942 636.59 788.982 650.56 783.022 664.53C790.842 669.02 798.662 673.5 806.472 677.99C808.262 682.03 810.062 686.06 811.852 690.1C806.022 696.51 800.192 702.92 794.362 709.32V709.31Z" fill="#F2F2F2" stroke="black" stroke-miterlimit="10"/>
<path d="M906.059 711.61C910.499 708.51 917.119 703.04 922.739 694.38C926.819 688.1 929.069 682.15 930.359 677.7C925.609 674.41 918.169 670.08 908.239 667.36C895.879 663.98 885.299 664.66 879.049 665.55C879.289 682.59 879.529 699.64 879.779 716.68C888.539 714.99 897.309 713.3 906.069 711.6L906.059 711.61Z" fill="white" stroke="black" stroke-miterlimit="10"/>
<path d="M811.399 796.29C810.299 806.82 809.759 819.18 810.589 832.96C811.719 851.63 815.059 867.65 818.659 880.34H839.789C841.059 870.15 842.039 859.12 842.519 847.35C843.109 833.07 842.879 819.79 842.169 807.69" fill="#E6E6E6"/>
<path d="M811.399 796.29C810.299 806.82 809.759 819.18 810.589 832.96C811.719 851.63 815.059 867.65 818.659 880.34H839.789C841.059 870.15 842.039 859.12 842.519 847.35C843.109 833.07 842.879 819.79 842.169 807.69" stroke="black" stroke-miterlimit="10"/>
<path d="M842.859 831.5H810.509" stroke="black" stroke-miterlimit="10"/>
<path d="M842.859 842.35H811.509" stroke="black" stroke-miterlimit="10"/>
<path d="M814.261 899.68H844.391C844.831 897.58 845.391 893.48 844.051 888.64C842.961 884.72 841.071 881.93 839.801 880.35H818.671C817.461 882.16 815.931 884.92 814.961 888.53C813.691 893.23 813.931 897.26 814.271 899.68H814.261Z" fill="#A79D96" stroke="black" stroke-miterlimit="10"/>
<path d="M883.082 794.48C883.972 805.66 884.252 818.621 883.192 832.961C881.842 851.341 878.642 867.321 875.122 880.341H853.992C852.722 870.151 851.742 859.12 851.262 847.35C850.672 833.07 850.902 819.79 851.612 807.69" fill="#E6E6E6"/>
<path d="M883.082 794.48C883.972 805.66 884.252 818.621 883.192 832.961C881.842 851.341 878.642 867.321 875.122 880.341H853.992C852.722 870.151 851.742 859.12 851.262 847.35C850.672 833.07 850.902 819.79 851.612 807.69" stroke="black" stroke-miterlimit="10"/>
<path d="M850.909 831.5H883.289" stroke="black" stroke-miterlimit="10"/>
<path d="M850.909 842.35H882.27" stroke="black" stroke-miterlimit="10"/>
<path d="M879.52 899.68H849.39C848.95 897.58 848.39 893.48 849.73 888.64C850.82 884.72 852.71 881.93 853.98 880.35H875.11C876.32 882.16 877.85 884.92 878.82 888.53C880.09 893.23 879.85 897.26 879.51 899.68H879.52Z" fill="#A79D96" stroke="black" stroke-miterlimit="10"/>
<path d="M805.33 652.67H888.65C892.295 652.67 895.25 655.625 895.25 659.27V681.95C895.25 685.595 892.295 688.55 888.65 688.55H805.33C801.685 688.55 798.73 685.595 798.73 681.95V659.27C798.73 655.625 801.685 652.67 805.33 652.67Z" fill="#A79D96" stroke="black" stroke-miterlimit="10"/>
<path d="M874.829 678.46H819.159C810.629 678.46 803.699 685.39 803.699 693.92V721.44H890.289V693.92C890.289 685.39 883.359 678.46 874.829 678.46Z" fill="#F2F2F2" stroke="black" stroke-miterlimit="10"/>
<path d="M829.302 714.62H864.692C875.45 714.62 884.172 723.342 884.172 734.1V788.36C884.172 799.119 875.45 807.84 864.692 807.84H829.302C818.543 807.84 809.822 799.119 809.822 788.36V734.1C809.822 723.342 818.543 714.62 829.302 714.62Z" fill="#A79D96" stroke="black" stroke-miterlimit="10"/>
<path d="M823.179 693.17H870.809C881.568 693.17 890.289 701.891 890.289 712.65V766.91C890.289 777.668 881.568 786.39 870.809 786.39H823.179C812.421 786.39 803.699 777.668 803.699 766.91V712.65C803.699 701.891 812.421 693.17 823.179 693.17Z" fill="#E6E6E6" stroke="black" stroke-miterlimit="10"/>
<path d="M858.88 731.84H835.11C828.01 731.84 822.24 737.61 822.24 744.71V768.64H871.75V744.71C871.75 737.61 865.98 731.84 858.88 731.84Z" fill="#C8C5C4" stroke="black" stroke-miterlimit="10"/>
<path d="M871.75 746.08H822.23" stroke="black" stroke-miterlimit="10"/>
<path d="M863.43 746.08H852.44V753.87C852.44 755.94 854.12 757.62 856.19 757.62H859.67C861.74 757.62 863.42 755.94 863.42 753.87V746.08H863.43Z" fill="#A79D96" stroke="black" stroke-miterlimit="10"/>
<path d="M841.531 746.08H830.541V753.87C830.541 755.94 832.221 757.62 834.291 757.62H837.771C839.841 757.62 841.521 755.94 841.521 753.87V746.08H841.531Z" fill="#A79D96" stroke="black" stroke-miterlimit="10"/>
<path d="M857.978 776.03H862.778C864.275 776.03 865.488 777.244 865.488 778.74V800.89C865.488 802.387 864.275 803.6 862.778 803.6H857.978C856.482 803.6 855.268 802.387 855.268 800.89V778.74C855.268 777.244 856.482 776.03 857.978 776.03Z" fill="#D9D9D9" stroke="black" stroke-miterlimit="10"/>
<path d="M860.378 783.96C859.125 783.96 858.108 782.944 858.108 781.69C858.108 780.436 859.125 779.42 860.378 779.42C861.632 779.42 862.648 780.436 862.648 781.69C862.648 782.944 861.632 783.96 860.378 783.96Z" fill="#A79D96" stroke="black" stroke-miterlimit="10"/>
<path d="M831.201 776.03H836.001C837.498 776.03 838.711 777.244 838.711 778.74V800.89C838.711 802.387 837.498 803.6 836.001 803.6H831.201C829.704 803.6 828.491 802.387 828.491 800.89V778.74C828.491 777.244 829.704 776.03 831.201 776.03Z" fill="#D9D9D9" stroke="black" stroke-miterlimit="10"/>
<path d="M833.601 783.96C832.347 783.96 831.331 782.944 831.331 781.69C831.331 780.436 832.347 779.42 833.601 779.42C834.855 779.42 835.871 780.436 835.871 781.69C835.871 782.944 834.855 783.96 833.601 783.96Z" fill="#A79D96" stroke="black" stroke-miterlimit="10"/>
<path d="M803.701 723.93V749.15C803.701 759.91 812.421 768.63 823.181 768.63H870.801C881.561 768.63 890.281 759.91 890.281 749.15V723.93" stroke="black" stroke-miterlimit="10"/>
<path d="M858.051 665.33H835.931C824.081 665.33 814.461 674.95 814.461 686.8V687.47C814.461 693.15 819.071 697.76 824.751 697.76H869.241C874.921 697.76 879.531 693.15 879.531 687.47V686.8C879.531 674.95 869.911 665.33 858.061 665.33H858.051Z" fill="#D6D6D6" stroke="black" stroke-miterlimit="10"/>
<path d="M846.99 690.47C842.064 690.47 838.07 686.476 838.07 681.55C838.07 676.623 842.064 672.63 846.99 672.63C851.917 672.63 855.91 676.623 855.91 681.55C855.91 686.476 851.917 690.47 846.99 690.47Z" fill="#A79D96" stroke="black" stroke-miterlimit="10"/>
<path d="M821.459 707.96H836.369C837.992 707.96 839.309 709.276 839.309 710.9V713.09C839.309 714.714 837.992 716.03 836.369 716.03H821.459C819.835 716.03 818.519 714.714 818.519 713.09V710.9C818.519 709.276 819.835 707.96 821.459 707.96Z" fill="#A79D96" stroke="black" stroke-miterlimit="10"/>
<path d="M826.621 684.5C826.621 683.23 827.648 682.2 828.916 682.2C830.183 682.2 831.211 683.23 831.211 684.5V710.84C831.211 712.11 830.183 713.14 828.916 713.14C827.648 713.14 826.621 712.11 826.621 710.84V684.5Z" fill="#A79D96" stroke="black" stroke-miterlimit="10"/>
<path d="M858.849 707.96H873.759C875.383 707.96 876.699 709.276 876.699 710.9V713.09C876.699 714.714 875.383 716.03 873.759 716.03H858.849C857.225 716.03 855.909 714.714 855.909 713.09V710.9C855.909 709.276 857.225 707.96 858.849 707.96Z" fill="#A79D96" stroke="black" stroke-miterlimit="10"/>
<path d="M864.012 684.5C864.012 683.23 865.039 682.2 866.307 682.2C867.574 682.2 868.602 683.23 868.602 684.5V710.84C868.602 712.11 867.574 713.14 866.307 713.14C865.039 713.14 864.012 712.11 864.012 710.84V684.5Z" fill="#A79D96" stroke="black" stroke-miterlimit="10"/>
<path d="M803.699 714.62H791.419C787.719 714.62 784.709 717.63 784.709 721.33V752.1C784.709 758.78 790.129 764.2 796.809 764.2H803.689V714.61L803.699 714.62Z" fill="#F2F2F2" stroke="black" stroke-miterlimit="10"/>
<path d="M803.701 696.78H798.321C794.521 696.78 791.431 699.87 791.431 703.67V714.62H803.711V696.78H803.701Z" fill="#A79D96" stroke="black" stroke-miterlimit="10"/>
<path d="M904.759 707.96H890.289V732.59H900.469C904.559 732.59 907.879 729.27 907.879 725.18V711.09C907.879 709.37 906.479 707.97 904.759 707.97V707.96Z" fill="#D6D6D6" stroke="black" stroke-miterlimit="10"/>
<path d="M890.289 729.76H899.699V739.17H890.289V729.76Z" fill="#D6D6D6" stroke="black" stroke-miterlimit="10"/>
<path d="M904.651 738.09H890.29V760.78H900.201C903.811 760.78 906.73 757.85 906.73 754.25V740.17C906.73 739.02 905.801 738.09 904.651 738.09Z" fill="#D6D6D6" stroke="black" stroke-miterlimit="10"/>
<path d="M920.449 697.67C920.909 698.63 922.699 702.62 921.289 707.47C920.009 711.88 916.889 714.26 915.609 715.12C912.399 717.26 909.199 717.48 907.889 717.5C907.859 715.12 907.829 712.74 907.799 710.35C909.959 708.42 912.119 706.5 914.289 704.57C916.349 702.27 918.399 699.97 920.459 697.67H920.449Z" fill="#F2F2F2" stroke="black" stroke-miterlimit="10"/>
<path d="M809.821 639.7H885.391V652.67H809.821V639.7Z" fill="#F2F2F2" stroke="black" stroke-miterlimit="10"/>
<path d="M808.992 632.19H886.012V639.71H808.992V632.19Z" fill="#F2F2F2" stroke="black" stroke-miterlimit="10"/>
<path d="M880.352 639.7V652.67" stroke="black" stroke-miterlimit="10"/>
<path d="M875.34 639.7V652.67" stroke="black" stroke-miterlimit="10"/>
<path d="M870.32 639.7V652.67" stroke="black" stroke-miterlimit="10"/>
<path d="M865.309 639.7V652.67" stroke="black" stroke-miterlimit="10"/>
<path d="M860.301 639.7V652.67" stroke="black" stroke-miterlimit="10"/>
<path d="M855.281 639.7V652.67" stroke="black" stroke-miterlimit="10"/>
<path d="M850.27 639.7V652.67" stroke="black" stroke-miterlimit="10"/>
<path d="M845.25 639.7V652.67" stroke="black" stroke-miterlimit="10"/>
<path d="M840.238 639.7V652.67" stroke="black" stroke-miterlimit="10"/>
<path d="M835.23 639.7V652.67" stroke="black" stroke-miterlimit="10"/>
<path d="M830.211 639.7V652.67" stroke="black" stroke-miterlimit="10"/>
<path d="M825.199 639.7V652.67" stroke="black" stroke-miterlimit="10"/>
<path d="M820.191 639.7V652.67" stroke="black" stroke-miterlimit="10"/>
<path d="M815.172 639.7V652.67" stroke="black" stroke-miterlimit="10"/>
<path d="M861.34 639.7V632.19" stroke="black" stroke-miterlimit="10"/>
<path d="M833.66 639.7V632.19" stroke="black" stroke-miterlimit="10"/>
<path d="M846.989 601.5C842.946 601.5 839.669 599.011 839.669 595.94C839.669 592.869 842.946 590.38 846.989 590.38C851.031 590.38 854.309 592.869 854.309 595.94C854.309 599.011 851.031 601.5 846.989 601.5Z" fill="#F2F2F2" stroke="black" stroke-miterlimit="10"/>
<path d="M885.898 632.19C885.898 612.1 868.538 595.58 847.438 595.58C826.338 595.58 808.978 612.11 808.978 632.19H885.898Z" fill="#D6D6D6" stroke="black" stroke-miterlimit="10"/>
<path d="M861.578 632.19C861.578 624.42 855.188 618.03 847.418 618.03C839.648 618.03 833.258 624.42 833.258 632.19H861.568H861.578Z" fill="#7D736B" stroke="black" stroke-miterlimit="10"/>
<path d="M846.949 595.58C844.029 596.44 834.539 599.63 827.569 609.32C820.559 619.07 820.599 629.16 820.729 632.19" fill="#D6D6D6"/>
<path d="M846.949 595.58C844.029 596.44 834.539 599.63 827.569 609.32C820.559 619.07 820.599 629.16 820.729 632.19" stroke="black" stroke-miterlimit="10"/>
<path d="M847.181 595.58C850.051 596.47 861.811 600.46 868.721 612.66C873.331 620.8 873.541 628.61 873.401 632.19" fill="#D6D6D6"/>
<path d="M847.181 595.58C850.051 596.47 861.811 600.46 868.721 612.66C873.331 620.8 873.541 628.61 873.401 632.19" stroke="black" stroke-miterlimit="10"/>
<path d="M846.949 595.58V618.06" stroke="black" stroke-miterlimit="10"/>
<path d="M799.529 621.54C803.759 619.59 807.999 617.64 812.229 615.69C814.539 612 816 611.5 819 607.5L803.879 603.43C802.149 603.09 801.919 600.7 803.549 600.03C806.069 598.99 808.599 597.96 811.119 596.92C812.209 596.47 813.429 596.44 814.539 596.84C818.689 598.31 822.849 599.78 826.999 601.25C828.219 600.51 829.629 599.76 831.209 599.04C833.259 598.12 835.189 597.47 836.879 597C828.919 593.48 820.949 589.96 812.989 586.43C809.799 585.02 806.139 585.09 803.029 586.68C798.759 588.87 793.189 592.92 790.239 599.97C788.029 605.24 788.159 610.1 788.479 612.88" fill="white"/>
<path d="M799.529 621.54C803.759 619.59 807.999 617.64 812.229 615.69C814.539 612 816 611.5 819 607.5L803.879 603.43C802.149 603.09 801.919 600.7 803.549 600.03C806.069 598.99 808.599 597.96 811.119 596.92C812.209 596.47 813.429 596.44 814.539 596.84C818.689 598.31 822.849 599.78 826.999 601.25C828.219 600.51 829.629 599.76 831.209 599.04C833.259 598.12 835.189 597.47 836.879 597C828.919 593.48 820.949 589.96 812.989 586.43C809.799 585.02 806.139 585.09 803.029 586.68C798.759 588.87 793.189 592.92 790.239 599.97C788.029 605.24 788.159 610.1 788.479 612.88" stroke="black" stroke-miterlimit="10"/>
<path d="M1070.58 879.25C1073.04 877.76 1076.32 876.39 1080.01 876.8C1083.69 877.22 1085.72 879.18 1087.46 878.08C1089.08 877.05 1089.66 873.87 1088.51 871.91C1088.11 871.24 1087.02 869.87 1076.05 869.23C1068.66 868.8 1066.85 869.28 1065.92 869.58C1062.32 870.72 1059.85 872.83 1058.47 874.24C1062.51 875.91 1066.54 877.58 1070.58 879.25Z" fill="#F2F2F2" stroke="black" stroke-miterlimit="10"/>
<path d="M1045.46 869.13C1047.2 868.99 1049.71 868.67 1052.61 867.81C1056.79 866.57 1060.1 865.6 1060.75 863.41C1061.44 861.1 1058.83 858.51 1054.37 854.17C1047.55 847.54 1046.17 848.48 1043.49 844.71C1039.18 838.66 1041.83 834.99 1037.55 831.08C1034.38 828.18 1030.35 827.84 1025.79 827.45C1020.66 827.01 1015.67 826.59 1013.04 829.87C1010.17 833.45 1012.04 839.03 1012.38 839.99C1017.91 847.14 1023.45 854.28 1028.98 861.43C1034.48 864 1039.97 866.56 1045.47 869.13H1045.46Z" fill="#A79D96" stroke="black" stroke-miterlimit="10"/>
<path d="M1071.51 888.33C1070.34 889.71 1068.7 891.11 1066.54 891.57C1062.75 892.38 1060.62 889.64 1055.15 889.05C1052.22 888.73 1051.6 889.38 1047.65 889.7C1044.35 889.97 1039.51 889.94 1033.38 888.4C1032.68 883.67 1031.99 878.93 1031.29 874.2C1030.16 870.35 1029.03 866.51 1027.9 862.66C1037.8 867.15 1047.7 871.65 1057.6 876.14C1062.24 880.2 1066.88 884.26 1071.51 888.32V888.33Z" fill="#E6E6E6" stroke="black" stroke-miterlimit="10"/>
<path d="M1030.1 862.21C1034.15 863.53 1037.46 864.76 1039.85 865.68C1046.36 868.19 1047.81 869.15 1051.66 870.01C1056.99 871.2 1058 870.21 1061.52 871.09C1064.9 871.94 1069.56 874.27 1074.3 881.17C1076.54 881.87 1079.16 882.5 1082.1 882.9C1088.08 883.71 1093.25 883.25 1097.05 882.57C1098.52 883.27 1100.97 884.66 1100.95 886.36C1100.92 889.09 1094.6 890.91 1092.72 891.45C1090.35 892.13 1076.61 895.79 1063.9 888.09C1059.49 885.42 1059.46 883.95 1053.9 880.89C1048.67 878 1043.83 876.62 1040.48 875.89" fill="#E6E6E6"/>
<path d="M1030.1 862.21C1034.15 863.53 1037.46 864.76 1039.85 865.68C1046.36 868.19 1047.81 869.15 1051.66 870.01C1056.99 871.2 1058 870.21 1061.52 871.09C1064.9 871.94 1069.56 874.27 1074.3 881.17C1076.54 881.87 1079.16 882.5 1082.1 882.9C1088.08 883.71 1093.25 883.25 1097.05 882.57C1098.52 883.27 1100.97 884.66 1100.95 886.36C1100.92 889.09 1094.6 890.91 1092.72 891.45C1090.35 892.13 1076.61 895.79 1063.9 888.09C1059.49 885.42 1059.46 883.95 1053.9 880.89C1048.67 878 1043.83 876.62 1040.48 875.89" stroke="black" stroke-miterlimit="10"/>
<path d="M1034.41 886.55C1034.22 877.37 1034.03 868.2 1033.84 859.02C1033.72 856.95 1032.97 847.4 1025.42 841.48C1017.38 835.17 1007.36 837.46 1001.6 838.77C997.55 839.69 986.75 842.16 980.49 852.18C979.25 854.16 975.27 860.53 976.5 868.58C978.51 881.75 992.66 887.55 994.76 888.41C1000.72 890.85 1006.14 890.96 1009.39 890.77C1013.09 890.69 1016.79 890.6 1020.49 890.52C1025.13 889.2 1029.77 887.88 1034.41 886.56V886.55Z" fill="#F2F2F2" stroke="black" stroke-miterlimit="10"/>
<path d="M1026.07 881.89C1027.66 881.72 1029.99 881.69 1032.6 882.48C1038.63 884.29 1041.71 889.08 1042.56 890.51H1015.67C1016.96 887.02 1018.26 883.54 1019.55 880.05" fill="#F2F2F2"/>
<path d="M1026.07 881.89C1027.66 881.72 1029.99 881.69 1032.6 882.48C1038.63 884.29 1041.71 889.08 1042.56 890.51H1015.67C1016.96 887.02 1018.26 883.54 1019.55 880.05" stroke="black" stroke-miterlimit="10"/>
<path d="M1027.82 883.38C1029.54 879.77 1029.15 876.2 1027.31 874.88C1025.54 873.61 1022.87 874.72 1020.75 875.6C1018.84 876.39 1015.78 877.66 1014.91 880.72C1014.81 881.08 1014.19 883.25 1015.32 885.02C1017.41 888.31 1024.11 888.15 1026.8 885.12C1027.37 884.47 1027.67 883.8 1027.82 883.38Z" fill="black" stroke="black" stroke-miterlimit="10"/>
<path d="M997.809 839.74C997.499 841.81 996.579 849.67 1001.58 856.98C1002.21 857.9 1005.13 862.02 1010.65 864.73C1021.27 869.94 1032.12 865.28 1033.95 864.46" fill="#F2F2F2"/>
<path d="M997.809 839.74C997.499 841.81 996.579 849.67 1001.58 856.98C1002.21 857.9 1005.13 862.02 1010.65 864.73C1021.27 869.94 1032.12 865.28 1033.95 864.46" stroke="black" stroke-miterlimit="10"/>
<path d="M992.621 861.84V873.82" stroke="black" stroke-width="2" stroke-miterlimit="10" stroke-linecap="round"/>
<path d="M986.248 867.83H998.238" stroke="black" stroke-width="2" stroke-miterlimit="10" stroke-linecap="round"/>
<path d="M1016.9 845.55V857.53" stroke="black" stroke-width="2" stroke-miterlimit="10" stroke-linecap="round"/>
<path d="M1010.53 851.54H1022.52" stroke="black" stroke-width="2" stroke-miterlimit="10" stroke-linecap="round"/>
<path d="M987.328 881.92C986.178 883.85 983.148 888.31 977.368 890.88C974.398 892.2 971.668 892.59 969.768 892.69C965.978 895.59 960.638 895.39 957.098 892.24C953.598 889.13 952.758 883.92 955.108 879.84C957.798 878.26 965.388 873.33 969.498 863.45C972.548 856.12 972.228 849.55 971.848 846.34C974.668 842.78 979.538 842.06 982.708 844.26C985.148 845.95 986.338 849.18 985.698 852.41C985.248 860.83 984.788 869.25 984.338 877.67C985.338 879.09 986.328 880.51 987.328 881.93V881.92Z" fill="#A79D96" stroke="black" stroke-miterlimit="10"/>
<path d="M913.59 511.75L887.74 549.49C884.63 554.02 885.78 560.22 890.32 563.32L913.89 579.47C913.89 579.47 913.88 579.56 913.88 579.6L912.97 591.37C912.68 595.12 916.57 597.78 919.96 596.16L930.62 591.06C930.62 591.06 930.7 591.02 930.73 590.99L950.83 604.76C955.36 607.87 961.55 606.7 964.66 602.17L990.51 564.43C993.62 559.9 992.47 553.7 987.93 550.6L927.43 509.15C922.9 506.04 916.71 507.21 913.6 511.74L913.59 511.75Z" fill="#D6D6D6" stroke="#373534" stroke-miterlimit="10"/>
<path d="M948.741 571.81C950.241 569.62 951.181 567.72 951.551 566.12C951.921 564.52 951.871 562.87 951.401 561.18C950.931 559.49 950.671 558.06 950.621 556.89C950.571 555.72 950.871 554.67 951.501 553.74C953.051 551.48 954.801 551.01 956.751 552.35C957.651 552.97 958.151 553.79 958.251 554.83C958.351 555.87 958.031 556.96 957.291 558.11L964.891 563.32C966.911 560.3 967.571 557.32 966.861 554.37C966.151 551.42 964.111 548.8 960.751 546.5C957.391 544.2 954.291 543.21 951.391 543.49C948.491 543.77 946.071 545.34 944.121 548.19C943.271 549.43 942.741 550.74 942.541 552.09C942.341 553.44 942.421 555.03 942.781 556.85L943.721 561.03C943.971 562.24 943.991 563.31 943.761 564.25C943.531 565.19 943.051 566.24 942.301 567.4L948.731 571.81H948.741ZM944.981 579.28C945.741 578.17 945.961 576.99 945.651 575.72C945.341 574.45 944.581 573.42 943.381 572.6C942.181 571.78 940.941 571.45 939.651 571.61C938.361 571.77 937.341 572.41 936.581 573.52C935.821 574.63 935.601 575.81 935.911 577.08C936.221 578.35 936.981 579.38 938.181 580.2C939.381 581.02 940.621 581.35 941.911 581.19C943.201 581.03 944.221 580.39 944.981 579.28Z" fill="#373534"/>
<path d="M917.919 561.789C918.879 560.849 919.329 559.73 919.269 558.43C919.209 557.13 918.669 555.959 917.659 554.919C916.649 553.879 915.489 553.309 914.189 553.219C912.889 553.129 911.759 553.55 910.799 554.49C909.839 555.43 909.389 556.549 909.449 557.849C909.509 559.149 910.049 560.319 911.059 561.359C912.069 562.399 913.229 562.97 914.529 563.06C915.829 563.15 916.959 562.729 917.919 561.789ZM917.769 549.53L922.959 554.859L943.199 536.78L936.369 529.77L917.759 549.53H917.769Z" fill="#373534"/>
<path d="M1222.58 842.03C1226.88 839.31 1231.17 836.58 1235.47 833.86V626.85C1235.47 623.85 1233.03 621.41 1230.03 621.41H1228.02C1225.02 621.41 1222.58 623.85 1222.58 626.85V842.03Z" fill="#F2F2F2" stroke="black" stroke-miterlimit="10"/>
<path d="M1155.76 716.26L1183.88 723.849C1184.42 723.999 1185 724.019 1185.56 723.909L1267.28 708.96C1271.81 708.13 1274.92 704.32 1274.21 700.44L1271.23 684.15C1270.52 680.27 1266.27 677.81 1261.74 678.64L1180.02 693.59C1179.45 693.69 1178.92 693.92 1178.47 694.25L1154.86 711.31C1152.79 712.81 1153.3 715.6 1155.77 716.27L1155.76 716.26Z" fill="#E6E6E6" stroke="black" stroke-miterlimit="10"/>
<path d="M1163.12 663.14L1186.93 679.92C1187.39 680.24 1187.92 680.46 1188.49 680.56L1245.33 690.27C1249.87 691.05 1254.1 688.53 1254.76 684.64L1257.55 668.31C1258.21 664.43 1255.07 660.65 1250.52 659.87L1193.68 650.16C1193.11 650.06 1192.53 650.09 1192 650.24L1163.97 658.16C1161.51 658.86 1161.03 661.66 1163.12 663.13V663.14Z" fill="#D6D6D6" stroke="black" stroke-miterlimit="10"/>
<path d="M1306.12 730.6L1279.83 715.94C1279.33 715.66 1278.76 715.51 1278.18 715.51H1195.1C1190.49 715.51 1186.75 719.25 1186.75 723.86V743.25C1186.75 747.86 1190.49 751.6 1195.1 751.6H1278.18C1278.76 751.6 1279.32 751.45 1279.83 751.17L1306.12 736.51C1308.43 735.22 1308.43 731.9 1306.12 730.61V730.6Z" fill="#F2F2F2" stroke="black" stroke-miterlimit="10"/>
<path d="M1164.22 780.99L1186.84 782.11C1187.27 782.13 1187.7 782.04 1188.09 781.85L1246.93 752.76C1250.04 751.22 1251.31 747.46 1249.78 744.35L1243.32 731.28C1241.78 728.17 1238.02 726.9 1234.91 728.43L1176.07 757.52C1175.68 757.71 1175.35 758 1175.1 758.36L1162.26 777.01C1161.13 778.65 1162.24 780.89 1164.23 780.99H1164.22Z" fill="#A79D96" stroke="black" stroke-miterlimit="10"/>
</svg>
