<?xml version="1.0" encoding="UTF-8"?>
<svg xmlns="http://www.w3.org/2000/svg" width="38" height="38" viewBox="0 0 38 38" fill="none">
  <circle opacity="0.5" cx="18.75" cy="19.25" r="18" stroke="#373534" stroke-width="1.5"></circle>
  <path d="M25.7568 21.1641C25.7568 20.8696 25.737 20.5758 25.7221 20.2812C25.7007 19.8439 25.5117 19.4726 25.2295 19.1557C24.7708 18.6384 24.175 18.3925 23.4918 18.3908C20.4677 18.3842 17.4444 18.3884 14.4202 18.3867C14.1405 18.3867 13.8657 18.4057 13.5943 18.4808C13.0967 18.6194 12.6957 18.895 12.3912 19.3109C12.114 19.6921 11.996 20.1137 12.0001 20.5915C12.0141 22.165 12.0034 23.7386 12.0075 25.3121C12.0075 25.5027 12.024 25.6991 12.0686 25.8839C12.1792 26.3427 12.4284 26.7157 12.8054 27.0053C13.1941 27.3048 13.6223 27.4954 14.1174 27.4962C15.7 27.4995 17.2826 27.4979 18.8653 27.4979V27.4995C20.3703 27.4995 21.8754 27.4987 23.3804 27.4995C23.6997 27.4995 24.0092 27.4682 24.3136 27.3518C24.7576 27.1827 25.1198 26.9137 25.3896 26.5275C25.6413 26.1678 25.7576 25.761 25.7576 25.322C25.7576 23.9358 25.7601 22.5487 25.756 21.1625L25.7568 21.1641ZM14.8708 25.9054H13.9227V20.787H12.9738V20.0246H16.0103V20.7788H14.8708V25.9054ZM18.3025 25.8988H17.5401V25.4086C17.3965 25.5299 17.2694 25.6735 17.111 25.7618C16.809 25.9293 16.4856 26.0448 16.139 25.8724C15.9187 25.7626 15.8518 25.5514 15.8494 25.3369C15.8353 24.2666 15.837 23.1956 15.8337 22.1246C15.8337 21.9381 15.8337 21.7508 15.8337 21.5536H16.781V21.6873C16.7826 22.5396 16.7851 23.392 16.7859 24.2444C16.7859 24.4449 16.7777 24.6454 16.776 24.8459C16.7744 25.0637 16.8643 25.1867 17.0235 25.1875C17.2075 25.1892 17.3503 25.0365 17.3503 24.8385C17.3511 23.7856 17.3519 22.7327 17.3528 21.6798C17.3528 21.6394 17.3528 21.5998 17.3528 21.5511H18.3033V25.8979L18.3025 25.8988ZM21.3662 24.5653C21.3539 24.9127 21.3448 25.2626 21.1624 25.5893C20.9685 25.9376 20.5741 26.006 20.2738 25.8658C20.0832 25.7775 19.9132 25.6438 19.7217 25.5217C19.7069 25.6001 19.683 25.6801 19.678 25.761C19.6731 25.8402 19.65 25.8748 19.565 25.8732C19.3422 25.8691 19.1194 25.8715 18.8884 25.8715V20.0197H19.8125C19.8199 20.0279 19.8274 20.0353 19.8348 20.0428V21.6889C19.9041 21.6468 19.9619 21.6122 20.0196 21.5751C20.2556 21.4232 20.5081 21.3432 20.7895 21.4125C21.0337 21.4727 21.273 21.7434 21.3151 22.0479C21.3506 22.3094 21.3646 22.5768 21.3679 22.8408C21.3761 23.4151 21.386 23.9902 21.3662 24.5645V24.5653ZM22.7236 24.9532C22.7302 25.1256 22.9068 25.2626 23.0858 25.2675C23.1708 25.27 23.2624 25.275 23.3408 25.2502C23.5669 25.1801 23.642 25.0646 23.6436 24.822C23.6436 24.6817 23.6436 24.5406 23.6436 24.3904H24.3409C24.4993 25.0365 24.2014 25.6974 23.524 25.9202C23.1098 26.0564 22.5899 25.8872 22.3119 25.544C22.0528 25.2238 21.9488 24.8591 21.9488 24.4556C21.9488 23.8632 21.9306 23.2699 21.9521 22.6783C21.9686 22.2137 22.0775 21.7714 22.5107 21.4942C22.8069 21.3044 23.1279 21.2697 23.4736 21.3226C23.6543 21.3498 23.8153 21.4009 23.9638 21.5C24.1692 21.6369 24.2856 21.8284 24.2988 22.0751C24.3301 22.6527 24.3565 23.2303 24.3862 23.8227H22.7178C22.7178 24.2089 22.7079 24.581 22.7219 24.9532H22.7236Z" fill="#FF0000"></path>
  <path d="M17.5295 11C17.4313 11.2459 17.3389 11.4745 17.2473 11.7038C16.9569 12.4316 16.6656 13.1602 16.3785 13.8896C16.3545 13.9507 16.3446 14.0208 16.3446 14.0868C16.3422 15.1587 16.343 16.2297 16.343 17.3016V17.4509H15.338V17.295C15.338 16.2462 15.3429 15.1975 15.3314 14.1487C15.3297 13.9911 15.2645 13.8269 15.2027 13.6776C14.8421 12.8153 14.4732 11.9555 14.1085 11.0957C14.0986 11.0718 14.0961 11.0446 14.0879 11.0091H15.1556C15.3636 11.7261 15.574 12.4506 15.7844 13.1751C15.7926 13.1734 15.8009 13.1718 15.8083 13.1701C16.0039 12.4852 16.1978 11.8004 16.3975 11.1172C16.4107 11.0726 16.4626 11.0066 16.4981 11.0058C16.8348 10.9975 17.1714 11.0008 17.5304 11.0008L17.5295 11Z" fill="#FF0000"></path>
  <path d="M19.9455 13.8307C19.9339 13.5089 19.82 13.2086 19.5948 12.971C19.2548 12.612 18.8142 12.5906 18.3604 12.6417C18.159 12.6648 17.9891 12.768 17.8521 12.9091C17.5658 13.2036 17.4709 13.5832 17.4618 13.9751C17.4461 14.6674 17.4552 15.3606 17.4618 16.0528C17.4635 16.2311 17.4791 16.4118 17.5179 16.5851C17.5946 16.9234 17.7514 17.2204 18.0963 17.3516C18.2713 17.4184 18.4643 17.4366 18.6492 17.477C19.3241 17.4927 19.7342 17.1214 19.872 16.5653C19.9463 16.2641 19.962 15.9439 19.9661 15.6312C19.9743 15.0313 19.9661 14.4314 19.9446 13.8316L19.9455 13.8307ZM19.1269 16.2443C19.1228 16.5091 18.9809 16.6205 18.8093 16.6849C18.537 16.7872 18.2894 16.5149 18.2853 16.2897C18.277 15.8705 18.2828 15.4513 18.2828 15.0313C18.2828 14.6171 18.2828 14.2021 18.2828 13.787C18.2828 13.6096 18.4569 13.3926 18.6186 13.367C18.8266 13.334 19.0337 13.4578 19.0947 13.6542C19.1121 13.7086 19.1286 13.7664 19.1294 13.8233C19.1319 14.6303 19.1385 15.4373 19.1269 16.2443Z" fill="#FF0000"></path>
  <path d="M22.9809 12.7946V17.3114H21.9239V17.0598C21.7968 17.153 21.6788 17.2611 21.5427 17.3354C21.2605 17.4888 20.8743 17.3766 20.7349 17.0903C20.6556 16.9269 20.5847 16.7388 20.583 16.5614C20.5698 15.3443 20.5756 14.1264 20.5748 12.9093V12.793H21.4239C21.4313 12.802 21.4387 12.8103 21.4461 12.8194C21.4478 13.9548 21.4486 15.0902 21.4511 16.2255C21.4511 16.3006 21.4511 16.3815 21.4775 16.45C21.541 16.6167 21.6549 16.6711 21.8554 16.6521C21.9759 16.6406 22.1087 16.516 22.1343 16.3815C22.1458 16.3196 22.1483 16.2552 22.1491 16.1917C22.1491 15.1108 22.1491 14.0299 22.1491 12.9497V12.7946H22.9792H22.9809Z" fill="#FF0000"></path>
  <path d="M20.659 24.8039C20.6574 25.0251 20.5055 25.1893 20.2101 25.1893C20.0179 25.1893 19.8182 25.0432 19.8223 24.7982C19.8298 24.3749 19.8248 23.9507 19.8248 23.5275H19.8273C19.8273 23.1132 19.8256 22.6982 19.8281 22.284C19.8281 22.1396 19.9469 21.977 20.0839 21.9679C20.2085 21.9589 20.3413 21.9795 20.461 22.0183C20.6062 22.0661 20.6607 22.1965 20.6607 22.3442C20.6615 23.1644 20.6648 23.9846 20.659 24.8048V24.8039Z" fill="#FF0000"></path>
  <path d="M23.6443 23.0692H22.7012C22.7152 22.8506 22.7119 22.6336 22.7474 22.424C22.7928 22.1558 23.1954 22.0312 23.4487 22.188C23.5684 22.2623 23.6303 22.3753 23.6402 22.504C23.655 22.6888 23.6443 22.8753 23.6443 23.0692Z" fill="#FF0000"></path>
</svg>
