<svg width="22" height="19" viewBox="0 0 22 19" fill="none" xmlns="http://www.w3.org/2000/svg">
<path d="M6.37701 11.2782L6.37704 11.2809L6.37703 13.8341V13.8354H6.07703C6.07764 13.9026 6.06462 13.9693 6.03871 14.0315C6.01279 14.0938 5.9745 14.1505 5.92604 14.1982C5.87758 14.246 5.81991 14.2839 5.75637 14.3097C5.69282 14.3356 5.62466 14.3489 5.55582 14.3489C5.48698 14.3489 5.41882 14.3356 5.35527 14.3097C5.29173 14.2839 5.23406 14.246 5.1856 14.1982C5.13714 14.1505 5.09885 14.0938 5.07293 14.0315C5.04702 13.9693 5.034 13.9026 5.03461 13.8354L6.37701 11.2782ZM6.37701 11.2782C6.37503 11.0626 6.28588 10.858 6.13135 10.7084C5.97706 10.5591 5.77009 10.4765 5.55582 10.4765C5.34155 10.4765 5.13458 10.5591 4.98029 10.7084C4.82576 10.858 4.73661 11.0626 4.73463 11.2782H4.73461V11.2809V13.8342L6.37701 11.2782ZM0.3 15.6982C0.922387 15.441 1.45623 15.0121 1.83541 14.4624C2.223 13.9004 2.43122 13.2378 2.43271 12.5588L2.4327 12.5575C2.43115 11.8785 2.22291 11.216 1.83532 10.6541C1.45615 10.1044 0.922341 9.67551 0.3 9.41832V7.42376C0.300136 7.27504 0.360486 7.13094 0.470241 7.02336C0.580261 6.91552 0.731009 6.85338 0.889897 6.85269L0.891422 6.85268L0.894352 6.85265H4.73461V9.14185V9.14305H5.03461C5.034 9.21028 5.04702 9.27695 5.07293 9.33923C5.09885 9.40151 5.13714 9.45816 5.1856 9.50591C5.23406 9.55366 5.29173 9.59156 5.35527 9.61743C5.41882 9.64329 5.48698 9.65661 5.55582 9.65661C5.62466 9.65661 5.69282 9.64329 5.75637 9.61743C5.81991 9.59156 5.87758 9.55366 5.92604 9.50591C5.9745 9.45816 6.01279 9.40151 6.03871 9.33923C6.06462 9.27695 6.07764 9.21028 6.07703 9.14305L0.3 15.6982ZM0.3 15.6982L0.3 17.6925C0.300115 17.8417 0.360759 17.9862 0.471015 18.0939C0.581512 18.2018 0.732837 18.2638 0.892134 18.2639H4.73461V15.9745V15.9733H5.03461M0.3 15.6982L6.37703 6.85265M6.37703 6.85265V9.14179V6.85265ZM6.37703 6.85265H20.6753C20.8346 6.85272 20.9859 6.91461 21.0964 7.02252C21.2067 7.13019 21.2673 7.27467 21.2674 7.42379V9.41826C20.6442 9.67432 20.1095 10.1029 19.7301 10.6529C19.3421 11.2154 19.1344 11.8788 19.1344 12.5583C19.1344 13.2379 19.3421 13.9013 19.7301 14.4638C20.1095 15.0138 20.6442 15.4424 21.2674 15.6984V17.6927C21.2673 17.8418 21.2067 17.9863 21.0964 18.094C20.9859 18.202 20.8346 18.2639 20.6753 18.264H6.37703V15.9745V15.9733H6.07703M6.07703 15.9733C6.07764 15.9061 6.06462 15.8394 6.03871 15.7771C6.01279 15.7148 5.9745 15.6582 5.92604 15.6104C5.87758 15.5627 5.81991 15.5248 5.75637 15.4989C5.69282 15.473 5.62466 15.4597 5.55582 15.4597C5.48698 15.4597 5.41882 15.473 5.35527 15.4989C5.29173 15.5248 5.23406 15.5627 5.1856 15.6104C5.13714 15.6582 5.09885 15.7148 5.07293 15.7771C5.04702 15.8394 5.034 15.9061 5.03461 15.9733M6.07703 15.9733V18.264V15.9733ZM5.03461 15.9733V18.2639V15.9733ZM21.5674 15.495V17.6928C21.5673 17.9238 21.4733 18.1453 21.306 18.3087C21.1388 18.472 20.912 18.5638 20.6755 18.564H6.37703V6.55265H20.6755C20.912 6.55276 21.1388 6.64456 21.306 6.80788C21.4733 6.97121 21.5673 7.19269 21.5674 7.42366V9.62171M21.5674 15.495L21.4197 15.4364M21.5674 15.495H21.3965M21.5674 15.495L21.4568 15.7738L21.3093 15.7153L21.3965 15.495M21.4197 15.4364C20.833 15.2041 20.3307 14.8061 19.977 14.2934C19.6233 13.7807 19.4344 13.1765 19.4344 12.5583C19.4344 11.9402 19.6233 11.336 19.977 10.8233C20.3307 10.3106 20.833 9.91258 21.4197 9.68029M21.4197 15.4364L21.3965 15.495M21.4197 15.4364L21.3965 15.495H21.3965M21.4197 9.68029L21.5674 9.62171M21.4197 9.68029L21.3965 9.62171M21.4197 9.68029L21.3965 9.62171H21.3965M21.5674 9.62171H21.3965M21.5674 9.62171L21.4568 9.34286L21.3093 9.40136C21.3092 9.40138 21.3092 9.40141 21.3091 9.40143C21.3091 9.40143 21.3091 9.40143 21.3091 9.40144L21.3965 9.62171M20.3761 3.78549C20.1844 4.24481 20.0969 4.73924 20.1195 5.23461H5.69108L19.8041 0.333273C19.8043 0.333236 19.8044 0.333199 19.8045 0.333162C19.9541 0.281817 20.1186 0.290413 20.2615 0.356738C20.4042 0.422987 20.5121 0.540565 20.564 0.681741C20.5641 0.681803 20.5641 0.681865 20.5641 0.681927L21.2477 2.55843C20.869 2.89933 20.5711 3.31815 20.3761 3.78549Z" fill="#CEA56A" stroke="#373534" stroke-width="0.6"/>
</svg>
