<?xml version="1.0" encoding="UTF-8"?>
<svg xmlns="http://www.w3.org/2000/svg" width="130" height="33" viewBox="0 0 130 33" fill="none">
  <rect width="129.869" height="33" rx="4" fill="url(#paint0_linear_2601_5312)"></rect>
  <path d="M17.0331 19.2985C16.6911 17.0752 16.349 14.8519 16.007 12.6285C15.9311 12.1357 16.4919 11.7995 16.8908 12.0987C17.9565 12.898 19.0221 13.6972 20.0878 14.4964C20.4387 14.7596 20.9385 14.674 21.1818 14.309L23.8433 10.3167C24.1246 9.89477 24.7445 9.89477 25.0258 10.3167L27.6873 14.309C27.9306 14.674 28.4305 14.7595 28.7813 14.4964C29.847 13.6972 30.9126 12.898 31.9783 12.0987C32.3772 11.7995 32.938 12.1357 32.8622 12.6285C32.5202 14.8519 32.1781 17.0752 31.8361 19.2985H17.0331Z" fill="black"></path>
  <path d="M31.0648 22.9998H17.8055C17.3792 22.9998 17.0337 22.6543 17.0337 22.2281V20.5327H31.8366V22.2281C31.8366 22.6543 31.4911 22.9998 31.0648 22.9998Z" fill="black"></path>
  <path d="M46.2731 12.2C48.8911 12.2 50.5291 13.558 50.5291 15.756C50.5291 17.94 48.8911 19.298 46.2731 19.298H44.2991V22H42.0311V12.2H46.2731ZM46.1471 17.45C47.5331 17.45 48.2331 16.82 48.2331 15.756C48.2331 14.678 47.5331 14.048 46.1471 14.048H44.2991V17.45H46.1471ZM60.8283 22H58.3923L56.5023 19.27H56.3903H54.4163V22H52.1483V12.2H56.3903C59.0083 12.2 60.6463 13.558 60.6463 15.756C60.6463 17.226 59.9043 18.304 58.6303 18.85L60.8283 22ZM58.3503 15.756C58.3503 14.678 57.6503 14.048 56.2643 14.048H54.4163V17.464H56.2643C57.6503 17.464 58.3503 16.82 58.3503 15.756ZM64.6973 20.18H70.0312V22H62.4433V12.2H69.8493V14.02H64.6973V16.148H69.2473V17.912H64.6973V20.18ZM82.8818 22H80.7538L80.7398 16.12L77.8558 20.964H76.8338L73.9638 16.246V22H71.8358V12.2H73.7118L77.3798 18.29L80.9918 12.2H82.8538L82.8818 22ZM85.2069 22V12.2H87.4749V22H85.2069ZM94.1547 22.168C91.3687 22.168 89.7167 20.572 89.7167 17.688V12.2H91.9847V17.604C91.9847 19.466 92.7967 20.236 94.1687 20.236C95.5547 20.236 96.3527 19.466 96.3527 17.604V12.2H98.5927V17.688C98.5927 20.572 96.9407 22.168 94.1547 22.168ZM111.88 22H109.752L109.738 16.12L106.854 20.964H105.832L102.962 16.246V22H100.834V12.2H102.71L106.378 18.29L109.99 12.2H111.852L111.88 22Z" fill="black"></path>
  <defs>
    <linearGradient id="paint0_linear_2601_5312" x1="129.56" y1="-3.71232" x2="65.7516" y2="82.6334" gradientUnits="userSpaceOnUse">
      <stop stop-color="#ACA8A4"></stop>
      <stop offset="0.496787" stop-color="#E7E7E7"></stop>
      <stop offset="1" stop-color="#ACA8A4"></stop>
    </linearGradient>
  </defs>
</svg>
