<svg width="26" height="22" viewBox="0 0 26 22" fill="none" xmlns="http://www.w3.org/2000/svg">
<path d="M25.0848 4.44293H6.87161L6.06731 1.15058C5.98463 0.834879 5.70651 0.609375 5.37577 0.609375H1.11375C0.72288 0.609375 0.399658 0.932597 0.399658 1.32347C0.399658 1.71434 0.72288 2.03756 1.11375 2.03756H4.81201L5.60879 5.30736L8.23215 16.0113C8.32986 16.3044 8.60798 16.5074 8.91617 16.5074H22.4689C22.7997 16.5074 23.0928 16.2819 23.1755 15.9586L25.7763 5.35247C25.8891 4.89394 25.5433 4.45797 25.0697 4.45797L25.0848 4.44293ZM19.372 13.0572H12.1033C11.7124 13.0572 11.3892 12.7415 11.3892 12.3431C11.3892 11.9447 11.7124 11.629 12.1033 11.629H19.372C19.7629 11.629 20.0861 11.9522 20.0861 12.3431C20.0861 12.7339 19.7629 13.0572 19.372 13.0572ZM20.8904 9.72723H10.5774C10.1865 9.72723 9.86329 9.40401 9.86329 9.01314C9.86329 8.62227 10.1865 8.29904 10.5774 8.29904H20.8904C21.2813 8.29904 21.6045 8.61475 21.6045 9.01314C21.6045 9.41153 21.2813 9.72723 20.8904 9.72723Z" fill="#373534"/>
<path d="M11.0207 21.7973C12.1416 21.7973 13.0503 20.8887 13.0503 19.7678C13.0503 18.6469 12.1416 17.7383 11.0207 17.7383C9.89986 17.7383 8.99121 18.6469 8.99121 19.7678C8.99121 20.8887 9.89986 21.7973 11.0207 21.7973Z" fill="#373534"/>
<path d="M20.4842 21.7973C21.6051 21.7973 22.5138 20.8887 22.5138 19.7678C22.5138 18.6469 21.6051 17.7383 20.4842 17.7383C19.3634 17.7383 18.4547 18.6469 18.4547 19.7678C18.4547 20.8887 19.3634 21.7973 20.4842 21.7973Z" fill="#373534"/>
</svg>
