<?xml version="1.0" encoding="UTF-8"?>
<svg xmlns="http://www.w3.org/2000/svg" width="120" height="33" viewBox="0 0 120 33" fill="none">
  <rect x="0.536133" width="118.634" height="33" rx="4" fill="url(#paint0_linear_1981_32617)"></rect>
  <path d="M16.5493 14.8366C16.546 14.8529 16.5411 14.8676 16.5378 14.8839C16.5982 14.9295 16.6568 14.9768 16.7171 15.0208C18.088 16.0118 19.4555 17.0061 20.8312 17.989C20.9926 18.1047 21.0334 18.2009 20.9682 18.3949C20.4303 20.0118 19.9038 21.632 19.374 23.2522C19.3528 23.3174 19.3349 23.3843 19.3007 23.5C19.4099 23.4234 19.4669 23.3859 19.5224 23.3451C20.9046 22.3362 22.2868 21.3256 23.6691 20.315C23.7734 20.2384 23.85 20.1797 23.9918 20.2857C25.2175 21.1919 26.4498 22.0868 27.6805 22.9849C27.9054 23.1479 28.132 23.3093 28.396 23.5C28.3667 23.3989 28.3537 23.3517 28.339 23.3077C27.8011 21.6614 27.2664 20.0134 26.722 18.3704C26.6666 18.2025 26.6911 18.1161 26.8345 18.0134C28.2249 17.0159 29.6104 16.0102 30.9975 15.0077C31.0562 14.9654 31.1132 14.923 31.1703 14.879C31.079 14.8366 31.0056 14.8366 30.9307 14.8366C29.2175 14.8415 27.5061 14.8447 25.7929 14.8562C25.6348 14.8562 25.5647 14.8121 25.5158 14.6573C25.0317 13.1333 24.5378 11.6108 24.0472 10.0884C23.9885 9.9075 23.925 9.72657 23.8484 9.5C23.7978 9.64344 23.7652 9.73309 23.7359 9.82437C23.2192 11.4267 22.7008 13.0273 22.189 14.6312C22.1369 14.7942 22.0733 14.8594 21.8891 14.8578C20.1841 14.8447 18.4775 14.8431 16.7726 14.8366C16.6992 14.8366 16.6242 14.8366 16.5509 14.8366H16.5493Z" fill="white"></path>
  <path d="M16.5492 14.8366C16.6225 14.8366 16.6975 14.8366 16.7709 14.8366C18.4758 14.8415 20.1824 14.8431 21.8874 14.8578C22.0716 14.8578 22.1352 14.7942 22.1873 14.6312C22.6975 13.0273 23.2175 11.4267 23.7342 9.82437C23.7635 9.73309 23.7977 9.64344 23.8466 9.5C23.9233 9.72657 23.9868 9.9075 24.0455 10.0884C24.5378 11.6108 25.03 13.1333 25.5141 14.6573C25.563 14.8121 25.6331 14.8578 25.7912 14.8562C27.5043 14.8447 29.2158 14.8415 30.929 14.8366C31.0023 14.8366 31.0757 14.8366 31.1686 14.879C31.1115 14.9214 31.0545 14.9654 30.9958 15.0077C29.6087 16.0102 28.2232 17.0159 26.8328 18.0134C26.6894 18.1161 26.6649 18.2025 26.7203 18.3704C27.2664 20.0134 27.801 21.6614 28.3373 23.3077C28.3519 23.3533 28.365 23.3989 28.3943 23.5C28.1303 23.3093 27.9037 23.1479 27.6788 22.9849C26.4481 22.0868 25.2142 21.1919 23.9901 20.2857C23.8483 20.1797 23.7717 20.2384 23.6673 20.315C22.2851 21.3256 20.9029 22.3362 19.5206 23.3451C19.4652 23.3859 19.4082 23.4234 19.299 23.5C19.3332 23.3843 19.3511 23.3174 19.3723 23.2522C19.9021 21.632 20.4286 20.0118 20.9665 18.3949C21.0317 18.2009 20.9909 18.1047 20.8295 17.989C19.4538 17.0045 18.0863 16.0118 16.7154 15.0208C16.6551 14.9768 16.5948 14.9295 16.5361 14.8839C16.5394 14.8676 16.5443 14.8529 16.5475 14.8366H16.5492Z" fill="black"></path>
  <path d="M46.0224 22.168C42.9844 22.168 40.7164 20.054 40.7164 17.1C40.7164 14.146 42.9844 12.032 46.0364 12.032C47.7304 12.032 49.1444 12.648 50.0684 13.768L48.6124 15.112C47.9544 14.356 47.1284 13.964 46.1484 13.964C44.3144 13.964 43.0124 15.252 43.0124 17.1C43.0124 18.948 44.3144 20.236 46.1484 20.236C47.1284 20.236 47.9544 19.844 48.6124 19.074L50.0684 20.418C49.1444 21.552 47.7304 22.168 46.0224 22.168ZM51.6 22V12.2H53.868V20.152H58.782V22H51.6ZM67.4532 22L66.5852 19.9H62.0352L61.1672 22H58.8432L63.2112 12.2H65.4512L69.8332 22H67.4532ZM62.7632 18.178H65.8712L64.3172 14.426L62.7632 18.178ZM74.07 22.168C72.516 22.168 70.948 21.706 70.08 21.034L70.85 19.326C71.676 19.928 72.908 20.348 74.084 20.348C75.428 20.348 75.974 19.9 75.974 19.298C75.974 17.464 70.276 18.724 70.276 15.084C70.276 13.418 71.62 12.032 74.406 12.032C75.638 12.032 76.898 12.326 77.808 12.9L77.108 14.622C76.198 14.104 75.26 13.852 74.392 13.852C73.048 13.852 72.53 14.356 72.53 14.972C72.53 16.778 78.228 15.532 78.228 19.13C78.228 20.768 76.87 22.168 74.07 22.168ZM82.9977 22.168C81.4437 22.168 79.8757 21.706 79.0077 21.034L79.7777 19.326C80.6037 19.928 81.8357 20.348 83.0117 20.348C84.3557 20.348 84.9017 19.9 84.9017 19.298C84.9017 17.464 79.2037 18.724 79.2037 15.084C79.2037 13.418 80.5477 12.032 83.3337 12.032C84.5657 12.032 85.8257 12.326 86.7357 12.9L86.0357 14.622C85.1257 14.104 84.1877 13.852 83.3197 13.852C81.9757 13.852 81.4577 14.356 81.4577 14.972C81.4577 16.778 87.1557 15.532 87.1557 19.13C87.1557 20.768 85.7977 22.168 82.9977 22.168ZM88.7055 22V12.2H90.9735V22H88.7055ZM97.9892 22.168C94.9512 22.168 92.6832 20.054 92.6832 17.1C92.6832 14.146 94.9512 12.032 98.0032 12.032C99.6972 12.032 101.111 12.648 102.035 13.768L100.579 15.112C99.9212 14.356 99.0952 13.964 98.1152 13.964C96.2812 13.964 94.9792 15.252 94.9792 17.1C94.9792 18.948 96.2812 20.236 98.1152 20.236C99.0952 20.236 99.9212 19.844 100.579 19.074L102.035 20.418C101.111 21.552 99.6972 22.168 97.9892 22.168Z" fill="black"></path>
  <defs>
    <linearGradient id="paint0_linear_1981_32617" x1="14.6465" y1="3.62101" x2="68.2983" y2="63.654" gradientUnits="userSpaceOnUse">
      <stop stop-color="#C7CDD2"></stop>
      <stop offset="0.498372" stop-color="#E0E5EA"></stop>
      <stop offset="1" stop-color="#D4DBE1"></stop>
      <stop offset="1" stop-color="#C7CDD2"></stop>
    </linearGradient>
  </defs>
</svg>
