<?xml version="1.0" encoding="UTF-8"?>
<svg xmlns="http://www.w3.org/2000/svg" width="119" height="33" viewBox="0 0 119 33" fill="none">
  <rect width="118.276" height="33" rx="4" fill="url(#paint0_linear_2127_41751)"></rect>
  <path d="M16 14.4383C16.324 13.9756 16.6589 13.5194 16.9699 13.048C17.7046 11.9275 18.4285 10.7994 19.2261 9.56726C19.8557 11.2675 20.4506 12.8757 21.0683 14.5456H16C16 14.5099 16 14.4741 16 14.4383Z" fill="black"></path>
  <path d="M25.1342 23.5002C24.1015 20.7401 23.0698 17.9799 22.0371 15.2198H28.2725C27.2268 17.9799 26.1811 20.7401 25.1342 23.5002Z" fill="black"></path>
  <path d="M26.0781 22.992C27.0751 20.4248 28.071 17.8576 29.068 15.2893C30.6675 15.2589 32.2669 15.2297 33.8664 15.1993C31.2711 17.7969 28.6746 20.3944 26.0792 22.9909L26.0781 22.992Z" fill="black"></path>
  <path d="M16.3984 15.201C17.9524 15.2043 19.5075 15.2086 21.0615 15.2119C22.1039 17.8062 23.1464 20.4016 24.1889 22.9959C21.612 20.4178 19.0133 17.8181 16.3984 15.201Z" fill="black"></path>
  <path d="M28.2258 14.5109H22.0879C23.1195 12.9157 24.1133 11.3791 25.1568 9.7655C26.1972 11.3737 27.1909 12.9103 28.2258 14.5109Z" fill="black"></path>
  <path d="M31.0819 9.56213C32.1774 11.2548 33.2058 12.8446 34.2765 14.4982H29.2656C29.8573 12.8901 30.4457 11.2928 31.0829 9.56213H31.0819Z" fill="black"></path>
  <path d="M19.9219 9.49976H24.5242C23.5489 11.0071 22.6083 12.4625 21.5983 14.0241C21.0229 12.4712 20.4875 11.0256 19.9219 9.49976Z" fill="black"></path>
  <path d="M25.7852 9.49976H30.3853C29.837 10.9898 29.3027 12.4387 28.7176 14.0262C27.7141 12.4766 26.7735 11.0256 25.7852 9.49976Z" fill="black"></path>
  <path d="M43.4393 22V12.2H45.7073V20.152H50.6213V22H43.4393ZM56.1195 22.168C53.3335 22.168 51.6815 20.572 51.6815 17.688V12.2H53.9495V17.604C53.9495 19.466 54.7615 20.236 56.1335 20.236C57.5195 20.236 58.3175 19.466 58.3175 17.604V12.2H60.5575V17.688C60.5575 20.572 58.9055 22.168 56.1195 22.168ZM71.454 22H68.836L66.47 18.598L64.146 22H61.542L65.168 17.016L61.724 12.2H64.3L66.554 15.378L68.766 12.2H71.216L67.8 16.932L71.454 22ZM76.8734 22.168C74.0874 22.168 72.4354 20.572 72.4354 17.688V12.2H74.7034V17.604C74.7034 19.466 75.5154 20.236 76.8874 20.236C78.2734 20.236 79.0714 19.466 79.0714 17.604V12.2H81.3114V17.688C81.3114 20.572 79.6594 22.168 76.8734 22.168ZM92.2326 22H89.7966L87.9066 19.27H87.7946H85.8206V22H83.5526V12.2H87.7946C90.4126 12.2 92.0506 13.558 92.0506 15.756C92.0506 17.226 91.3086 18.304 90.0346 18.85L92.2326 22ZM89.7546 15.756C89.7546 14.678 89.0546 14.048 87.6686 14.048H85.8206V17.464H87.6686C89.0546 17.464 89.7546 16.82 89.7546 15.756ZM102.223 12.2L98.4148 18.528V22H96.1468V18.5L92.3528 12.2H94.7608L97.3788 16.554L99.9968 12.2H102.223Z" fill="black"></path>
  <defs>
    <linearGradient id="paint0_linear_2127_41751" x1="7.8714" y1="33" x2="76.5937" y2="-37.7107" gradientUnits="userSpaceOnUse">
      <stop offset="0.0209046" stop-color="#C0BBB0"></stop>
      <stop offset="0.51544" stop-color="#F6F3EE"></stop>
      <stop offset="1" stop-color="#C0BBB0"></stop>
    </linearGradient>
  </defs>
</svg>
