<?xml version="1.0" encoding="UTF-8"?>
<svg xmlns="http://www.w3.org/2000/svg" width="91" height="86" viewBox="0 0 91 86" fill="none">
  <path d="M81.3432 60.4717V60.4163C81.3432 55.9281 80.1242 51.3844 77.5937 47.284C76.4301 45.4 75.0448 43.7192 73.5302 42.26C77.9816 37.5501 80.4012 31.3256 80.4012 24.9903C80.4012 24.3069 80.3642 23.642 80.3088 22.9586C82.6361 24.6948 84.6863 26.8928 86.3301 29.5155C88.7498 33.4312 89.9134 37.7902 89.9134 42.0938C89.9134 49.0202 86.9028 55.8357 81.3432 60.4717ZM68.8758 80.863C64.9231 83.301 60.5641 84.4647 56.242 84.4647C53.2868 84.4647 50.387 83.9106 47.6349 82.8577C48.0782 82.6361 48.503 82.3775 48.9278 82.1189C54.8383 78.4803 58.6801 72.773 60.1578 66.53C62.0417 66.9548 63.9811 67.1949 65.902 67.1949C70.4088 67.1949 74.9709 65.9759 79.0898 63.4455C79.4592 63.2238 79.7917 62.9837 80.1426 62.7436C79.4407 69.947 75.5066 76.7441 68.8758 80.863ZM35.7585 84.7971C27.7054 84.7971 19.8555 80.7706 15.3303 73.4379C13.7603 70.9075 12.7445 68.2108 12.2088 65.4587C16.1245 67.8045 20.5759 69.042 25.1196 69.042C27.5392 69.042 29.9588 68.691 32.3415 67.9892C32.951 69.947 33.8191 71.8679 34.9643 73.678C37.5132 77.7969 41.041 80.8999 45.086 82.9132C42.0753 84.1876 38.8984 84.7971 35.777 84.7971M4.72839 56.6115C2.30878 52.6958 1.14515 48.3368 1.14515 44.0517C1.14515 37.1622 4.13733 30.4021 9.62301 25.7476C9.73383 30.0327 10.9344 34.3548 13.3725 38.252C14.5915 40.2468 16.0507 41.983 17.6945 43.4975C13.1508 48.2259 10.6943 54.5058 10.6943 60.8966C10.6943 61.6723 10.7313 62.4665 10.8051 63.2423C8.44094 61.4876 6.37225 59.2897 4.72839 56.6299M22.072 4.67299C26.0246 2.23491 30.3836 1.07128 34.6872 1.07128C37.7902 1.07128 40.8748 1.6808 43.7376 2.84443C43.202 3.12148 42.6664 3.417 42.1492 3.74947C36.1649 7.44353 32.2861 13.2617 30.8823 19.6155C28.9984 19.1722 27.0774 18.9321 25.1565 18.9321C20.6498 18.9321 16.0876 20.1511 11.9687 22.7C11.5439 22.9586 11.1561 23.2356 10.7497 23.5127C11.2484 16.0507 15.238 8.92115 22.072 4.69146M46.7668 56.6484C48.0782 54.4135 49.0386 51.9754 49.5928 49.4635C51.4583 49.9067 53.3791 50.1284 55.3185 50.1284C55.9465 50.1284 56.556 50.1284 57.184 50.0545C58.9202 53.49 59.7514 57.1656 59.7514 60.8042C59.7514 62.3003 59.6036 63.7779 59.3266 65.2371C54.4504 63.8518 49.9806 60.9335 46.7483 56.6484M38.3074 65.3294C41.5581 63.2977 44.1994 60.6565 46.1573 57.6273C49.5188 61.9309 54.0995 64.8862 59.1049 66.2899C57.7012 72.2743 54.0071 77.7415 48.3552 81.2324C47.6903 81.6572 47.0069 82.0081 46.3235 82.3406C42.1307 80.4566 38.4367 77.3351 35.8509 73.1424C34.7611 71.4062 33.9484 69.5591 33.3758 67.6752C35.0751 67.0841 36.719 66.3084 38.3259 65.3294M23.1618 40.4869C26.3387 38.5106 29.811 37.4023 33.2835 37.0329C33.5236 37.4578 33.7452 37.8826 34.0038 38.2889C35.1675 40.1729 36.5527 41.8537 38.1042 43.3128C36.4604 45.0491 35.0935 46.9884 34.0223 49.0571C28.6843 48.9093 23.4573 46.9884 19.2645 43.4791C20.4281 42.3709 21.7211 41.3735 23.1618 40.4869ZM58.6986 25.0273C58.6986 28.6474 57.8674 32.2122 56.2974 35.463C53.8963 35.463 51.4582 35.8139 49.094 36.5342C48.466 34.5764 47.6164 32.6555 46.4713 30.8269C46.1942 30.3836 45.8802 29.9403 45.5847 29.4971C47.4686 26.4679 50.0545 23.8082 53.3052 21.8134C54.8198 20.8899 56.4083 20.1326 58.0152 19.56C58.44 21.3701 58.6801 23.1987 58.6801 25.0273M57.7751 18.5072C56.0389 19.0983 54.3396 19.874 52.7327 20.8899C49.4819 22.9216 46.8407 25.5444 44.8828 28.5735C41.5027 24.2515 36.9221 21.2963 31.9352 19.8925C33.2835 13.7973 36.996 8.23775 42.7218 4.69146C43.4976 4.2297 44.2548 3.80488 45.0306 3.43548C49.0386 5.33792 52.6034 8.38552 55.0969 12.449C56.2974 14.3699 57.184 16.4016 57.7751 18.5072ZM14.2775 37.7163C11.8394 33.7822 10.6758 29.4417 10.6758 25.1381C10.6758 25.0642 10.6758 24.9718 10.6758 24.9164C11.2669 24.4731 11.8764 24.0483 12.5044 23.642C16.457 21.2039 20.816 20.0403 25.1196 20.0403C26.9666 20.0403 28.8136 20.2804 30.6237 20.6867C30.3651 22.1459 30.2174 23.642 30.2174 25.1381C30.2174 28.8137 31.0301 32.5077 32.7109 35.9801C29.22 36.405 25.7291 37.5686 22.5522 39.5449C21.0192 40.4869 19.6524 41.5582 18.3964 42.7403C16.8264 41.2811 15.4227 39.6003 14.2406 37.6979M11.7286 60.915C11.7286 54.7829 14.0743 48.7616 18.4518 44.2364C22.7 47.8381 27.9825 49.8513 33.4497 50.1099C31.9536 53.3792 31.1594 56.9624 31.1594 60.5826C31.1594 62.7251 31.4365 64.8677 31.9906 66.9918C29.7372 67.6567 27.3914 68.0076 25.0826 68.0076C20.4281 68.0076 15.866 66.6593 11.9503 64.1104C11.8025 63.0576 11.7286 61.9863 11.7286 60.9335M80.235 60.4717C80.235 60.7857 80.2349 61.0997 80.198 61.3953C79.6439 61.8201 79.0713 62.208 78.4803 62.5774C74.5276 65.0154 70.1686 66.1791 65.8466 66.1791C63.9811 66.1791 62.134 65.9574 60.3424 65.5511C60.638 63.9996 60.7858 62.4111 60.7858 60.8227C60.7858 57.1471 59.9731 53.4346 58.3107 49.9806C61.8016 49.5558 65.274 48.3737 68.4694 46.3974C70.0209 45.4369 71.4246 44.3102 72.6991 43.0912C74.1767 44.4949 75.5066 46.0834 76.6517 47.912C79.0529 51.8461 80.235 56.1866 80.235 60.4717ZM79.293 25.0273C79.293 31.104 76.9842 37.0699 72.6806 41.5951C68.3771 37.8826 63.0022 35.7585 57.4426 35.5184C58.9387 32.2307 59.7329 28.6474 59.7329 25.0457C59.7329 23.1063 59.5113 21.1485 59.0311 19.246C61.2844 18.5811 63.5932 18.2302 65.8835 18.2302C70.575 18.2302 75.1741 19.6155 79.1083 22.2013C79.2191 23.1433 79.293 24.1037 79.293 25.0457M55.3001 1.10822C63.3347 1.10822 71.1845 5.13474 75.7097 12.449C77.3351 15.0718 78.3695 17.8977 78.8866 20.7606C74.9524 18.3779 70.4642 17.122 65.8835 17.122C63.5008 17.122 61.0997 17.4729 58.754 18.1563C58.126 15.9953 57.221 13.8897 55.965 11.8949C53.5269 7.92376 50.1284 4.89463 46.2681 2.88137C49.2048 1.6808 52.234 1.08975 55.2816 1.08975M90.9477 42.1307C90.9477 37.6425 89.7287 33.0803 87.1983 28.9799C85.3328 25.9323 82.8947 23.4573 80.1057 21.5364C79.6624 18.2117 78.4987 14.924 76.6148 11.8579C71.8864 4.21123 63.6856 0 55.3001 0C51.8277 0 48.3183 0.720341 44.9936 2.23491C41.7428 0.757282 38.2151 0 34.6503 0C30.1435 0 25.5814 1.21904 21.4625 3.76794C14.0374 8.36704 9.8262 16.2354 9.58609 24.3623C3.39854 29.2385 0 36.5712 0 44.0701C0 48.5769 1.21904 53.1021 3.74947 57.221C5.65191 60.287 8.10843 62.799 10.9344 64.7014C11.4146 67.9337 12.5783 71.1106 14.3884 74.0289C19.1168 81.6756 27.336 85.9053 35.7215 85.9053C39.3048 85.9053 42.9249 85.1481 46.3235 83.5412C49.4634 84.871 52.8066 85.5729 56.2236 85.5729C60.7303 85.5729 65.2925 84.3538 69.4114 81.8234C76.6517 77.3351 80.8075 69.7993 81.2693 61.9309C87.5307 57.0547 90.9662 49.6666 90.9662 42.1307" fill="#231F20"></path>
</svg>
