<svg xmlns="http://www.w3.org/2000/svg" width="17" height="17" viewBox="0 0 17 17" fill="none">
<path d="M0.448975 3.50285C0.524975 3.28895 0.576878 3.06116 0.682538 2.863C1.02083 2.23241 1.5482 1.85183 2.26465 1.75368C2.41665 1.7333 2.57143 1.72497 2.72529 1.72405C3.96076 1.72219 5.19624 1.72219 6.43171 1.72405C6.66713 1.72405 6.87752 1.7972 7.01655 1.99906C7.15835 2.20463 7.18801 2.43705 7.06567 2.65558C6.94147 2.87967 6.74684 3.01671 6.47064 3.01579C5.21941 3.01301 3.96818 3.01393 2.71787 3.01579C2.61963 3.01579 2.52046 3.02319 2.42221 3.03523C2.0524 3.08061 1.74469 3.41766 1.74469 3.78805C1.74191 7.19381 1.74933 10.5996 1.73264 14.0053C1.72986 14.6137 2.12377 14.9767 2.69563 14.972C4.93672 14.9544 7.17874 14.9646 9.41984 14.9646C10.5663 14.9646 11.7138 14.9674 12.8603 14.9618C13.1976 14.96 13.4608 14.7989 13.6017 14.4924C13.6675 14.3498 13.6944 14.1775 13.6953 14.0183C13.7028 12.7738 13.7018 11.5292 13.6972 10.2847C13.6972 10.0199 13.7602 9.79951 14.0021 9.65784C14.3914 9.43005 14.9827 9.65506 14.9883 10.2292C15.0003 11.5357 15.0105 12.8441 14.9855 14.1507C14.9688 15.023 14.5332 15.673 13.7491 16.0564C13.5072 16.1749 13.2152 16.2443 12.9465 16.2453C9.42262 16.2582 5.89878 16.2573 2.37587 16.2499C1.98104 16.2499 1.62513 16.0823 1.3063 15.8462C0.889223 15.536 0.626927 15.123 0.491609 14.6248C0.477707 14.5739 0.462877 14.5239 0.448975 14.4739C0.448975 10.8181 0.448975 7.1614 0.448975 3.50563L0.448975 3.50285Z" fill="black"/>
<path d="M13.0224 0.253906C13.3078 0.388173 13.5043 0.628002 13.7203 0.843755C14.5498 1.67158 15.3756 2.50404 16.2098 3.32631C16.5128 3.6254 16.5379 4.02357 16.2265 4.34581C16.2088 4.36433 16.1894 4.38285 16.1708 4.40137C13.787 6.78299 11.4023 9.16461 9.01936 11.5472C8.81917 11.7472 8.59673 11.8537 8.29828 11.849C7.35569 11.8342 6.41217 11.8407 5.46865 11.8435C5.17669 11.8435 4.8662 11.549 4.8662 11.2675C4.86342 10.2369 4.85786 9.20628 4.87455 8.17566C4.8764 8.04232 4.97094 7.88398 5.07011 7.78397C6.24997 6.59224 7.43911 5.40883 8.62546 4.22358C9.86001 2.99018 11.0955 1.75862 12.3272 0.52244C12.4477 0.401137 12.5775 0.305761 12.7406 0.254832H13.0224V0.253906ZM6.16007 10.536C6.19251 10.5425 6.20641 10.5471 6.22124 10.5471C6.84686 10.5471 7.47247 10.5499 8.09716 10.5443C8.1537 10.5443 8.22043 10.5008 8.26399 10.4582C10.4365 8.29141 12.6062 6.12276 14.7769 3.95319C14.8158 3.9143 14.8529 3.87356 14.8909 3.83374C14.8751 3.84485 14.8594 3.85597 14.8436 3.86708C14.814 3.81708 14.7926 3.75874 14.7528 3.71892C14.1615 3.12444 13.5646 2.53552 12.977 1.93641C12.8704 1.82807 12.8157 1.84104 12.7193 1.94197C12.4644 2.20958 12.1984 2.467 11.9361 2.72812C10.0454 4.61712 8.15555 6.50519 6.26666 8.39604C6.21939 8.44327 6.1647 8.51364 6.16378 8.57383C6.15636 9.22387 6.15914 9.87483 6.15914 10.5351L6.16007 10.536Z" fill="black"/>
</svg>
