<svg width="22" height="22" viewBox="0 0 22 22" fill="none" xmlns="http://www.w3.org/2000/svg">
<path d="M20.5625 6.20128H14.3506C14.9013 5.92515 15.4334 5.58566 15.8624 5.16247C16.8315 4.20658 16.8315 2.65149 15.8624 1.6956C14.9231 0.769045 13.2868 0.768263 12.3479 1.6956C11.656 2.3781 11.1679 3.31679 10.8535 4.18898C10.539 3.31639 10.051 2.3781 9.35907 1.69521C8.41897 0.767872 6.78183 0.768654 5.84451 1.69521C4.87547 2.6511 4.87547 4.20619 5.84451 5.16208C6.27352 5.58527 6.80562 5.92476 7.35636 6.20089H1.14443C0.900977 6.20089 0.703125 6.39605 0.703125 6.6362V10.1187C0.703125 10.3589 0.900977 10.554 1.14443 10.554H1.58573V20.5666C1.58573 20.8068 1.78358 21.002 2.02703 21.002H19.6799C19.9234 21.002 20.1212 20.8068 20.1212 20.5666V10.5548H20.5625C20.806 10.5548 21.0038 10.3596 21.0038 10.1195V6.63698C21.0038 6.39684 20.8064 6.20167 20.5625 6.20167V6.20128ZM8.64696 20.1321H2.46833V10.5548H8.64696V20.1321ZM8.64696 9.68418H1.58573V7.0723H8.64696V9.68418ZM6.4686 4.54724C5.84372 3.93084 5.84372 2.92801 6.4686 2.31122C6.77113 2.01163 7.17397 1.84814 7.60179 1.84814C8.02961 1.84814 8.43166 2.01163 8.73498 2.31122C9.86896 3.42982 10.4023 5.50665 10.4145 6.18759C10.4145 6.19189 10.4138 6.19815 10.4138 6.20167H10.3654C9.64772 6.17742 7.58871 5.65137 6.4686 4.54724ZM12.1774 20.1321H9.52956V10.5548H12.1774V20.1321ZM12.1774 9.68418H9.52956V7.0723H12.1774V9.68418ZM11.3416 6.20167H11.2932C11.2932 6.19815 11.2924 6.19228 11.2924 6.18759C11.3047 5.50665 11.838 3.43021 12.972 2.31122C13.2757 2.01163 13.6773 1.84814 14.1051 1.84814C14.533 1.84814 14.9358 2.01163 15.2383 2.31122C15.8632 2.92762 15.8632 3.93045 15.2383 4.54724C14.1182 5.65137 12.0592 6.17703 11.3416 6.20167ZM19.2386 20.1321H13.06V10.5548H19.2386V20.1321ZM20.1212 9.68418H13.06V7.0723H20.1212V9.68418Z" fill="black" stroke="black" stroke-width="0.5"/>
</svg>
