<svg width="259" height="40" viewBox="0 0 259 40" fill="none" xmlns="http://www.w3.org/2000/svg">
<g clip-path="url(#clip0_7794_62728)">
<path d="M207.18 0V37.67" stroke="#231F20" stroke-width="0.7"/>
<path d="M34.85 26.41V26.39C34.85 24.46 34.33 22.51 33.24 20.75C32.74 19.94 32.15 19.22 31.49 18.6C33.41 16.58 34.45 13.9 34.45 11.18C34.45 10.89 34.44 10.6 34.41 10.31C35.41 11.06 36.29 12 36.99 13.12C38.03 14.8 38.53 16.67 38.53 18.51C38.53 21.49 37.24 24.4 34.86 26.4M29.51 35.15C27.82 36.2 25.95 36.69 24.1 36.69C22.83 36.69 21.58 36.46 20.4 36C20.59 35.9 20.77 35.79 20.95 35.68C23.48 34.12 25.13 31.67 25.76 28.99C26.57 29.18 27.39 29.28 28.23 29.28C30.16 29.28 32.12 28.76 33.89 27.67C34.04 27.57 34.19 27.47 34.34 27.37C34.04 30.46 32.36 33.38 29.51 35.14M15.31 36.83C11.86 36.83 8.5 35.1 6.56 31.96C5.89 30.88 5.45 29.72 5.22 28.54C6.9 29.54 8.81 30.08 10.76 30.08C11.8 30.08 12.84 29.93 13.85 29.62C14.11 30.46 14.48 31.28 14.97 32.07C16.06 33.83 17.58 35.16 19.31 36.02C18.02 36.57 16.66 36.83 15.32 36.83M2 24.76C0.96 23.08 0.46 21.21 0.46 19.37C0.46 16.41 1.74 13.51 4.1 11.52C4.15 13.36 4.67 15.21 5.7 16.89C6.22 17.74 6.85 18.49 7.55 19.14C5.6 21.17 4.55 23.86 4.55 26.6C4.55 26.93 4.57 27.27 4.6 27.61C3.59 26.86 2.7 25.91 2 24.77M9.45 2.49C11.14 1.45 13.01 0.950001 14.86 0.950001C16.19 0.950001 17.51 1.21 18.74 1.71C18.51 1.83 18.28 1.96 18.06 2.1C15.49 3.69 13.83 6.18 13.22 8.9C12.42 8.71 11.59 8.61 10.77 8.61C8.84 8.61 6.88 9.13 5.11 10.22C4.93 10.33 4.76 10.44 4.59 10.56C4.81 7.36 6.51 4.3 9.45 2.48M20.03 24.75C20.59 23.79 21 22.75 21.24 21.67C22.04 21.86 22.87 21.96 23.7 21.96C23.97 21.96 24.23 21.95 24.5 21.93C25.24 23.39 25.6 24.97 25.6 26.53C25.6 27.17 25.54 27.81 25.42 28.43C23.32 27.84 21.42 26.58 20.03 24.74M16.4 28.46C17.8 27.59 18.93 26.46 19.77 25.16C21.22 27.01 23.18 28.27 25.32 28.87C24.72 31.44 23.14 33.78 20.71 35.28C20.42 35.46 20.13 35.61 19.84 35.76C18.04 34.95 16.46 33.62 15.35 31.81C14.89 31.06 14.54 30.27 14.28 29.46C15.01 29.21 15.72 28.87 16.4 28.45M9.89 17.8C11.26 16.96 12.74 16.48 14.23 16.32C14.33 16.5 14.43 16.68 14.54 16.86C15.04 17.67 15.63 18.39 16.29 19.01C15.58 19.75 15 20.59 14.54 21.48C12.25 21.42 10 20.59 8.21 19.09C8.71 18.62 9.27 18.18 9.88 17.8M25.11 11.17C25.11 12.72 24.76 14.25 24.09 15.65C23.06 15.65 22.01 15.8 21 16.11C20.73 15.27 20.37 14.45 19.88 13.66C19.76 13.46 19.63 13.27 19.49 13.08C20.3 11.78 21.42 10.65 22.81 9.79C23.46 9.39 24.14 9.07 24.84 8.82C25.02 9.6 25.12 10.38 25.12 11.17M24.73 8.37C23.99 8.62 23.27 8.96 22.57 9.39C21.17 10.26 20.04 11.39 19.2 12.69C17.75 10.84 15.79 9.57 13.64 8.97C14.22 6.36 15.81 3.97 18.27 2.45C18.6 2.25 18.93 2.07 19.27 1.91C20.99 2.73 22.51 4.03 23.58 5.77C24.09 6.6 24.47 7.47 24.72 8.36M6.1 16.64C5.06 14.96 4.56 13.09 4.56 11.25V11.15C4.81 10.96 5.07 10.77 5.35 10.61C7.04 9.56 8.91 9.06 10.76 9.06C11.56 9.06 12.35 9.16 13.12 9.34C13.01 9.97 12.95 10.6 12.95 11.24C12.95 12.81 13.3 14.4 14.02 15.89C12.52 16.07 11.03 16.57 9.66 17.42C9.01 17.82 8.42 18.28 7.89 18.79C7.21 18.17 6.61 17.45 6.1 16.63M5.02 26.57C5.02 23.94 6.03 21.36 7.91 19.42C9.73 20.96 12 21.83 14.34 21.94C13.7 23.35 13.36 24.88 13.36 26.43C13.36 27.35 13.48 28.27 13.72 29.17C12.75 29.47 11.75 29.61 10.76 29.61C8.76 29.61 6.8 29.03 5.12 27.93C5.06 27.47 5.03 27.02 5.03 26.57M34.39 26.38C34.39 26.51 34.39 26.64 34.39 26.77C34.15 26.95 33.91 27.12 33.65 27.28C31.96 28.32 30.09 28.82 28.24 28.82C27.44 28.82 26.65 28.72 25.87 28.54C26 27.88 26.06 27.2 26.06 26.52C26.06 24.95 25.71 23.35 24.99 21.87C26.49 21.69 27.98 21.18 29.35 20.34C30.02 19.93 30.63 19.45 31.17 18.92C31.81 19.52 32.37 20.21 32.86 20.99C33.9 22.67 34.4 24.54 34.4 26.38H34.39ZM33.99 11.18C33.99 13.79 33 16.35 31.15 18.29C29.31 16.7 27 15.79 24.61 15.68C25.25 14.27 25.59 12.74 25.59 11.19C25.59 10.36 25.49 9.52 25.3 8.7C26.26 8.41 27.25 8.27 28.24 8.27C30.25 8.27 32.22 8.86 33.91 9.97C33.96 10.38 33.99 10.78 33.99 11.19M23.7 0.940001C27.15 0.940001 30.51 2.67 32.45 5.81C33.15 6.93 33.59 8.14 33.82 9.37C32.13 8.35 30.2 7.81 28.24 7.81C27.22 7.81 26.19 7.96 25.18 8.26C24.92 7.33 24.52 6.43 23.99 5.57C22.94 3.87 21.49 2.57 19.83 1.7C21.09 1.19 22.4 0.940001 23.7 0.940001ZM38.98 18.53C38.98 16.6 38.46 14.65 37.38 12.89C36.57 11.59 35.53 10.52 34.34 9.7C34.14 8.27 33.65 6.86 32.84 5.55C30.81 2.27 27.3 0.470001 23.7 0.470001C22.21 0.470001 20.7 0.780001 19.28 1.43C17.89 0.800001 16.38 0.480001 14.85 0.480001C12.92 0.480001 10.96 1 9.2 2.09C6.01 4.06 4.21 7.43 4.11 10.92C1.45 13 0 16.15 0 19.37C0 21.3 0.52 23.25 1.61 25.01C2.42 26.33 3.48 27.4 4.69 28.22C4.9 29.6 5.39 30.96 6.17 32.23C8.2 35.51 11.72 37.32 15.32 37.32C16.86 37.32 18.41 36.99 19.88 36.3C21.22 36.87 22.66 37.18 24.12 37.18C26.05 37.18 28.01 36.66 29.78 35.57C32.88 33.65 34.67 30.42 34.86 27.04C37.55 24.95 39.02 21.78 39.02 18.55" fill="#231F20"/>
<path d="M57.2601 3.17999L53.5701 12.36H61.0201L57.2601 3.17999ZM65.0401 22.42L61.7901 14.34H52.7701L49.5701 22.43H47.0701L56.1001 0.429993H58.7401L67.7501 22.43H65.0401V22.42Z" fill="#231F20"/>
<path d="M75.2801 2.53999V22.42H72.7801V2.53999H65.5701V0.429993H82.4501V2.53999H75.2901H75.2801Z" fill="#231F20"/>
<path d="M98.46 2.53999V22.42H95.96V2.53999H88.75V0.429993H105.63V2.53999H98.47H98.46Z" fill="#231F20"/>
<path d="M121.84 22.42V11.89H109.89V22.42H107.38V0.429993H109.89V9.89999H121.84V0.429993H124.34V22.43H121.84V22.42Z" fill="#231F20"/>
<path d="M126.93 22.42L126.97 0.420013H138.8V2.53001H129.44V9.82001H138.3V11.86H129.44V20.23H139.45V22.4H126.92L126.93 22.42Z" fill="#231F20"/>
<path d="M156.5 2.53999V22.42H153.99V2.53999H146.78V0.429993H163.66V2.53999H156.51H156.5Z" fill="#231F20"/>
<path d="M179.85 10.85C179.85 8.32 179.12 6.24 177.65 4.62C176.18 2.99 174.39 2.18 172.25 2.18C170.11 2.18 168.33 3.05 166.88 4.77C165.44 6.5 164.72 8.64 164.72 11.19C164.72 13.96 165.42 16.23 166.82 17.99C168.23 19.75 170.05 20.63 172.29 20.63C174.53 20.63 176.32 19.79 177.73 18.12C179.14 16.44 179.83 14.3 179.83 11.69V10.86H179.84L179.85 10.85ZM172.01 22.89C169.11 22.89 166.74 21.84 164.93 19.76C163.1 17.67 162.2 14.97 162.2 11.68C162.2 8.39 163.18 5.51 165.13 3.3C167.09 1.11 169.59 0 172.64 0C175.69 0 177.9 1.04 179.72 3.1C181.55 5.16 182.45 7.86 182.45 11.18C182.45 14.5 181.46 17.33 179.49 19.56C177.52 21.78 175.02 22.89 172.01 22.89Z" fill="#231F20"/>
<path d="M193.88 3.35999C193.13 2.84999 191.89 2.59999 190.15 2.59999H186.99V10.66H190.22C191.1 10.66 191.92 10.56 192.66 10.36C193.41 10.16 194.05 9.69999 194.59 8.96999C195.13 8.23999 195.4 7.40999 195.4 6.49999C195.4 5.83999 195.27 5.23999 195 4.69999C194.74 4.15999 194.36 3.70999 193.88 3.35999ZM195.86 11.05C195.18 11.64 194.36 12.07 193.42 12.34C192.47 12.6 191.28 12.74 189.83 12.74H187V22.43H184.49V0.429993H189.34C189.76 0.429993 190.26 0.449993 190.83 0.479993C191.4 0.509993 192.03 0.539993 192.71 0.559993C194.32 0.709993 195.6 1.31999 196.57 2.37999C197.54 3.43999 198.03 4.74999 198.03 6.33999C198.03 8.23999 197.31 9.79999 195.89 11.06" fill="#231F20"/>
<path d="M158.09 28.06H156.91V36.77H158.09V28.06Z" fill="#231F20"/>
<path d="M141.45 27.92L143.1 32.65C143.76 34.57 144.26 35.96 144.56 36.68V36.77H143.31L142.57 34.55C142.36 33.9 142.26 33.83 141.38 33.83H139.52C139.29 33.83 139.23 33.88 139.17 34.04L138.23 36.78H137.56L140.64 27.93H141.45V27.92ZM140.79 29.32L139.43 33.29H140.99C141.94 33.29 142.1 33.15 141.9 32.56L140.79 29.33V29.32Z" fill="#231F20"/>
<path d="M174.37 27.92L176.02 32.65C176.69 34.57 177.18 35.96 177.48 36.68V36.77H176.23L175.49 34.55C175.28 33.9 175.18 33.83 174.3 33.83H172.44C172.21 33.83 172.15 33.88 172.09 34.04L171.15 36.78H170.48L173.56 27.93H174.37V27.92ZM173.71 29.32L172.35 33.29H173.91C174.86 33.29 175.02 33.15 174.82 32.56L173.71 29.33V29.32Z" fill="#231F20"/>
<path d="M82.07 36.94C83.26 36.94 84.17 36.56 84.68 35.84C85.01 35.38 85.14 34.81 85.14 34.17V28.05H84.03V34.3C84.03 35.42 83.37 36.24 82.08 36.24C80.79 36.24 80.16 35.42 80.16 34.3V28.05H79.03V34.17C79.03 34.83 79.15 35.39 79.52 35.88C80.04 36.58 80.9 36.94 82.06 36.94" fill="#231F20"/>
<path d="M101.46 39.04C104.16 38.55 104.51 37.55 104.51 35.22V28.06H102.2V28.33H102.38C103.09 28.33 103.34 28.5 103.34 29.11V35.4C103.34 37.14 103.2 38.08 101.46 38.78V39.05V39.04Z" fill="#231F20"/>
<path d="M70.0601 36.23H69.8601C68.9201 36.23 68.7801 36.1 68.7801 35.42V32.48H69.6201C70.7001 32.48 71.8601 32.93 71.8601 34.45C71.8601 35.8 70.9901 36.24 70.0501 36.24L70.0601 36.23ZM69.7201 28.59C71.0601 28.59 71.6301 29.24 71.6301 30.23C71.6301 31.22 71.0601 31.95 69.8401 31.95H69.7201C68.7801 31.95 68.7801 31.82 68.7801 31.01V28.6H69.7201V28.59ZM71.0601 32.21C72.0001 31.94 72.8101 31.27 72.8101 30.07C72.8101 28.73 71.7901 28.06 70.0501 28.06H67.6201V36.77H70.0001C72.4001 36.77 73.0801 35.5 73.0801 34.3C73.0801 32.96 72.0901 32.34 71.0701 32.22" fill="#231F20"/>
<path d="M92.6999 28.59H91.8599V32.55C94.4399 32.4 94.9599 31.49 94.9599 30.38C94.9599 29.27 94.2099 28.59 92.6999 28.59ZM96.1599 30.3C96.1599 31.52 95.4299 32.34 93.9899 32.75C94.3399 33.16 94.7099 33.8 95.0699 34.35C95.6499 35.24 96.1599 36 96.7299 36.65V36.76H95.2999L93.3699 33.77C92.9999 33.2 92.6299 33.07 91.8499 33.07V36.76H90.6699V28.05H92.9599C93.7899 28.05 96.1499 28.14 96.1499 30.29L96.1599 30.3Z" fill="#231F20"/>
<path d="M124.73 37L120.52 32.24L124.51 28.02H123.27L119.53 32.06V28.15H118.32V36.86H119.53V32.52L123.41 37H124.73Z" fill="#231F20"/>
<path d="M132.52 28.13V31.67H128.99V28.13H127.86V36.84H128.99V32.52H132.52V36.84H133.66V28.13H132.52Z" fill="#231F20"/>
<path d="M149.5 35.99V28.13H148.29V36.84H153.78V35.99H149.5Z" fill="#231F20"/>
<path d="M165.38 31.94C164.61 31.92 164.6 31.76 164.6 31V28.59H168.61V28.05H163.42V36.76H164.6V32.47H168.61V31.93H165.38" fill="#231F20"/>
<path d="M232.07 23.33C232.15 22.95 232.15 22.4 232.08 21.96L231.56 18.27L228.67 23.35H228.12L225.18 18.05L224.61 22.05C224.54 22.51 224.53 23.1 224.58 23.35H223.54C223.74 22.94 223.79 22.77 223.88 22.11L224.81 15.5H225.28L228.71 21.68L232.14 15.5H232.5L233.47 22.1C233.56 22.75 233.64 22.95 233.82 23.35H232.05H232.06L232.07 23.33Z" fill="#231F20"/>
<path d="M223.08 22.55L222.96 23.33H217C217.25 22.79 217.24 22.48 217.24 22.09V16.72C217.24 16.34 217.25 16 217 15.48H222.82V16.27C222.71 16.23 222.64 16.2 222.56 16.16C222.35 16.09 222.07 16.01 221.78 16.01H218.59V19.09H222.33L222.15 19.7H218.59V22.78H221.97C222.54 22.78 223.1 22.48 223.1 22.48V22.54H223.09L223.08 22.55Z" fill="#231F20"/>
<path d="M253.23 19.29V15.94C255.84 15.84 256.12 17.06 256.15 17.63C256.18 18.21 255.91 18.9 255.15 19.19H255.11C254.7 19.36 253.23 19.29 253.23 19.29ZM255.02 19.66L255.37 19.62C256.54 19.46 257.55 18.82 257.55 17.62C257.55 15.36 254.66 15.47 253.44 15.47H251.65C251.9 16 251.89 16.32 251.89 16.71V22.1C251.89 22.5 251.9 22.79 251.65 23.34H253.48C253.24 22.8 253.24 22.5 253.24 22.1V19.68C253.41 19.68 253.69 19.74 254.07 20.17C255.41 21.68 256.49 22.63 257.31 23.33H258.99C258.82 23.18 255.01 19.66 255.01 19.66H255.02Z" fill="#231F20"/>
<path d="M245.57 19.9L246.67 17.55L247.8 19.9H245.57ZM250.3 22.04L247.13 15.47H246.76L243.54 22.23C243.29 22.74 243.19 22.92 242.84 23.32H243.92L245.27 20.44H248.04L249.42 23.32H251.25C250.76 22.88 250.61 22.68 250.26 22.04" fill="#231F20"/>
<path d="M236.9 19.9L238 17.55L239.13 19.9H236.9ZM241.63 22.04L238.46 15.47H238.09L234.87 22.23C234.62 22.74 234.52 22.92 234.16 23.32H235.24L236.61 20.44H239.38L240.76 23.32H242.59C242.1 22.88 241.95 22.68 241.6 22.04" fill="#231F20"/>
</g>
<defs>
<clipPath id="clip0_7794_62728">
<rect width="259" height="39.05" fill="white"/>
</clipPath>
</defs>
</svg>
