<?xml version="1.0" encoding="UTF-8"?>
<svg xmlns="http://www.w3.org/2000/svg" width="260" height="40" viewBox="0 0 260 40" fill="none">
  <path d="M207.184 0.532227L207.184 38.2021" stroke="#19181C" stroke-width="0.7"></path>
  <path d="M35.3829 26.8594V26.8391C35.3829 24.8807 34.8552 22.9021 33.7492 21.1162C33.2419 20.2943 32.6432 19.5637 31.9735 18.9345C33.9217 16.8848 34.977 14.1654 34.977 11.4054C34.977 11.1111 34.9669 10.8169 34.9364 10.5226C35.9511 11.2836 36.8441 12.2375 37.5544 13.3739C38.6097 15.0787 39.117 16.9762 39.117 18.8432C39.117 21.8671 37.8081 24.8199 35.393 26.8493M29.9644 35.728C28.2495 36.7934 26.352 37.2906 24.4748 37.2906C23.1861 37.2906 21.9177 37.0573 20.7204 36.5905C20.9132 36.489 21.0958 36.3774 21.2784 36.2658C23.8457 34.6828 25.5199 32.1968 26.1592 29.4774C26.9811 29.6702 27.8132 29.7716 28.6655 29.7716C30.6239 29.7716 32.6127 29.244 34.4088 28.138C34.561 28.0365 34.7132 27.935 34.8654 27.8335C34.561 30.969 32.8563 33.9319 29.9644 35.7178M15.5453 37.4327C12.0446 37.4327 8.63517 35.6772 6.66664 32.4911C5.98678 31.3952 5.54031 30.2181 5.30693 29.0208C7.01164 30.0355 8.94973 30.5834 10.9284 30.5834C11.9837 30.5834 13.039 30.4312 14.0639 30.1166C14.3277 30.969 14.7031 31.8011 15.2003 32.6027C16.3064 34.3886 17.8487 35.7381 19.6042 36.6108C18.2952 37.1689 16.9152 37.4327 15.5555 37.4327M2.02942 25.175C0.974121 23.4703 0.466766 21.5728 0.466766 19.7057C0.466766 16.7022 1.76559 13.7595 4.16031 11.7403C4.21104 13.6073 4.73869 15.4845 5.78384 17.1892C6.31149 18.0518 6.95076 18.8128 7.66105 19.4723C5.68237 21.5322 4.61693 24.2618 4.61693 27.0421C4.61693 27.3769 4.63722 27.7219 4.66766 28.0669C3.6428 27.3059 2.73971 26.3419 2.02942 25.1852M9.589 2.56729C11.3039 1.51199 13.2014 1.00464 15.0786 1.00464C16.4281 1.00464 17.7676 1.26846 19.0156 1.77582C18.7823 1.89758 18.5489 2.02949 18.3256 2.17155C15.7178 3.78494 14.0334 6.31157 13.4145 9.07157C12.6027 8.87878 11.7605 8.77731 10.9284 8.77731C8.97003 8.77731 6.9812 9.30496 5.18516 10.411C5.00251 10.5226 4.83001 10.6342 4.65751 10.756C4.88075 7.50892 6.60575 4.40391 9.589 2.55714M20.3348 25.1649C20.903 24.1907 21.319 23.1354 21.5626 22.0396C22.3743 22.2323 23.2165 22.3338 24.0587 22.3338C24.3327 22.3338 24.5965 22.3237 24.8705 22.3034C25.6214 23.7849 25.9867 25.3881 25.9867 26.971C25.9867 27.6205 25.9258 28.2699 25.804 28.899C23.6732 28.3003 21.7452 27.0218 20.3348 25.1547M16.6514 28.9294C18.072 28.0466 19.2186 26.9 20.0709 25.5809C21.5423 27.4581 23.5311 28.7366 25.7026 29.3455C25.0938 31.9533 23.4905 34.3277 21.0248 35.8498C20.7305 36.0324 20.4362 36.1846 20.142 36.3368C18.3155 35.5149 16.7123 34.1653 15.5859 32.3287C15.1192 31.5677 14.764 30.7661 14.5002 29.9441C15.2409 29.6905 15.9614 29.3455 16.6514 28.9193M10.0456 18.1025C11.4358 17.2501 12.9375 16.7631 14.4495 16.6007C14.5509 16.7834 14.6524 16.966 14.764 17.1487C15.2714 17.9706 15.87 18.7012 16.5398 19.3303C15.8193 20.0812 15.2308 20.9335 14.764 21.8366C12.4403 21.7757 10.1572 20.9335 8.34091 19.4115C8.84826 18.9345 9.4165 18.4881 10.0355 18.1025M25.4996 11.375C25.4996 12.9478 25.1445 14.5003 24.4646 15.9209C23.4195 15.9209 22.354 16.0731 21.3292 16.3876C21.0552 15.5353 20.6899 14.7032 20.1927 13.9016C20.0709 13.6986 19.939 13.5059 19.797 13.3131C20.6189 11.9939 21.7554 10.8473 23.1658 9.97467C23.8254 9.56878 24.5154 9.24407 25.2257 8.9904C25.4083 9.78187 25.5098 10.5733 25.5098 11.375M25.114 8.53378C24.3632 8.78746 23.6326 9.13246 22.9223 9.56878C21.5017 10.4516 20.3551 11.5982 19.5027 12.9173C18.0314 11.0401 16.0425 9.75143 13.8609 9.1426C14.4495 6.49421 16.0628 4.06906 18.559 2.5267C18.8939 2.32376 19.2287 2.14111 19.5737 1.97876C21.319 2.81082 22.8614 4.12994 23.9471 5.89554C24.4646 6.73774 24.8502 7.62054 25.1039 8.52363M6.18972 16.9356C5.13443 15.2309 4.62707 13.3334 4.62707 11.4663C4.62707 11.4358 4.62707 11.4054 4.62707 11.3648C4.88075 11.172 5.14457 10.9792 5.42869 10.8169C7.14355 9.75143 9.04106 9.24407 10.9183 9.24407C11.73 9.24407 12.5317 9.34555 13.313 9.52819C13.2014 10.1675 13.1405 10.8067 13.1405 11.4561C13.1405 13.0492 13.4956 14.6626 14.2262 16.1745C12.7042 16.3572 11.1922 16.8645 9.80209 17.727C9.14253 18.1329 8.54385 18.5997 8.00605 19.1172C7.31605 18.4881 6.70723 17.7575 6.18972 16.9254M5.09384 27.0218C5.09384 24.3531 6.11869 21.7351 8.02635 19.7666C9.87312 21.3293 12.1765 22.2121 14.5509 22.3237C13.9015 23.7544 13.5565 25.3069 13.5565 26.8797C13.5565 27.8132 13.6783 28.7468 13.9218 29.66C12.9375 29.9644 11.9228 30.1065 10.9183 30.1065C8.88885 30.1065 6.90002 29.518 5.19531 28.4018C5.13443 27.935 5.10399 27.4784 5.10399 27.0218M34.9161 26.829C34.9161 26.9609 34.9161 27.0928 34.906 27.2247C34.6625 27.4074 34.4189 27.5799 34.1551 27.7422C32.4402 28.7975 30.5427 29.3049 28.6655 29.3049C27.8538 29.3049 27.0521 29.2034 26.2607 29.0208C26.3926 28.351 26.4535 27.661 26.4535 26.971C26.4535 25.3779 26.0983 23.7544 25.3677 22.2526C26.8898 22.07 28.4017 21.5525 29.7919 20.7001C30.4717 20.2841 31.0907 19.797 31.6386 19.2593C32.288 19.8681 32.8563 20.5682 33.3535 21.3597C34.4088 23.0644 34.9161 24.9619 34.9161 26.829ZM34.5102 11.3953C34.5102 14.0436 33.5057 16.6413 31.6285 18.6098C29.7614 16.9965 27.4174 16.0731 24.9923 15.9614C25.6417 14.5307 25.9867 12.9782 25.9867 11.4054C25.9867 10.5632 25.8852 9.71084 25.6924 8.87878C26.6665 8.58451 27.6711 8.44245 28.6757 8.44245C30.7152 8.44245 32.7142 9.04113 34.4291 10.1675C34.4798 10.5835 34.5102 10.9894 34.5102 11.4054M24.0587 0.994491C27.5595 0.994491 30.9689 2.74994 32.9375 5.93612C33.6477 7.0726 34.0942 8.3004 34.3276 9.54849C32.6127 8.51348 30.6544 7.96554 28.6655 7.96554C27.6305 7.96554 26.5854 8.11775 25.5605 8.42216C25.2967 7.47848 24.8908 6.56524 24.353 5.69259C23.2876 3.96759 21.8162 2.64847 20.1318 1.76567C21.4104 1.24817 22.7396 0.994491 24.0587 0.994491ZM39.5736 18.8534C39.5736 16.895 39.046 14.9163 37.9501 13.1304C37.1282 11.8113 36.0729 10.7256 34.8654 9.89349C34.6625 8.44246 34.1652 7.01172 33.3433 5.68245C31.2835 2.34405 27.7117 0.517578 24.0587 0.517578C22.5468 0.517578 21.0146 0.832138 19.5737 1.4917C18.1633 0.852432 16.6311 0.527725 15.0786 0.527725C13.1202 0.527725 11.1314 1.05537 9.34547 2.16141C6.10855 4.16038 4.28207 7.57995 4.1806 11.1213C1.47133 13.242 0 16.4384 0 19.7057C0 21.6641 0.527649 23.6428 1.63368 25.4287C2.4556 26.7681 3.53119 27.8538 4.75898 28.6859C4.97207 30.0862 5.46928 31.4662 6.26075 32.7549C8.32061 36.0831 11.8924 37.9198 15.5453 37.9198C17.108 37.9198 18.6808 37.5849 20.1724 36.8848C21.5321 37.4631 22.9933 37.7777 24.4748 37.7777C26.4332 37.7777 28.422 37.25 30.218 36.144C33.3636 34.1958 35.18 30.9183 35.3728 27.4885C38.1023 25.3678 39.5939 22.1512 39.5939 18.8737" fill="black"></path>
  <path d="M57.4309 3.23663L53.6764 12.572H61.2563L57.4309 3.23663ZM65.3456 22.8104L62.0376 14.5912H52.8647L49.6075 22.8205H47.0605L56.2538 0.436035H58.9428L68.1056 22.8104H65.3456Z" fill="black"></path>
  <path d="M75.7661 2.58722V22.8104H73.2192V2.58722H65.8828V0.436035H83.0517V2.58722H75.7661Z" fill="black"></path>
  <path d="M99.3481 2.58722V22.8104H96.8012V2.58722H89.4648V0.436035H106.634V2.58722H99.3481Z" fill="black"></path>
  <path d="M123.125 22.8104V12.095H110.969V22.8104H108.412V0.436035H110.969V10.0656H123.125V0.436035H125.672V22.8104H123.125Z" fill="black"></path>
  <path d="M128.301 22.8104L128.341 0.436035H140.376V2.58722H130.858V10.0047H139.868V12.0849H130.858V20.5983H141.046V22.8104H128.301Z" fill="black"></path>
  <path d="M158.388 2.58722V22.8104H155.83V2.58722H148.494V0.436035H165.663V2.58722H158.388Z" fill="black"></path>
  <path d="M182.138 11.04C182.138 8.46267 181.397 6.35208 179.906 4.6981C178.414 3.04413 176.588 2.21207 174.416 2.21207C172.245 2.21207 170.428 3.09486 168.957 4.85031C167.496 6.60576 166.755 8.78738 166.755 11.385C166.755 14.2059 167.465 16.5093 168.896 18.3054C170.327 20.0912 172.184 20.9943 174.457 20.9943C176.73 20.9943 178.556 20.142 179.987 18.4373C181.418 16.7326 182.128 14.5509 182.128 11.8924V11.0502L182.138 11.04ZM174.162 23.2876C171.21 23.2876 168.805 22.2221 166.958 20.1014C165.101 17.9705 164.178 15.2308 164.178 11.8822C164.178 8.5337 165.172 5.60119 167.161 3.35869C169.15 1.12633 171.697 0 174.802 0C177.907 0 180.149 1.0553 182.006 3.15574C183.863 5.25619 184.786 7.99591 184.786 11.3749C184.786 14.7539 183.782 17.6356 181.773 19.8984C179.764 22.1612 177.227 23.2876 174.162 23.2876Z" fill="black"></path>
  <path d="M196.407 3.41928C195.646 2.90178 194.387 2.6481 192.612 2.6481H189.395V10.8469H192.683C193.576 10.8469 194.408 10.7455 195.169 10.5425C195.93 10.3396 196.579 9.87283 197.127 9.13209C197.675 8.39135 197.949 7.54915 197.949 6.61561C197.949 5.94591 197.817 5.33708 197.543 4.78914C197.279 4.24119 196.894 3.78458 196.407 3.42943M198.416 11.2528C197.726 11.8515 196.894 12.2878 195.93 12.5618C194.966 12.8256 193.748 12.9677 192.277 12.9677H189.395V22.8205H186.838V0.436035H191.769C192.196 0.436035 192.703 0.456329 193.281 0.486771C193.86 0.517212 194.499 0.547653 195.189 0.567947C196.823 0.720154 198.132 1.33913 199.116 2.41472C200.1 3.49031 200.597 4.82973 200.597 6.44311C200.597 8.37106 199.867 9.96415 198.416 11.2427" fill="black"></path>
  <path d="M159.998 28.5437H158.801V37.4021H159.998V28.5437Z" fill="black"></path>
  <path d="M143.075 28.4019L144.749 33.2116C145.419 35.1598 145.926 36.5804 146.23 37.311V37.4023H144.962L144.211 35.1395C143.998 34.48 143.896 34.4089 143.004 34.4089H141.106C140.873 34.4089 140.812 34.4597 140.751 34.622L139.797 37.4125H139.117L142.253 28.412H143.054L143.075 28.4019ZM142.405 29.8224L141.025 33.861H142.608C143.572 33.861 143.734 33.7189 143.531 33.1203L142.405 29.8326V29.8224Z" fill="black"></path>
  <path d="M176.559 28.4019L178.233 33.2116C178.913 35.1598 179.41 36.5804 179.715 37.311V37.4023H178.446L177.695 35.1395C177.482 34.48 177.381 34.4089 176.488 34.4089H174.59C174.357 34.4089 174.296 34.4597 174.235 34.622L173.281 37.4125H172.602L175.737 28.412H176.539L176.559 28.4019ZM175.889 29.8224L174.509 33.861H176.092C177.056 33.861 177.218 33.7189 177.016 33.1203L175.889 29.8326V29.8224Z" fill="black"></path>
  <path d="M82.6683 37.5743C83.8758 37.5743 84.8093 37.1887 85.3269 36.4581C85.6617 35.9913 85.7936 35.4129 85.7936 34.7635V28.5332H84.6673V34.8954C84.6673 36.0319 83.9976 36.864 82.6886 36.864C81.3796 36.864 80.7404 36.0319 80.7404 34.8954V28.5332H79.5938V34.7635C79.5938 35.4332 79.7155 36.0015 80.091 36.4987C80.6186 37.209 81.4913 37.5743 82.6785 37.5743" fill="black"></path>
  <path d="M102.396 39.7156C105.146 39.2184 105.501 38.2037 105.501 35.8293V28.5437H103.147V28.8177H103.33C104.05 28.8177 104.304 28.9902 104.304 29.6091V36.012C104.304 37.7776 104.162 38.7415 102.396 39.4518V39.7258V39.7156Z" fill="black"></path>
  <path d="M70.4513 36.8542H70.2483C69.2945 36.8542 69.1524 36.7223 69.1524 36.0323V33.0389H70.0048C71.1007 33.0389 72.2879 33.4955 72.2879 35.0378C72.2879 36.4077 71.4051 36.8542 70.4513 36.8542ZM70.1063 29.0815C71.466 29.0815 72.0444 29.7411 72.0444 30.7456C72.0444 31.7502 71.466 32.4909 70.228 32.4909H70.1063C69.1524 32.4909 69.1524 32.359 69.1524 31.5371V29.0815H70.1063ZM71.466 32.7649C72.4198 32.4909 73.2417 31.8111 73.2417 30.5833C73.2417 29.2236 72.2067 28.5437 70.431 28.5437H67.9551V37.4021H70.3802C72.8257 37.4021 73.5157 36.1134 73.5157 34.8856C73.5157 33.5259 72.5111 32.8968 71.4761 32.7649" fill="black"></path>
  <path d="M93.4856 29.0811H92.6333V33.1095C95.2614 32.9573 95.789 32.0339 95.789 30.8975C95.789 29.761 95.028 29.0811 93.4856 29.0811ZM97.0067 30.8163C97.0067 32.0542 96.2659 32.8863 94.7946 33.3125C95.1498 33.7285 95.5252 34.3779 95.8905 34.936C96.479 35.8391 96.9965 36.6103 97.5749 37.28V37.3916H96.1239L94.1655 34.3475C93.7901 33.7691 93.4146 33.6372 92.6231 33.6372V37.3916H91.4258V28.5332H93.7596C94.6018 28.5332 97.0067 28.6245 97.0067 30.8163Z" fill="black"></path>
  <path d="M126.069 37.6358L121.787 32.7956L125.846 28.5034H124.588L120.782 32.613V28.6353H119.555V37.4937H120.782V33.0798L124.73 37.6358H126.069Z" fill="black"></path>
  <path d="M133.993 28.6147V32.217H130.401V28.6147H129.254V37.4732H130.401V33.0795H133.993V37.4732H135.149V28.6147H133.993Z" fill="black"></path>
  <path d="M151.263 36.6107V28.6147H150.035V37.4732H155.616V36.6107H151.263Z" fill="black"></path>
  <path d="M167.417 32.4906C166.635 32.4703 166.625 32.3079 166.625 31.5367V29.0811H170.704V28.5332H165.428V37.3916H166.625V33.0284H167.406H170.704V32.4804H167.417" fill="black"></path>
  <path d="M233.025 22.2485C233.103 21.8667 233.103 21.3248 233.038 20.8815L232.514 17.1993L229.632 22.2608H229.082L226.148 16.9776L225.584 20.9677C225.519 21.4234 225.506 22.0145 225.558 22.2608H224.523C224.72 21.8544 224.772 21.682 224.864 21.0293L225.794 14.4407H226.266L229.684 20.5982L233.103 14.4407H233.457L234.426 21.017C234.518 21.6697 234.596 21.8667 234.78 22.2608H233.011L233.025 22.2485Z" fill="#373534"></path>
  <path d="M224.065 21.4695L223.947 22.2454H218C218.249 21.7035 218.236 21.3957 218.236 21.0139V15.6568C218.236 15.275 218.249 14.9425 218 14.4253H223.803V15.2135C223.698 15.1765 223.619 15.1396 223.541 15.1026C223.331 15.0287 223.056 14.9548 222.768 14.9548H219.585V18.0213H223.318L223.135 18.6248H219.585V21.6912H222.951C223.515 21.6912 224.078 21.3957 224.078 21.3957V21.4572L224.065 21.4695Z" fill="#373534"></path>
  <path d="M254.127 18.2169V14.8795C256.733 14.781 257.008 16.0002 257.034 16.5667C257.061 17.1455 256.799 17.8351 256.039 18.1184C256.039 18.1184 256.039 18.1184 256 18.1184C255.594 18.2908 254.127 18.2169 254.127 18.2169ZM255.908 18.5864L256.262 18.5494C257.427 18.3893 258.436 17.7489 258.436 16.5544C258.436 14.3007 255.554 14.4115 254.336 14.4115H252.555C252.804 14.9411 252.79 15.2613 252.79 15.643V21.0124C252.79 21.4065 252.804 21.7021 252.555 22.244H254.375C254.14 21.7021 254.14 21.4065 254.14 21.0124V18.5987C254.31 18.5987 254.585 18.6603 254.965 19.0913C256.301 20.5937 257.375 21.542 258.2 22.244H259.877C259.707 22.0962 255.908 18.5864 255.908 18.5864Z" fill="#373534"></path>
  <path d="M246.491 18.8318L247.591 16.4919L248.718 18.8318H246.491ZM251.206 20.9623L248.049 14.4106H247.683L244.474 21.147C244.225 21.6519 244.12 21.8367 243.779 22.2308H244.853L246.203 19.3613H248.966L250.342 22.2308H252.163C251.678 21.7874 251.521 21.5904 251.18 20.95" fill="#373534"></path>
  <path d="M237.844 18.8318L238.944 16.4919L240.07 18.8318H237.844ZM242.559 20.9623L239.402 14.4106H239.036L235.826 21.147C235.578 21.6519 235.473 21.8367 235.119 22.2308H236.193L237.556 19.3613H240.319L241.695 22.2308H243.515C243.031 21.7874 242.874 21.5904 242.533 20.95" fill="#373534"></path>
</svg>
