<svg width="17" height="18" viewBox="0 0 17 18" fill="none" xmlns="http://www.w3.org/2000/svg">
<path d="M4.6057 5.28662H4.39253L3.99419 7.27881H5.00405L4.6057 5.28662Z" fill="#373534"/>
<path d="M8.10718 2.04663C8.01428 1.30052 7.37663 0.737793 6.6247 0.737793H1.49417C0.670253 0.737793 0 1.40803 0 2.23193V13.2554C0 14.0793 0.670253 14.7495 1.49417 14.7495C4.47156 14.7495 6.61344 14.7495 9.34857 14.7495C9.49387 14.5834 9.61566 14.4794 9.62081 14.2627C9.62207 14.2083 8.11392 2.10055 8.10718 2.04663ZM6.10765 10.2574C5.84354 10.3117 5.57602 10.1403 5.52156 9.86679L5.20324 8.2749H3.79503L3.47671 9.86679C3.42322 10.1362 3.16346 10.3133 2.89063 10.2574C2.62118 10.2034 2.44606 9.94123 2.50005 9.67129L3.49613 4.69082C3.54282 4.45834 3.74712 4.29053 3.98446 4.29053H5.01378C5.25112 4.29053 5.45542 4.45834 5.50211 4.69082L6.49822 9.67129C6.55221 9.94123 6.37713 10.2034 6.10765 10.2574Z" fill="#373534"/>
<path d="M5.81933 15.7456L5.9048 16.429C5.96178 16.8866 6.26586 17.3533 6.76604 17.5863C7.70996 16.5472 7.13888 17.1758 8.43815 15.7456H5.81933Z" fill="#373534"/>
<path fill-rule="evenodd" clip-rule="evenodd" d="M9.32052 3.75928H15.5058C16.3297 3.75928 17 4.46272 17 5.28662V16.2437C17 17.0676 16.3297 17.7378 15.5058 17.7378H8.05698L10.2411 15.2417C10.5173 14.9298 10.633 14.5313 10.6102 14.108L9.32052 3.75928ZM13.6968 13.0845C13.8442 13.0845 14.0081 13.0774 14.1886 13.063C14.2974 13.0543 14.4125 13.0397 14.534 13.0191C14.6139 13.0056 14.6965 12.9895 14.782 12.9708C14.9972 12.9236 15.2276 12.8509 15.4736 12.7525L15.3795 12.4259L15.2523 11.984C15.144 12.0118 15.0304 12.0352 14.9113 12.0544C14.8365 12.0664 14.7596 12.0767 14.6806 12.0854C14.4756 12.1078 14.2769 12.1192 14.0842 12.1192C13.7357 12.1192 13.4446 12.0925 13.211 12.0393C12.9773 11.986 12.803 11.905 12.6883 11.7965C12.6396 11.7503 12.6012 11.6992 12.5732 11.6431C12.5352 11.5671 12.5162 11.4819 12.5162 11.3876C12.5162 11.3033 12.5272 11.2228 12.5494 11.1462C12.5595 11.1111 12.572 11.0768 12.5869 11.0432C12.634 10.9365 12.7068 10.8381 12.8052 10.748C12.9036 10.6578 13.0306 10.5757 13.1863 10.5021C13.2188 10.4867 13.2526 10.4716 13.2877 10.4568C13.4211 10.4004 13.5738 10.3479 13.7458 10.2992L13.7991 10.2844C14.004 10.2285 14.2382 10.1761 14.502 10.1271L14.7048 9.19258C14.4889 9.21065 14.2828 9.23678 14.0863 9.271C13.9089 9.30187 13.7394 9.33933 13.5778 9.38336C13.5176 9.36617 13.4579 9.34598 13.3984 9.3217C13.3591 9.30577 13.3215 9.28886 13.2855 9.271C13.2291 9.24308 13.1766 9.21282 13.1279 9.18033C13.048 9.12705 12.9844 9.06668 12.9373 8.999C12.8903 8.93133 12.8666 8.86064 12.8666 8.78695C12.8666 8.67631 12.9128 8.57598 13.005 8.48574C13.0972 8.39551 13.2562 8.35039 13.4815 8.35039C13.5922 8.35039 13.7017 8.36156 13.8104 8.38412C13.9192 8.40668 14.0309 8.44256 14.1456 8.49176L14.2455 8.2749L14.5392 7.63711C14.3916 7.55934 14.2266 7.49875 14.0442 7.45578C13.971 7.43855 13.897 7.42478 13.8222 7.41446C13.7105 7.39904 13.597 7.39133 13.4815 7.39133C13.3615 7.39133 13.2475 7.39872 13.1396 7.41348C12.9601 7.43802 12.7974 7.48295 12.6516 7.54816C12.4178 7.65279 12.2365 7.80447 12.1074 8.0032C12.0534 8.08644 12.0107 8.177 11.9793 8.2749C11.9356 8.411 11.9138 8.56128 11.9138 8.72572C11.9138 8.94701 11.9701 9.14381 12.0829 9.3159C12.1957 9.48799 12.3371 9.63451 12.5072 9.75547C12.5298 9.77137 12.5523 9.78684 12.5749 9.80209C12.5063 9.84398 12.4406 9.8876 12.3781 9.93357C12.2409 10.0341 12.1198 10.143 12.0148 10.2603C11.9081 10.3795 11.8181 10.5073 11.7447 10.6436C11.5991 10.9141 11.5264 11.2155 11.5264 11.5475C11.5264 11.8016 11.5819 12.024 11.6925 12.2146C11.7111 12.2466 11.7309 12.2777 11.7519 12.308C11.8557 12.458 11.9886 12.5867 12.1506 12.6941C12.2823 12.7815 12.43 12.8543 12.5937 12.9126C12.6719 12.9404 12.7537 12.9649 12.8391 12.9861C13.1034 13.0516 13.3894 13.0845 13.6968 13.0845Z" fill="#373534"/>
</svg>
