<svg width="86" height="25" viewBox="0 0 86 25" fill="none" xmlns="http://www.w3.org/2000/svg">
<rect x="0.390625" y="0.41394" width="85.6094" height="24.1721" rx="4.29111" fill="#020202" fill-opacity="0.6"/>
<path d="M15.6473 8.004C16.9353 8.004 17.8733 8.284 18.4613 8.844C19.0586 9.39467 19.3573 10.1553 19.3573 11.126C19.3573 11.5647 19.292 11.9847 19.1613 12.386C19.0306 12.778 18.8113 13.1327 18.5033 13.45C18.2046 13.758 17.808 14.0007 17.3133 14.178C16.8186 14.3553 16.2073 14.444 15.4793 14.444H14.5693V18H12.4553V8.004H15.6473ZM15.5353 9.74H14.5693V12.708H15.2693C15.6706 12.708 16.016 12.6567 16.3053 12.554C16.5946 12.4513 16.8186 12.288 16.9773 12.064C17.136 11.84 17.2153 11.5507 17.2153 11.196C17.2153 10.7013 17.08 10.3373 16.8093 10.104C16.5386 9.86133 16.114 9.74 15.5353 9.74ZM26.6671 18L25.9391 15.62H22.2991L21.5711 18H19.2891L22.8171 7.962H25.4071L28.9491 18H26.6671ZM24.7071 11.518C24.6604 11.3593 24.5997 11.1587 24.5251 10.916C24.4504 10.6733 24.3757 10.426 24.3011 10.174C24.2264 9.922 24.1657 9.70267 24.1191 9.516C24.0724 9.70267 24.0071 9.936 23.9231 10.216C23.8484 10.4867 23.7737 10.748 23.6991 11C23.6337 11.2427 23.5824 11.4153 23.5451 11.518L22.8311 13.842H25.4351L24.7071 11.518ZM34.1836 9.628C33.7823 9.628 33.423 9.70733 33.1056 9.866C32.7976 10.0247 32.5363 10.2533 32.3216 10.552C32.107 10.8413 31.9436 11.196 31.8316 11.616C31.729 12.036 31.6776 12.5073 31.6776 13.03C31.6776 13.7393 31.7616 14.346 31.9296 14.85C32.107 15.3447 32.3823 15.7227 32.7556 15.984C33.129 16.2453 33.605 16.376 34.1836 16.376C34.5943 16.376 35.0003 16.3293 35.4016 16.236C35.8123 16.1427 36.2556 16.012 36.7316 15.844V17.622C36.293 17.7993 35.859 17.93 35.4296 18.014C35.0003 18.098 34.5196 18.14 33.9876 18.14C32.961 18.14 32.1116 17.93 31.4396 17.51C30.777 17.0807 30.287 16.4833 29.9696 15.718C29.6523 14.9433 29.4936 14.0427 29.4936 13.016C29.4936 12.26 29.5963 11.5693 29.8016 10.944C30.007 10.3093 30.3056 9.76333 30.6976 9.306C31.099 8.84867 31.589 8.494 32.1676 8.242C32.7556 7.99 33.4276 7.864 34.1836 7.864C34.6783 7.864 35.173 7.92933 35.6676 8.06C36.1716 8.18133 36.6523 8.34933 37.1096 8.564L36.4236 10.286C36.0503 10.1087 35.6723 9.95467 35.2896 9.824C34.9163 9.69333 34.5476 9.628 34.1836 9.628ZM46.8917 18H44.4837L41.8657 13.786L40.9697 14.43V18H38.8557V8.004H40.9697V12.582C41.1097 12.386 41.2497 12.19 41.3897 11.994C41.5297 11.798 41.6697 11.602 41.8097 11.406L44.5117 8.004H46.8637L43.3777 12.428L46.8917 18ZM54.2706 18L53.5426 15.62H49.9026L49.1746 18H46.8926L50.4206 7.962H53.0106L56.5526 18H54.2706ZM52.3106 11.518C52.2639 11.3593 52.2032 11.1587 52.1286 10.916C52.0539 10.6733 51.9792 10.426 51.9046 10.174C51.8299 9.922 51.7692 9.70267 51.7226 9.516C51.6759 9.70267 51.6106 9.936 51.5266 10.216C51.4519 10.4867 51.3772 10.748 51.3026 11C51.2372 11.2427 51.1859 11.4153 51.1486 11.518L50.4346 13.842H53.0386L52.3106 11.518ZM61.3392 12.386H65.3012V17.566C64.7785 17.7433 64.2325 17.8833 63.6632 17.986C63.1032 18.0887 62.4638 18.14 61.7452 18.14C60.7558 18.14 59.9112 17.944 59.2112 17.552C58.5205 17.16 57.9932 16.5813 57.6292 15.816C57.2745 15.0507 57.0972 14.108 57.0972 12.988C57.0972 11.9427 57.2978 11.0373 57.6992 10.272C58.1098 9.50667 58.7025 8.914 59.4772 8.494C60.2518 8.074 61.1992 7.864 62.3192 7.864C62.8512 7.864 63.3738 7.92 63.8872 8.032C64.4005 8.144 64.8672 8.29333 65.2872 8.48L64.5872 10.174C64.2792 10.0153 63.9292 9.88467 63.5372 9.782C63.1452 9.67933 62.7345 9.628 62.3052 9.628C61.6892 9.628 61.1525 9.768 60.6952 10.048C60.2472 10.328 59.8972 10.7247 59.6452 11.238C59.4025 11.742 59.2812 12.3393 59.2812 13.03C59.2812 13.6833 59.3698 14.262 59.5472 14.766C59.7245 15.27 60.0045 15.6667 60.3872 15.956C60.7698 16.236 61.2692 16.376 61.8852 16.376C62.0905 16.376 62.2678 16.3713 62.4172 16.362C62.5758 16.3433 62.7205 16.3247 62.8512 16.306C62.9818 16.278 63.1078 16.2547 63.2292 16.236V14.15H61.3392V12.386ZM73.43 18H67.676V8.004H73.43V9.74H69.79V11.938H73.178V13.674H69.79V16.25H73.43V18Z" fill="white"/>
</svg>
